%TF.GenerationSoftware,KiCad,Pcbnew,(5.1.10)-1*%
%TF.CreationDate,2021-07-28T16:14:29+02:00*%
%TF.ProjectId,LEDBeam,4c454442-6561-46d2-9e6b-696361645f70,rev?*%
%TF.SameCoordinates,Original*%
%TF.FileFunction,Copper,L2,Bot*%
%TF.FilePolarity,Positive*%
%FSLAX46Y46*%
G04 Gerber Fmt 4.6, Leading zero omitted, Abs format (unit mm)*
G04 Created by KiCad (PCBNEW (5.1.10)-1) date 2021-07-28 16:14:29*
%MOMM*%
%LPD*%
G01*
G04 APERTURE LIST*
%TA.AperFunction,ComponentPad*%
%ADD10O,1.700000X1.700000*%
%TD*%
%TA.AperFunction,ComponentPad*%
%ADD11R,1.700000X1.700000*%
%TD*%
%TA.AperFunction,ComponentPad*%
%ADD12O,2.000000X1.905000*%
%TD*%
%TA.AperFunction,ComponentPad*%
%ADD13R,2.000000X1.905000*%
%TD*%
%TA.AperFunction,ComponentPad*%
%ADD14O,1.600000X1.600000*%
%TD*%
%TA.AperFunction,ComponentPad*%
%ADD15C,1.600000*%
%TD*%
%TA.AperFunction,ComponentPad*%
%ADD16O,1.600000X2.000000*%
%TD*%
%TA.AperFunction,ComponentPad*%
%ADD17R,2.000000X2.000000*%
%TD*%
%TA.AperFunction,ComponentPad*%
%ADD18C,2.300000*%
%TD*%
%TA.AperFunction,ComponentPad*%
%ADD19C,3.000000*%
%TD*%
%TA.AperFunction,ViaPad*%
%ADD20C,4.000000*%
%TD*%
%TA.AperFunction,ViaPad*%
%ADD21C,0.800000*%
%TD*%
%TA.AperFunction,Conductor*%
%ADD22C,0.500000*%
%TD*%
%TA.AperFunction,Conductor*%
%ADD23C,0.250000*%
%TD*%
%TA.AperFunction,Conductor*%
%ADD24C,0.254000*%
%TD*%
%TA.AperFunction,Conductor*%
%ADD25C,0.100000*%
%TD*%
G04 APERTURE END LIST*
D10*
%TO.P,U6,7*%
%TO.N,W-*%
X31242000Y-98552000D03*
%TO.P,U6,6*%
%TO.N,W+*%
X31242000Y-101092000D03*
%TO.P,U6,5*%
%TO.N,W_PWM*%
X31242000Y-103632000D03*
%TO.P,U6,4*%
%TO.N,GND*%
X31242000Y-106172000D03*
%TO.P,U6,3*%
X31242000Y-108712000D03*
%TO.P,U6,2*%
%TO.N,+24V*%
X31242000Y-111252000D03*
D11*
%TO.P,U6,1*%
X31242000Y-113792000D03*
%TD*%
D10*
%TO.P,U5,7*%
%TO.N,B-*%
X19812000Y-98552000D03*
%TO.P,U5,6*%
%TO.N,B+*%
X19812000Y-101092000D03*
%TO.P,U5,5*%
%TO.N,B_PWM*%
X19812000Y-103632000D03*
%TO.P,U5,4*%
%TO.N,GND*%
X19812000Y-106172000D03*
%TO.P,U5,3*%
X19812000Y-108712000D03*
%TO.P,U5,2*%
%TO.N,+24V*%
X19812000Y-111252000D03*
D11*
%TO.P,U5,1*%
X19812000Y-113792000D03*
%TD*%
D10*
%TO.P,U3,7*%
%TO.N,G-*%
X19812000Y-127762000D03*
%TO.P,U3,6*%
%TO.N,G+*%
X19812000Y-130302000D03*
%TO.P,U3,5*%
%TO.N,G_PWM*%
X19812000Y-132842000D03*
%TO.P,U3,4*%
%TO.N,GND*%
X19812000Y-135382000D03*
%TO.P,U3,3*%
X19812000Y-137922000D03*
%TO.P,U3,2*%
%TO.N,+24V*%
X19812000Y-140462000D03*
D11*
%TO.P,U3,1*%
X19812000Y-143002000D03*
%TD*%
D10*
%TO.P,U2,7*%
%TO.N,R-*%
X31242000Y-127762000D03*
%TO.P,U2,6*%
%TO.N,R+*%
X31242000Y-130302000D03*
%TO.P,U2,5*%
%TO.N,R_PWM*%
X31242000Y-132842000D03*
%TO.P,U2,4*%
%TO.N,GND*%
X31242000Y-135382000D03*
%TO.P,U2,3*%
X31242000Y-137922000D03*
%TO.P,U2,2*%
%TO.N,+24V*%
X31242000Y-140462000D03*
D11*
%TO.P,U2,1*%
X31242000Y-143002000D03*
%TD*%
D12*
%TO.P,U4,3*%
%TO.N,+5V*%
X40640000Y-80772000D03*
%TO.P,U4,2*%
%TO.N,GND*%
X40640000Y-83312000D03*
D13*
%TO.P,U4,1*%
%TO.N,+24V*%
X40640000Y-85852000D03*
%TD*%
D14*
%TO.P,R1,2*%
%TO.N,+5V*%
X41656000Y-61214000D03*
D15*
%TO.P,R1,1*%
%TO.N,Net-(J3-Pad2)*%
X41656000Y-71374000D03*
%TD*%
D16*
%TO.P,U1,16*%
%TO.N,Net-(U1-Pad16)*%
X11430000Y-52070000D03*
%TO.P,U1,15*%
%TO.N,Net-(U1-Pad15)*%
X13970000Y-52070000D03*
%TO.P,U1,14*%
%TO.N,G_PWM*%
X16510000Y-52070000D03*
%TO.P,U1,13*%
%TO.N,R_PWM*%
X19050000Y-52070000D03*
%TO.P,U1,12*%
%TO.N,Net-(U1-Pad12)*%
X21590000Y-52070000D03*
%TO.P,U1,11*%
%TO.N,Net-(U1-Pad11)*%
X24130000Y-52070000D03*
%TO.P,U1,10*%
%TO.N,GND*%
X26670000Y-52070000D03*
%TO.P,U1,9*%
%TO.N,+5V*%
X29210000Y-52070000D03*
%TO.P,U1,8*%
%TO.N,Net-(U1-Pad8)*%
X29210000Y-74930000D03*
%TO.P,U1,7*%
%TO.N,Net-(U1-Pad7)*%
X26670000Y-74930000D03*
%TO.P,U1,6*%
%TO.N,Net-(U1-Pad6)*%
X24130000Y-74930000D03*
%TO.P,U1,5*%
%TO.N,W_PWM*%
X21590000Y-74930000D03*
%TO.P,U1,4*%
%TO.N,B_PWM*%
X19050000Y-74930000D03*
%TO.P,U1,3*%
%TO.N,Net-(U1-Pad3)*%
X16510000Y-74930000D03*
D17*
%TO.P,U1,1*%
%TO.N,Net-(U1-Pad1)*%
X11430000Y-74930000D03*
D16*
%TO.P,U1,2*%
%TO.N,Net-(U1-Pad2)*%
X13970000Y-74930000D03*
%TD*%
%TO.P,J3,1*%
%TO.N,GND*%
%TA.AperFunction,ComponentPad*%
G36*
G01*
X40524001Y-97390000D02*
X38723999Y-97390000D01*
G75*
G02*
X38474000Y-97140001I0J249999D01*
G01*
X38474000Y-95339999D01*
G75*
G02*
X38723999Y-95090000I249999J0D01*
G01*
X40524001Y-95090000D01*
G75*
G02*
X40774000Y-95339999I0J-249999D01*
G01*
X40774000Y-97140001D01*
G75*
G02*
X40524001Y-97390000I-249999J0D01*
G01*
G37*
%TD.AperFunction*%
D18*
%TO.P,J3,2*%
%TO.N,Net-(J3-Pad2)*%
X39624000Y-91440000D03*
%TD*%
%TO.P,J2,2*%
%TO.N,Net-(F1-Pad1)*%
X25680000Y-89916000D03*
%TO.P,J2,1*%
%TO.N,+24V*%
%TA.AperFunction,ComponentPad*%
G36*
G01*
X31630000Y-89015999D02*
X31630000Y-90816001D01*
G75*
G02*
X31380001Y-91066000I-249999J0D01*
G01*
X29579999Y-91066000D01*
G75*
G02*
X29330000Y-90816001I0J249999D01*
G01*
X29330000Y-89015999D01*
G75*
G02*
X29579999Y-88766000I249999J0D01*
G01*
X31380001Y-88766000D01*
G75*
G02*
X31630000Y-89015999I0J-249999D01*
G01*
G37*
%TD.AperFunction*%
%TD*%
%TO.P,J1,2*%
%TO.N,Net-(F1-Pad2)*%
X16536000Y-89916000D03*
%TO.P,J1,1*%
%TO.N,GND*%
%TA.AperFunction,ComponentPad*%
G36*
G01*
X22486000Y-89015999D02*
X22486000Y-90816001D01*
G75*
G02*
X22236001Y-91066000I-249999J0D01*
G01*
X20435999Y-91066000D01*
G75*
G02*
X20186000Y-90816001I0J249999D01*
G01*
X20186000Y-89015999D01*
G75*
G02*
X20435999Y-88766000I249999J0D01*
G01*
X22236001Y-88766000D01*
G75*
G02*
X22486000Y-89015999I0J-249999D01*
G01*
G37*
%TD.AperFunction*%
%TD*%
D19*
%TO.P,F1,2*%
%TO.N,Net-(F1-Pad2)*%
X12198000Y-82042000D03*
%TO.P,F1,1*%
%TO.N,Net-(F1-Pad1)*%
X34798000Y-82042000D03*
%TD*%
D10*
%TO.P,D1,8*%
%TO.N,W-*%
X39116000Y-111760000D03*
%TO.P,D1,7*%
%TO.N,W+*%
X39116000Y-114300000D03*
%TO.P,D1,6*%
%TO.N,B-*%
X39116000Y-116840000D03*
%TO.P,D1,5*%
%TO.N,B+*%
X39116000Y-119380000D03*
%TO.P,D1,4*%
%TO.N,G-*%
X39116000Y-121920000D03*
%TO.P,D1,3*%
%TO.N,G+*%
X39116000Y-124460000D03*
%TO.P,D1,2*%
%TO.N,R-*%
X39116000Y-127000000D03*
D11*
%TO.P,D1,1*%
%TO.N,R+*%
X39116000Y-129540000D03*
%TD*%
D20*
%TO.N,*%
X42418000Y-53848000D03*
X13970000Y-56642000D03*
X42926000Y-147574000D03*
X12954000Y-147574000D03*
D21*
%TO.N,GND*%
X26924000Y-66802000D03*
X34290000Y-94488000D03*
X13970000Y-65786000D03*
X15240000Y-79502000D03*
X41148000Y-75438000D03*
X26670000Y-79756000D03*
X13462000Y-101854000D03*
%TD*%
D22*
%TO.N,W+*%
X31242000Y-101092000D02*
X33020000Y-102870000D01*
X33020000Y-102870000D02*
X33020000Y-111506000D01*
X35814000Y-114300000D02*
X39116000Y-114300000D01*
X33020000Y-111506000D02*
X35814000Y-114300000D01*
%TO.N,W-*%
X31242000Y-98552000D02*
X33782000Y-101092000D01*
X33782000Y-101092000D02*
X33782000Y-110490000D01*
X35052000Y-111760000D02*
X39116000Y-111760000D01*
X33782000Y-110490000D02*
X35052000Y-111760000D01*
%TO.N,B+*%
X23876000Y-119380000D02*
X39116000Y-119380000D01*
X19812000Y-101092000D02*
X21590000Y-102870000D01*
X21590000Y-117094000D02*
X23876000Y-119380000D01*
X21590000Y-102870000D02*
X21590000Y-117094000D01*
%TO.N,B-*%
X39116000Y-117455998D02*
X39116000Y-116840000D01*
X38207998Y-118364000D02*
X39116000Y-117455998D01*
X24130000Y-118364000D02*
X38207998Y-118364000D01*
X19812000Y-98552000D02*
X22352000Y-101092000D01*
X22352000Y-116586000D02*
X24130000Y-118364000D01*
X22352000Y-101092000D02*
X22352000Y-116586000D01*
%TO.N,G+*%
X19812000Y-130302000D02*
X25654000Y-130302000D01*
X25654000Y-130302000D02*
X29972000Y-125984000D01*
X37592000Y-125984000D02*
X39116000Y-124460000D01*
X29972000Y-125984000D02*
X37592000Y-125984000D01*
%TO.N,G-*%
X19812000Y-127762000D02*
X27178000Y-127762000D01*
X29490037Y-125476000D02*
X29744037Y-125222000D01*
X29464000Y-125476000D02*
X29490037Y-125476000D01*
X27178000Y-127762000D02*
X29464000Y-125476000D01*
X35814000Y-125222000D02*
X39116000Y-121920000D01*
X29744037Y-125222000D02*
X35814000Y-125222000D01*
%TO.N,R+*%
X38354000Y-130302000D02*
X39116000Y-129540000D01*
X31242000Y-130302000D02*
X38354000Y-130302000D01*
%TO.N,R-*%
X38354000Y-127762000D02*
X39116000Y-127000000D01*
X31242000Y-127762000D02*
X38354000Y-127762000D01*
%TO.N,Net-(F1-Pad2)*%
X16536000Y-86380000D02*
X12198000Y-82042000D01*
X16536000Y-89916000D02*
X16536000Y-86380000D01*
%TO.N,Net-(F1-Pad1)*%
X33554000Y-82042000D02*
X34798000Y-82042000D01*
X25680000Y-89916000D02*
X33554000Y-82042000D01*
%TO.N,GND*%
X26950000Y-51790000D02*
X26670000Y-52070000D01*
%TO.N,Net-(J3-Pad2)*%
X41656000Y-71374000D02*
X42672000Y-72390000D01*
X42672000Y-88392000D02*
X39624000Y-91440000D01*
X42672000Y-72390000D02*
X42672000Y-88392000D01*
D23*
%TO.N,R_PWM*%
X36623001Y-69643001D02*
X36623001Y-105457001D01*
X19050000Y-52070000D02*
X36623001Y-69643001D01*
X36623001Y-105457001D02*
X41402000Y-110236000D01*
X38099002Y-132842000D02*
X31242000Y-132842000D01*
X41402000Y-129539002D02*
X38099002Y-132842000D01*
X41402000Y-110236000D02*
X41402000Y-129539002D01*
%TO.N,G_PWM*%
X16510000Y-52070000D02*
X16510000Y-72136000D01*
X16510000Y-72136000D02*
X17780000Y-73406000D01*
X17780000Y-73406000D02*
X17780000Y-88646000D01*
X17780000Y-88646000D02*
X18288000Y-89154000D01*
X18288000Y-89154000D02*
X18288000Y-94742000D01*
X18288000Y-94742000D02*
X17272000Y-95758000D01*
X17272000Y-130302000D02*
X19812000Y-132842000D01*
X17272000Y-95758000D02*
X17272000Y-130302000D01*
%TO.N,W_PWM*%
X23368000Y-95758000D02*
X31242000Y-103632000D01*
X23368000Y-87630000D02*
X23368000Y-95758000D01*
X21590000Y-85852000D02*
X23368000Y-87630000D01*
X21590000Y-74930000D02*
X21590000Y-85852000D01*
%TO.N,B_PWM*%
X19050000Y-74930000D02*
X19050000Y-94996000D01*
X19050000Y-94996000D02*
X18034000Y-96012000D01*
X18034000Y-101854000D02*
X19812000Y-103632000D01*
X18034000Y-96012000D02*
X18034000Y-101854000D01*
D22*
%TO.N,+5V*%
X40640000Y-80772000D02*
X39370000Y-79502000D01*
X39370000Y-63500000D02*
X41656000Y-61214000D01*
X39370000Y-79502000D02*
X39370000Y-63500000D01*
X32512000Y-52070000D02*
X29210000Y-52070000D01*
X39370000Y-63500000D02*
X39370000Y-58928000D01*
X39370000Y-58928000D02*
X32512000Y-52070000D01*
%TD*%
D24*
%TO.N,GND*%
X45060000Y-146024882D02*
X44972738Y-145894285D01*
X44605715Y-145527262D01*
X44174141Y-145238893D01*
X43694601Y-145040261D01*
X43185525Y-144939000D01*
X42666475Y-144939000D01*
X42157399Y-145040261D01*
X41677859Y-145238893D01*
X41246285Y-145527262D01*
X40879262Y-145894285D01*
X40590893Y-146325859D01*
X40392261Y-146805399D01*
X40291000Y-147314475D01*
X40291000Y-147833525D01*
X40392261Y-148342601D01*
X40590893Y-148822141D01*
X40879262Y-149253715D01*
X41246285Y-149620738D01*
X41376882Y-149708000D01*
X14503118Y-149708000D01*
X14633715Y-149620738D01*
X15000738Y-149253715D01*
X15289107Y-148822141D01*
X15487739Y-148342601D01*
X15589000Y-147833525D01*
X15589000Y-147314475D01*
X15487739Y-146805399D01*
X15289107Y-146325859D01*
X15000738Y-145894285D01*
X14633715Y-145527262D01*
X14202141Y-145238893D01*
X13722601Y-145040261D01*
X13213525Y-144939000D01*
X12694475Y-144939000D01*
X12185399Y-145040261D01*
X11705859Y-145238893D01*
X11274285Y-145527262D01*
X10907262Y-145894285D01*
X10820000Y-146024882D01*
X10820000Y-142152000D01*
X18323928Y-142152000D01*
X18323928Y-143852000D01*
X18336188Y-143976482D01*
X18372498Y-144096180D01*
X18431463Y-144206494D01*
X18510815Y-144303185D01*
X18607506Y-144382537D01*
X18717820Y-144441502D01*
X18837518Y-144477812D01*
X18962000Y-144490072D01*
X20662000Y-144490072D01*
X20786482Y-144477812D01*
X20906180Y-144441502D01*
X21016494Y-144382537D01*
X21113185Y-144303185D01*
X21192537Y-144206494D01*
X21251502Y-144096180D01*
X21287812Y-143976482D01*
X21300072Y-143852000D01*
X21300072Y-142152000D01*
X29753928Y-142152000D01*
X29753928Y-143852000D01*
X29766188Y-143976482D01*
X29802498Y-144096180D01*
X29861463Y-144206494D01*
X29940815Y-144303185D01*
X30037506Y-144382537D01*
X30147820Y-144441502D01*
X30267518Y-144477812D01*
X30392000Y-144490072D01*
X32092000Y-144490072D01*
X32216482Y-144477812D01*
X32336180Y-144441502D01*
X32446494Y-144382537D01*
X32543185Y-144303185D01*
X32622537Y-144206494D01*
X32681502Y-144096180D01*
X32717812Y-143976482D01*
X32730072Y-143852000D01*
X32730072Y-142152000D01*
X32717812Y-142027518D01*
X32681502Y-141907820D01*
X32622537Y-141797506D01*
X32543185Y-141700815D01*
X32446494Y-141621463D01*
X32336180Y-141562498D01*
X32263620Y-141540487D01*
X32395475Y-141408632D01*
X32557990Y-141165411D01*
X32669932Y-140895158D01*
X32727000Y-140608260D01*
X32727000Y-140315740D01*
X32669932Y-140028842D01*
X32557990Y-139758589D01*
X32395475Y-139515368D01*
X32188632Y-139308525D01*
X32006466Y-139186805D01*
X32123355Y-139117178D01*
X32339588Y-138922269D01*
X32513641Y-138688920D01*
X32638825Y-138426099D01*
X32683476Y-138278890D01*
X32562155Y-138049000D01*
X31369000Y-138049000D01*
X31369000Y-138069000D01*
X31115000Y-138069000D01*
X31115000Y-138049000D01*
X29921845Y-138049000D01*
X29800524Y-138278890D01*
X29845175Y-138426099D01*
X29970359Y-138688920D01*
X30144412Y-138922269D01*
X30360645Y-139117178D01*
X30477534Y-139186805D01*
X30295368Y-139308525D01*
X30088525Y-139515368D01*
X29926010Y-139758589D01*
X29814068Y-140028842D01*
X29757000Y-140315740D01*
X29757000Y-140608260D01*
X29814068Y-140895158D01*
X29926010Y-141165411D01*
X30088525Y-141408632D01*
X30220380Y-141540487D01*
X30147820Y-141562498D01*
X30037506Y-141621463D01*
X29940815Y-141700815D01*
X29861463Y-141797506D01*
X29802498Y-141907820D01*
X29766188Y-142027518D01*
X29753928Y-142152000D01*
X21300072Y-142152000D01*
X21287812Y-142027518D01*
X21251502Y-141907820D01*
X21192537Y-141797506D01*
X21113185Y-141700815D01*
X21016494Y-141621463D01*
X20906180Y-141562498D01*
X20833620Y-141540487D01*
X20965475Y-141408632D01*
X21127990Y-141165411D01*
X21239932Y-140895158D01*
X21297000Y-140608260D01*
X21297000Y-140315740D01*
X21239932Y-140028842D01*
X21127990Y-139758589D01*
X20965475Y-139515368D01*
X20758632Y-139308525D01*
X20576466Y-139186805D01*
X20693355Y-139117178D01*
X20909588Y-138922269D01*
X21083641Y-138688920D01*
X21208825Y-138426099D01*
X21253476Y-138278890D01*
X21132155Y-138049000D01*
X19939000Y-138049000D01*
X19939000Y-138069000D01*
X19685000Y-138069000D01*
X19685000Y-138049000D01*
X18491845Y-138049000D01*
X18370524Y-138278890D01*
X18415175Y-138426099D01*
X18540359Y-138688920D01*
X18714412Y-138922269D01*
X18930645Y-139117178D01*
X19047534Y-139186805D01*
X18865368Y-139308525D01*
X18658525Y-139515368D01*
X18496010Y-139758589D01*
X18384068Y-140028842D01*
X18327000Y-140315740D01*
X18327000Y-140608260D01*
X18384068Y-140895158D01*
X18496010Y-141165411D01*
X18658525Y-141408632D01*
X18790380Y-141540487D01*
X18717820Y-141562498D01*
X18607506Y-141621463D01*
X18510815Y-141700815D01*
X18431463Y-141797506D01*
X18372498Y-141907820D01*
X18336188Y-142027518D01*
X18323928Y-142152000D01*
X10820000Y-142152000D01*
X10820000Y-135738890D01*
X18370524Y-135738890D01*
X18415175Y-135886099D01*
X18540359Y-136148920D01*
X18714412Y-136382269D01*
X18930645Y-136577178D01*
X19056255Y-136652000D01*
X18930645Y-136726822D01*
X18714412Y-136921731D01*
X18540359Y-137155080D01*
X18415175Y-137417901D01*
X18370524Y-137565110D01*
X18491845Y-137795000D01*
X19685000Y-137795000D01*
X19685000Y-135509000D01*
X19939000Y-135509000D01*
X19939000Y-137795000D01*
X21132155Y-137795000D01*
X21253476Y-137565110D01*
X21208825Y-137417901D01*
X21083641Y-137155080D01*
X20909588Y-136921731D01*
X20693355Y-136726822D01*
X20567745Y-136652000D01*
X20693355Y-136577178D01*
X20909588Y-136382269D01*
X21083641Y-136148920D01*
X21208825Y-135886099D01*
X21253476Y-135738890D01*
X29800524Y-135738890D01*
X29845175Y-135886099D01*
X29970359Y-136148920D01*
X30144412Y-136382269D01*
X30360645Y-136577178D01*
X30486255Y-136652000D01*
X30360645Y-136726822D01*
X30144412Y-136921731D01*
X29970359Y-137155080D01*
X29845175Y-137417901D01*
X29800524Y-137565110D01*
X29921845Y-137795000D01*
X31115000Y-137795000D01*
X31115000Y-135509000D01*
X31369000Y-135509000D01*
X31369000Y-137795000D01*
X32562155Y-137795000D01*
X32683476Y-137565110D01*
X32638825Y-137417901D01*
X32513641Y-137155080D01*
X32339588Y-136921731D01*
X32123355Y-136726822D01*
X31997745Y-136652000D01*
X32123355Y-136577178D01*
X32339588Y-136382269D01*
X32513641Y-136148920D01*
X32638825Y-135886099D01*
X32683476Y-135738890D01*
X32562155Y-135509000D01*
X31369000Y-135509000D01*
X31115000Y-135509000D01*
X29921845Y-135509000D01*
X29800524Y-135738890D01*
X21253476Y-135738890D01*
X21132155Y-135509000D01*
X19939000Y-135509000D01*
X19685000Y-135509000D01*
X18491845Y-135509000D01*
X18370524Y-135738890D01*
X10820000Y-135738890D01*
X10820000Y-83683346D01*
X10837017Y-83700363D01*
X11186698Y-83934012D01*
X11575244Y-84094953D01*
X11987721Y-84177000D01*
X12408279Y-84177000D01*
X12820756Y-84094953D01*
X12947058Y-84042637D01*
X15651001Y-86746580D01*
X15651000Y-88360536D01*
X15398129Y-88529500D01*
X15149500Y-88778129D01*
X14954153Y-89070485D01*
X14819596Y-89395335D01*
X14751000Y-89740193D01*
X14751000Y-90091807D01*
X14819596Y-90436665D01*
X14954153Y-90761515D01*
X15149500Y-91053871D01*
X15398129Y-91302500D01*
X15690485Y-91497847D01*
X16015335Y-91632404D01*
X16360193Y-91701000D01*
X16711807Y-91701000D01*
X17056665Y-91632404D01*
X17381515Y-91497847D01*
X17528000Y-91399968D01*
X17528001Y-94427197D01*
X16761002Y-95194196D01*
X16731999Y-95217999D01*
X16679474Y-95282001D01*
X16637026Y-95333724D01*
X16566455Y-95465753D01*
X16566454Y-95465754D01*
X16522997Y-95609015D01*
X16512000Y-95720668D01*
X16512000Y-95720678D01*
X16508324Y-95758000D01*
X16512000Y-95795322D01*
X16512001Y-130264667D01*
X16508324Y-130302000D01*
X16522998Y-130450985D01*
X16566454Y-130594246D01*
X16637026Y-130726276D01*
X16694296Y-130796059D01*
X16732000Y-130842001D01*
X16760998Y-130865799D01*
X18370790Y-132475593D01*
X18327000Y-132695740D01*
X18327000Y-132988260D01*
X18384068Y-133275158D01*
X18496010Y-133545411D01*
X18658525Y-133788632D01*
X18865368Y-133995475D01*
X19047534Y-134117195D01*
X18930645Y-134186822D01*
X18714412Y-134381731D01*
X18540359Y-134615080D01*
X18415175Y-134877901D01*
X18370524Y-135025110D01*
X18491845Y-135255000D01*
X19685000Y-135255000D01*
X19685000Y-135235000D01*
X19939000Y-135235000D01*
X19939000Y-135255000D01*
X21132155Y-135255000D01*
X21253476Y-135025110D01*
X21208825Y-134877901D01*
X21083641Y-134615080D01*
X20909588Y-134381731D01*
X20693355Y-134186822D01*
X20576466Y-134117195D01*
X20758632Y-133995475D01*
X20965475Y-133788632D01*
X21127990Y-133545411D01*
X21239932Y-133275158D01*
X21297000Y-132988260D01*
X21297000Y-132695740D01*
X21239932Y-132408842D01*
X21127990Y-132138589D01*
X20965475Y-131895368D01*
X20758632Y-131688525D01*
X20584240Y-131572000D01*
X20758632Y-131455475D01*
X20965475Y-131248632D01*
X21006656Y-131187000D01*
X25610531Y-131187000D01*
X25654000Y-131191281D01*
X25697469Y-131187000D01*
X25697477Y-131187000D01*
X25827490Y-131174195D01*
X25994313Y-131123589D01*
X26148059Y-131041411D01*
X26282817Y-130930817D01*
X26310534Y-130897044D01*
X29798010Y-127409568D01*
X29757000Y-127615740D01*
X29757000Y-127908260D01*
X29814068Y-128195158D01*
X29926010Y-128465411D01*
X30088525Y-128708632D01*
X30295368Y-128915475D01*
X30469760Y-129032000D01*
X30295368Y-129148525D01*
X30088525Y-129355368D01*
X29926010Y-129598589D01*
X29814068Y-129868842D01*
X29757000Y-130155740D01*
X29757000Y-130448260D01*
X29814068Y-130735158D01*
X29926010Y-131005411D01*
X30088525Y-131248632D01*
X30295368Y-131455475D01*
X30469760Y-131572000D01*
X30295368Y-131688525D01*
X30088525Y-131895368D01*
X29926010Y-132138589D01*
X29814068Y-132408842D01*
X29757000Y-132695740D01*
X29757000Y-132988260D01*
X29814068Y-133275158D01*
X29926010Y-133545411D01*
X30088525Y-133788632D01*
X30295368Y-133995475D01*
X30477534Y-134117195D01*
X30360645Y-134186822D01*
X30144412Y-134381731D01*
X29970359Y-134615080D01*
X29845175Y-134877901D01*
X29800524Y-135025110D01*
X29921845Y-135255000D01*
X31115000Y-135255000D01*
X31115000Y-135235000D01*
X31369000Y-135235000D01*
X31369000Y-135255000D01*
X32562155Y-135255000D01*
X32683476Y-135025110D01*
X32638825Y-134877901D01*
X32513641Y-134615080D01*
X32339588Y-134381731D01*
X32123355Y-134186822D01*
X32006466Y-134117195D01*
X32188632Y-133995475D01*
X32395475Y-133788632D01*
X32520178Y-133602000D01*
X38061680Y-133602000D01*
X38099002Y-133605676D01*
X38136324Y-133602000D01*
X38136335Y-133602000D01*
X38247988Y-133591003D01*
X38391249Y-133547546D01*
X38523278Y-133476974D01*
X38639003Y-133382001D01*
X38662806Y-133352997D01*
X41913003Y-130102801D01*
X41942001Y-130079003D01*
X42036974Y-129963278D01*
X42107546Y-129831249D01*
X42151003Y-129687988D01*
X42162000Y-129576335D01*
X42165677Y-129539002D01*
X42162000Y-129501669D01*
X42162000Y-110273322D01*
X42165676Y-110235999D01*
X42162000Y-110198676D01*
X42162000Y-110198667D01*
X42151003Y-110087014D01*
X42107546Y-109943753D01*
X42036974Y-109811724D01*
X41942001Y-109695999D01*
X41913004Y-109672202D01*
X37383001Y-105142200D01*
X37383001Y-97390000D01*
X37835928Y-97390000D01*
X37848188Y-97514482D01*
X37884498Y-97634180D01*
X37943463Y-97744494D01*
X38022815Y-97841185D01*
X38119506Y-97920537D01*
X38229820Y-97979502D01*
X38349518Y-98015812D01*
X38474000Y-98028072D01*
X39338250Y-98025000D01*
X39497000Y-97866250D01*
X39497000Y-96367000D01*
X39751000Y-96367000D01*
X39751000Y-97866250D01*
X39909750Y-98025000D01*
X40774000Y-98028072D01*
X40898482Y-98015812D01*
X41018180Y-97979502D01*
X41128494Y-97920537D01*
X41225185Y-97841185D01*
X41304537Y-97744494D01*
X41363502Y-97634180D01*
X41399812Y-97514482D01*
X41412072Y-97390000D01*
X41409000Y-96525750D01*
X41250250Y-96367000D01*
X39751000Y-96367000D01*
X39497000Y-96367000D01*
X37997750Y-96367000D01*
X37839000Y-96525750D01*
X37835928Y-97390000D01*
X37383001Y-97390000D01*
X37383001Y-95090000D01*
X37835928Y-95090000D01*
X37839000Y-95954250D01*
X37997750Y-96113000D01*
X39497000Y-96113000D01*
X39497000Y-94613750D01*
X39751000Y-94613750D01*
X39751000Y-96113000D01*
X41250250Y-96113000D01*
X41409000Y-95954250D01*
X41412072Y-95090000D01*
X41399812Y-94965518D01*
X41363502Y-94845820D01*
X41304537Y-94735506D01*
X41225185Y-94638815D01*
X41128494Y-94559463D01*
X41018180Y-94500498D01*
X40898482Y-94464188D01*
X40774000Y-94451928D01*
X39909750Y-94455000D01*
X39751000Y-94613750D01*
X39497000Y-94613750D01*
X39338250Y-94455000D01*
X38474000Y-94451928D01*
X38349518Y-94464188D01*
X38229820Y-94500498D01*
X38119506Y-94559463D01*
X38022815Y-94638815D01*
X37943463Y-94735506D01*
X37884498Y-94845820D01*
X37848188Y-94965518D01*
X37835928Y-95090000D01*
X37383001Y-95090000D01*
X37383001Y-69680323D01*
X37386677Y-69643000D01*
X37383001Y-69605677D01*
X37383001Y-69605668D01*
X37372004Y-69494015D01*
X37328547Y-69350754D01*
X37257975Y-69218725D01*
X37163002Y-69103000D01*
X37134005Y-69079203D01*
X21750897Y-53696096D01*
X21871309Y-53684236D01*
X22141808Y-53602182D01*
X22391101Y-53468932D01*
X22609608Y-53289608D01*
X22788932Y-53071101D01*
X22860000Y-52938142D01*
X22931068Y-53071101D01*
X23110393Y-53289608D01*
X23328900Y-53468932D01*
X23578193Y-53602182D01*
X23848692Y-53684236D01*
X24130000Y-53711943D01*
X24411309Y-53684236D01*
X24681808Y-53602182D01*
X24931101Y-53468932D01*
X25149608Y-53289608D01*
X25328932Y-53071101D01*
X25398122Y-52941655D01*
X25405570Y-52959227D01*
X25564327Y-53192662D01*
X25765575Y-53390639D01*
X26001579Y-53545551D01*
X26263270Y-53651444D01*
X26320961Y-53661904D01*
X26543000Y-53539915D01*
X26543000Y-52197000D01*
X26523000Y-52197000D01*
X26523000Y-51943000D01*
X26543000Y-51943000D01*
X26543000Y-51923000D01*
X26797000Y-51923000D01*
X26797000Y-51943000D01*
X26817000Y-51943000D01*
X26817000Y-52197000D01*
X26797000Y-52197000D01*
X26797000Y-53539915D01*
X27019039Y-53661904D01*
X27076730Y-53651444D01*
X27338421Y-53545551D01*
X27574425Y-53390639D01*
X27775673Y-53192662D01*
X27934430Y-52959227D01*
X27941878Y-52941655D01*
X28011068Y-53071101D01*
X28190393Y-53289608D01*
X28408900Y-53468932D01*
X28658193Y-53602182D01*
X28928692Y-53684236D01*
X29210000Y-53711943D01*
X29491309Y-53684236D01*
X29761808Y-53602182D01*
X30011101Y-53468932D01*
X30229608Y-53289608D01*
X30408932Y-53071101D01*
X30470989Y-52955000D01*
X32145422Y-52955000D01*
X38485001Y-59294580D01*
X38485000Y-63456531D01*
X38480719Y-63500000D01*
X38485000Y-63543469D01*
X38485000Y-63543476D01*
X38485001Y-63543486D01*
X38485000Y-79458531D01*
X38480719Y-79502000D01*
X38485000Y-79545469D01*
X38485000Y-79545476D01*
X38497805Y-79675489D01*
X38548411Y-79842312D01*
X38630589Y-79996058D01*
X38741183Y-80130817D01*
X38774956Y-80158534D01*
X39039432Y-80423010D01*
X39027970Y-80460796D01*
X38997319Y-80772000D01*
X39027970Y-81083204D01*
X39118745Y-81382449D01*
X39266155Y-81658235D01*
X39464537Y-81899963D01*
X39643899Y-82047163D01*
X39458685Y-82202563D01*
X39264031Y-82445077D01*
X39120429Y-82720906D01*
X39049437Y-82939020D01*
X39169406Y-83185000D01*
X40513000Y-83185000D01*
X40513000Y-83165000D01*
X40767000Y-83165000D01*
X40767000Y-83185000D01*
X40787000Y-83185000D01*
X40787000Y-83439000D01*
X40767000Y-83439000D01*
X40767000Y-83459000D01*
X40513000Y-83459000D01*
X40513000Y-83439000D01*
X39169406Y-83439000D01*
X39049437Y-83684980D01*
X39120429Y-83903094D01*
X39264031Y-84178923D01*
X39377219Y-84319941D01*
X39285506Y-84368963D01*
X39188815Y-84448315D01*
X39109463Y-84545006D01*
X39050498Y-84655320D01*
X39014188Y-84775018D01*
X39001928Y-84899500D01*
X39001928Y-86804500D01*
X39014188Y-86928982D01*
X39050498Y-87048680D01*
X39109463Y-87158994D01*
X39188815Y-87255685D01*
X39285506Y-87335037D01*
X39395820Y-87394002D01*
X39515518Y-87430312D01*
X39640000Y-87442572D01*
X41640000Y-87442572D01*
X41764482Y-87430312D01*
X41787001Y-87423481D01*
X41787001Y-88025420D01*
X40098090Y-89714332D01*
X39799807Y-89655000D01*
X39448193Y-89655000D01*
X39103335Y-89723596D01*
X38778485Y-89858153D01*
X38486129Y-90053500D01*
X38237500Y-90302129D01*
X38042153Y-90594485D01*
X37907596Y-90919335D01*
X37839000Y-91264193D01*
X37839000Y-91615807D01*
X37907596Y-91960665D01*
X38042153Y-92285515D01*
X38237500Y-92577871D01*
X38486129Y-92826500D01*
X38778485Y-93021847D01*
X39103335Y-93156404D01*
X39448193Y-93225000D01*
X39799807Y-93225000D01*
X40144665Y-93156404D01*
X40469515Y-93021847D01*
X40761871Y-92826500D01*
X41010500Y-92577871D01*
X41205847Y-92285515D01*
X41340404Y-91960665D01*
X41409000Y-91615807D01*
X41409000Y-91264193D01*
X41349668Y-90965910D01*
X43267049Y-89048530D01*
X43300817Y-89020817D01*
X43411411Y-88886059D01*
X43493589Y-88732313D01*
X43544195Y-88565490D01*
X43557000Y-88435477D01*
X43557000Y-88435469D01*
X43561281Y-88392000D01*
X43557000Y-88348531D01*
X43557000Y-72433469D01*
X43561281Y-72390000D01*
X43557000Y-72346531D01*
X43557000Y-72346523D01*
X43544195Y-72216510D01*
X43493589Y-72049687D01*
X43411411Y-71895941D01*
X43300817Y-71761183D01*
X43267050Y-71733471D01*
X43084017Y-71550439D01*
X43091000Y-71515335D01*
X43091000Y-71232665D01*
X43035853Y-70955426D01*
X42927680Y-70694273D01*
X42770637Y-70459241D01*
X42570759Y-70259363D01*
X42335727Y-70102320D01*
X42074574Y-69994147D01*
X41797335Y-69939000D01*
X41514665Y-69939000D01*
X41237426Y-69994147D01*
X40976273Y-70102320D01*
X40741241Y-70259363D01*
X40541363Y-70459241D01*
X40384320Y-70694273D01*
X40276147Y-70955426D01*
X40255000Y-71061738D01*
X40255000Y-63866578D01*
X41479561Y-62642017D01*
X41514665Y-62649000D01*
X41797335Y-62649000D01*
X42074574Y-62593853D01*
X42335727Y-62485680D01*
X42570759Y-62328637D01*
X42770637Y-62128759D01*
X42927680Y-61893727D01*
X43035853Y-61632574D01*
X43091000Y-61355335D01*
X43091000Y-61072665D01*
X43035853Y-60795426D01*
X42927680Y-60534273D01*
X42770637Y-60299241D01*
X42570759Y-60099363D01*
X42335727Y-59942320D01*
X42074574Y-59834147D01*
X41797335Y-59779000D01*
X41514665Y-59779000D01*
X41237426Y-59834147D01*
X40976273Y-59942320D01*
X40741241Y-60099363D01*
X40541363Y-60299241D01*
X40384320Y-60534273D01*
X40276147Y-60795426D01*
X40255000Y-60901738D01*
X40255000Y-58971469D01*
X40259281Y-58928000D01*
X40255000Y-58884531D01*
X40255000Y-58884523D01*
X40242195Y-58754510D01*
X40191589Y-58587687D01*
X40191589Y-58587686D01*
X40109411Y-58433941D01*
X40026532Y-58332953D01*
X40026530Y-58332951D01*
X39998817Y-58299183D01*
X39965049Y-58271470D01*
X35282054Y-53588475D01*
X39783000Y-53588475D01*
X39783000Y-54107525D01*
X39884261Y-54616601D01*
X40082893Y-55096141D01*
X40371262Y-55527715D01*
X40738285Y-55894738D01*
X41169859Y-56183107D01*
X41649399Y-56381739D01*
X42158475Y-56483000D01*
X42677525Y-56483000D01*
X43186601Y-56381739D01*
X43666141Y-56183107D01*
X44097715Y-55894738D01*
X44464738Y-55527715D01*
X44753107Y-55096141D01*
X44951739Y-54616601D01*
X45053000Y-54107525D01*
X45053000Y-53588475D01*
X44951739Y-53079399D01*
X44753107Y-52599859D01*
X44464738Y-52168285D01*
X44097715Y-51801262D01*
X43666141Y-51512893D01*
X43186601Y-51314261D01*
X42677525Y-51213000D01*
X42158475Y-51213000D01*
X41649399Y-51314261D01*
X41169859Y-51512893D01*
X40738285Y-51801262D01*
X40371262Y-52168285D01*
X40082893Y-52599859D01*
X39884261Y-53079399D01*
X39783000Y-53588475D01*
X35282054Y-53588475D01*
X33168534Y-51474956D01*
X33140817Y-51441183D01*
X33006059Y-51330589D01*
X32852313Y-51248411D01*
X32712505Y-51206000D01*
X45060001Y-51206000D01*
X45060000Y-146024882D01*
%TA.AperFunction,Conductor*%
D25*
G36*
X45060000Y-146024882D02*
G01*
X44972738Y-145894285D01*
X44605715Y-145527262D01*
X44174141Y-145238893D01*
X43694601Y-145040261D01*
X43185525Y-144939000D01*
X42666475Y-144939000D01*
X42157399Y-145040261D01*
X41677859Y-145238893D01*
X41246285Y-145527262D01*
X40879262Y-145894285D01*
X40590893Y-146325859D01*
X40392261Y-146805399D01*
X40291000Y-147314475D01*
X40291000Y-147833525D01*
X40392261Y-148342601D01*
X40590893Y-148822141D01*
X40879262Y-149253715D01*
X41246285Y-149620738D01*
X41376882Y-149708000D01*
X14503118Y-149708000D01*
X14633715Y-149620738D01*
X15000738Y-149253715D01*
X15289107Y-148822141D01*
X15487739Y-148342601D01*
X15589000Y-147833525D01*
X15589000Y-147314475D01*
X15487739Y-146805399D01*
X15289107Y-146325859D01*
X15000738Y-145894285D01*
X14633715Y-145527262D01*
X14202141Y-145238893D01*
X13722601Y-145040261D01*
X13213525Y-144939000D01*
X12694475Y-144939000D01*
X12185399Y-145040261D01*
X11705859Y-145238893D01*
X11274285Y-145527262D01*
X10907262Y-145894285D01*
X10820000Y-146024882D01*
X10820000Y-142152000D01*
X18323928Y-142152000D01*
X18323928Y-143852000D01*
X18336188Y-143976482D01*
X18372498Y-144096180D01*
X18431463Y-144206494D01*
X18510815Y-144303185D01*
X18607506Y-144382537D01*
X18717820Y-144441502D01*
X18837518Y-144477812D01*
X18962000Y-144490072D01*
X20662000Y-144490072D01*
X20786482Y-144477812D01*
X20906180Y-144441502D01*
X21016494Y-144382537D01*
X21113185Y-144303185D01*
X21192537Y-144206494D01*
X21251502Y-144096180D01*
X21287812Y-143976482D01*
X21300072Y-143852000D01*
X21300072Y-142152000D01*
X29753928Y-142152000D01*
X29753928Y-143852000D01*
X29766188Y-143976482D01*
X29802498Y-144096180D01*
X29861463Y-144206494D01*
X29940815Y-144303185D01*
X30037506Y-144382537D01*
X30147820Y-144441502D01*
X30267518Y-144477812D01*
X30392000Y-144490072D01*
X32092000Y-144490072D01*
X32216482Y-144477812D01*
X32336180Y-144441502D01*
X32446494Y-144382537D01*
X32543185Y-144303185D01*
X32622537Y-144206494D01*
X32681502Y-144096180D01*
X32717812Y-143976482D01*
X32730072Y-143852000D01*
X32730072Y-142152000D01*
X32717812Y-142027518D01*
X32681502Y-141907820D01*
X32622537Y-141797506D01*
X32543185Y-141700815D01*
X32446494Y-141621463D01*
X32336180Y-141562498D01*
X32263620Y-141540487D01*
X32395475Y-141408632D01*
X32557990Y-141165411D01*
X32669932Y-140895158D01*
X32727000Y-140608260D01*
X32727000Y-140315740D01*
X32669932Y-140028842D01*
X32557990Y-139758589D01*
X32395475Y-139515368D01*
X32188632Y-139308525D01*
X32006466Y-139186805D01*
X32123355Y-139117178D01*
X32339588Y-138922269D01*
X32513641Y-138688920D01*
X32638825Y-138426099D01*
X32683476Y-138278890D01*
X32562155Y-138049000D01*
X31369000Y-138049000D01*
X31369000Y-138069000D01*
X31115000Y-138069000D01*
X31115000Y-138049000D01*
X29921845Y-138049000D01*
X29800524Y-138278890D01*
X29845175Y-138426099D01*
X29970359Y-138688920D01*
X30144412Y-138922269D01*
X30360645Y-139117178D01*
X30477534Y-139186805D01*
X30295368Y-139308525D01*
X30088525Y-139515368D01*
X29926010Y-139758589D01*
X29814068Y-140028842D01*
X29757000Y-140315740D01*
X29757000Y-140608260D01*
X29814068Y-140895158D01*
X29926010Y-141165411D01*
X30088525Y-141408632D01*
X30220380Y-141540487D01*
X30147820Y-141562498D01*
X30037506Y-141621463D01*
X29940815Y-141700815D01*
X29861463Y-141797506D01*
X29802498Y-141907820D01*
X29766188Y-142027518D01*
X29753928Y-142152000D01*
X21300072Y-142152000D01*
X21287812Y-142027518D01*
X21251502Y-141907820D01*
X21192537Y-141797506D01*
X21113185Y-141700815D01*
X21016494Y-141621463D01*
X20906180Y-141562498D01*
X20833620Y-141540487D01*
X20965475Y-141408632D01*
X21127990Y-141165411D01*
X21239932Y-140895158D01*
X21297000Y-140608260D01*
X21297000Y-140315740D01*
X21239932Y-140028842D01*
X21127990Y-139758589D01*
X20965475Y-139515368D01*
X20758632Y-139308525D01*
X20576466Y-139186805D01*
X20693355Y-139117178D01*
X20909588Y-138922269D01*
X21083641Y-138688920D01*
X21208825Y-138426099D01*
X21253476Y-138278890D01*
X21132155Y-138049000D01*
X19939000Y-138049000D01*
X19939000Y-138069000D01*
X19685000Y-138069000D01*
X19685000Y-138049000D01*
X18491845Y-138049000D01*
X18370524Y-138278890D01*
X18415175Y-138426099D01*
X18540359Y-138688920D01*
X18714412Y-138922269D01*
X18930645Y-139117178D01*
X19047534Y-139186805D01*
X18865368Y-139308525D01*
X18658525Y-139515368D01*
X18496010Y-139758589D01*
X18384068Y-140028842D01*
X18327000Y-140315740D01*
X18327000Y-140608260D01*
X18384068Y-140895158D01*
X18496010Y-141165411D01*
X18658525Y-141408632D01*
X18790380Y-141540487D01*
X18717820Y-141562498D01*
X18607506Y-141621463D01*
X18510815Y-141700815D01*
X18431463Y-141797506D01*
X18372498Y-141907820D01*
X18336188Y-142027518D01*
X18323928Y-142152000D01*
X10820000Y-142152000D01*
X10820000Y-135738890D01*
X18370524Y-135738890D01*
X18415175Y-135886099D01*
X18540359Y-136148920D01*
X18714412Y-136382269D01*
X18930645Y-136577178D01*
X19056255Y-136652000D01*
X18930645Y-136726822D01*
X18714412Y-136921731D01*
X18540359Y-137155080D01*
X18415175Y-137417901D01*
X18370524Y-137565110D01*
X18491845Y-137795000D01*
X19685000Y-137795000D01*
X19685000Y-135509000D01*
X19939000Y-135509000D01*
X19939000Y-137795000D01*
X21132155Y-137795000D01*
X21253476Y-137565110D01*
X21208825Y-137417901D01*
X21083641Y-137155080D01*
X20909588Y-136921731D01*
X20693355Y-136726822D01*
X20567745Y-136652000D01*
X20693355Y-136577178D01*
X20909588Y-136382269D01*
X21083641Y-136148920D01*
X21208825Y-135886099D01*
X21253476Y-135738890D01*
X29800524Y-135738890D01*
X29845175Y-135886099D01*
X29970359Y-136148920D01*
X30144412Y-136382269D01*
X30360645Y-136577178D01*
X30486255Y-136652000D01*
X30360645Y-136726822D01*
X30144412Y-136921731D01*
X29970359Y-137155080D01*
X29845175Y-137417901D01*
X29800524Y-137565110D01*
X29921845Y-137795000D01*
X31115000Y-137795000D01*
X31115000Y-135509000D01*
X31369000Y-135509000D01*
X31369000Y-137795000D01*
X32562155Y-137795000D01*
X32683476Y-137565110D01*
X32638825Y-137417901D01*
X32513641Y-137155080D01*
X32339588Y-136921731D01*
X32123355Y-136726822D01*
X31997745Y-136652000D01*
X32123355Y-136577178D01*
X32339588Y-136382269D01*
X32513641Y-136148920D01*
X32638825Y-135886099D01*
X32683476Y-135738890D01*
X32562155Y-135509000D01*
X31369000Y-135509000D01*
X31115000Y-135509000D01*
X29921845Y-135509000D01*
X29800524Y-135738890D01*
X21253476Y-135738890D01*
X21132155Y-135509000D01*
X19939000Y-135509000D01*
X19685000Y-135509000D01*
X18491845Y-135509000D01*
X18370524Y-135738890D01*
X10820000Y-135738890D01*
X10820000Y-83683346D01*
X10837017Y-83700363D01*
X11186698Y-83934012D01*
X11575244Y-84094953D01*
X11987721Y-84177000D01*
X12408279Y-84177000D01*
X12820756Y-84094953D01*
X12947058Y-84042637D01*
X15651001Y-86746580D01*
X15651000Y-88360536D01*
X15398129Y-88529500D01*
X15149500Y-88778129D01*
X14954153Y-89070485D01*
X14819596Y-89395335D01*
X14751000Y-89740193D01*
X14751000Y-90091807D01*
X14819596Y-90436665D01*
X14954153Y-90761515D01*
X15149500Y-91053871D01*
X15398129Y-91302500D01*
X15690485Y-91497847D01*
X16015335Y-91632404D01*
X16360193Y-91701000D01*
X16711807Y-91701000D01*
X17056665Y-91632404D01*
X17381515Y-91497847D01*
X17528000Y-91399968D01*
X17528001Y-94427197D01*
X16761002Y-95194196D01*
X16731999Y-95217999D01*
X16679474Y-95282001D01*
X16637026Y-95333724D01*
X16566455Y-95465753D01*
X16566454Y-95465754D01*
X16522997Y-95609015D01*
X16512000Y-95720668D01*
X16512000Y-95720678D01*
X16508324Y-95758000D01*
X16512000Y-95795322D01*
X16512001Y-130264667D01*
X16508324Y-130302000D01*
X16522998Y-130450985D01*
X16566454Y-130594246D01*
X16637026Y-130726276D01*
X16694296Y-130796059D01*
X16732000Y-130842001D01*
X16760998Y-130865799D01*
X18370790Y-132475593D01*
X18327000Y-132695740D01*
X18327000Y-132988260D01*
X18384068Y-133275158D01*
X18496010Y-133545411D01*
X18658525Y-133788632D01*
X18865368Y-133995475D01*
X19047534Y-134117195D01*
X18930645Y-134186822D01*
X18714412Y-134381731D01*
X18540359Y-134615080D01*
X18415175Y-134877901D01*
X18370524Y-135025110D01*
X18491845Y-135255000D01*
X19685000Y-135255000D01*
X19685000Y-135235000D01*
X19939000Y-135235000D01*
X19939000Y-135255000D01*
X21132155Y-135255000D01*
X21253476Y-135025110D01*
X21208825Y-134877901D01*
X21083641Y-134615080D01*
X20909588Y-134381731D01*
X20693355Y-134186822D01*
X20576466Y-134117195D01*
X20758632Y-133995475D01*
X20965475Y-133788632D01*
X21127990Y-133545411D01*
X21239932Y-133275158D01*
X21297000Y-132988260D01*
X21297000Y-132695740D01*
X21239932Y-132408842D01*
X21127990Y-132138589D01*
X20965475Y-131895368D01*
X20758632Y-131688525D01*
X20584240Y-131572000D01*
X20758632Y-131455475D01*
X20965475Y-131248632D01*
X21006656Y-131187000D01*
X25610531Y-131187000D01*
X25654000Y-131191281D01*
X25697469Y-131187000D01*
X25697477Y-131187000D01*
X25827490Y-131174195D01*
X25994313Y-131123589D01*
X26148059Y-131041411D01*
X26282817Y-130930817D01*
X26310534Y-130897044D01*
X29798010Y-127409568D01*
X29757000Y-127615740D01*
X29757000Y-127908260D01*
X29814068Y-128195158D01*
X29926010Y-128465411D01*
X30088525Y-128708632D01*
X30295368Y-128915475D01*
X30469760Y-129032000D01*
X30295368Y-129148525D01*
X30088525Y-129355368D01*
X29926010Y-129598589D01*
X29814068Y-129868842D01*
X29757000Y-130155740D01*
X29757000Y-130448260D01*
X29814068Y-130735158D01*
X29926010Y-131005411D01*
X30088525Y-131248632D01*
X30295368Y-131455475D01*
X30469760Y-131572000D01*
X30295368Y-131688525D01*
X30088525Y-131895368D01*
X29926010Y-132138589D01*
X29814068Y-132408842D01*
X29757000Y-132695740D01*
X29757000Y-132988260D01*
X29814068Y-133275158D01*
X29926010Y-133545411D01*
X30088525Y-133788632D01*
X30295368Y-133995475D01*
X30477534Y-134117195D01*
X30360645Y-134186822D01*
X30144412Y-134381731D01*
X29970359Y-134615080D01*
X29845175Y-134877901D01*
X29800524Y-135025110D01*
X29921845Y-135255000D01*
X31115000Y-135255000D01*
X31115000Y-135235000D01*
X31369000Y-135235000D01*
X31369000Y-135255000D01*
X32562155Y-135255000D01*
X32683476Y-135025110D01*
X32638825Y-134877901D01*
X32513641Y-134615080D01*
X32339588Y-134381731D01*
X32123355Y-134186822D01*
X32006466Y-134117195D01*
X32188632Y-133995475D01*
X32395475Y-133788632D01*
X32520178Y-133602000D01*
X38061680Y-133602000D01*
X38099002Y-133605676D01*
X38136324Y-133602000D01*
X38136335Y-133602000D01*
X38247988Y-133591003D01*
X38391249Y-133547546D01*
X38523278Y-133476974D01*
X38639003Y-133382001D01*
X38662806Y-133352997D01*
X41913003Y-130102801D01*
X41942001Y-130079003D01*
X42036974Y-129963278D01*
X42107546Y-129831249D01*
X42151003Y-129687988D01*
X42162000Y-129576335D01*
X42165677Y-129539002D01*
X42162000Y-129501669D01*
X42162000Y-110273322D01*
X42165676Y-110235999D01*
X42162000Y-110198676D01*
X42162000Y-110198667D01*
X42151003Y-110087014D01*
X42107546Y-109943753D01*
X42036974Y-109811724D01*
X41942001Y-109695999D01*
X41913004Y-109672202D01*
X37383001Y-105142200D01*
X37383001Y-97390000D01*
X37835928Y-97390000D01*
X37848188Y-97514482D01*
X37884498Y-97634180D01*
X37943463Y-97744494D01*
X38022815Y-97841185D01*
X38119506Y-97920537D01*
X38229820Y-97979502D01*
X38349518Y-98015812D01*
X38474000Y-98028072D01*
X39338250Y-98025000D01*
X39497000Y-97866250D01*
X39497000Y-96367000D01*
X39751000Y-96367000D01*
X39751000Y-97866250D01*
X39909750Y-98025000D01*
X40774000Y-98028072D01*
X40898482Y-98015812D01*
X41018180Y-97979502D01*
X41128494Y-97920537D01*
X41225185Y-97841185D01*
X41304537Y-97744494D01*
X41363502Y-97634180D01*
X41399812Y-97514482D01*
X41412072Y-97390000D01*
X41409000Y-96525750D01*
X41250250Y-96367000D01*
X39751000Y-96367000D01*
X39497000Y-96367000D01*
X37997750Y-96367000D01*
X37839000Y-96525750D01*
X37835928Y-97390000D01*
X37383001Y-97390000D01*
X37383001Y-95090000D01*
X37835928Y-95090000D01*
X37839000Y-95954250D01*
X37997750Y-96113000D01*
X39497000Y-96113000D01*
X39497000Y-94613750D01*
X39751000Y-94613750D01*
X39751000Y-96113000D01*
X41250250Y-96113000D01*
X41409000Y-95954250D01*
X41412072Y-95090000D01*
X41399812Y-94965518D01*
X41363502Y-94845820D01*
X41304537Y-94735506D01*
X41225185Y-94638815D01*
X41128494Y-94559463D01*
X41018180Y-94500498D01*
X40898482Y-94464188D01*
X40774000Y-94451928D01*
X39909750Y-94455000D01*
X39751000Y-94613750D01*
X39497000Y-94613750D01*
X39338250Y-94455000D01*
X38474000Y-94451928D01*
X38349518Y-94464188D01*
X38229820Y-94500498D01*
X38119506Y-94559463D01*
X38022815Y-94638815D01*
X37943463Y-94735506D01*
X37884498Y-94845820D01*
X37848188Y-94965518D01*
X37835928Y-95090000D01*
X37383001Y-95090000D01*
X37383001Y-69680323D01*
X37386677Y-69643000D01*
X37383001Y-69605677D01*
X37383001Y-69605668D01*
X37372004Y-69494015D01*
X37328547Y-69350754D01*
X37257975Y-69218725D01*
X37163002Y-69103000D01*
X37134005Y-69079203D01*
X21750897Y-53696096D01*
X21871309Y-53684236D01*
X22141808Y-53602182D01*
X22391101Y-53468932D01*
X22609608Y-53289608D01*
X22788932Y-53071101D01*
X22860000Y-52938142D01*
X22931068Y-53071101D01*
X23110393Y-53289608D01*
X23328900Y-53468932D01*
X23578193Y-53602182D01*
X23848692Y-53684236D01*
X24130000Y-53711943D01*
X24411309Y-53684236D01*
X24681808Y-53602182D01*
X24931101Y-53468932D01*
X25149608Y-53289608D01*
X25328932Y-53071101D01*
X25398122Y-52941655D01*
X25405570Y-52959227D01*
X25564327Y-53192662D01*
X25765575Y-53390639D01*
X26001579Y-53545551D01*
X26263270Y-53651444D01*
X26320961Y-53661904D01*
X26543000Y-53539915D01*
X26543000Y-52197000D01*
X26523000Y-52197000D01*
X26523000Y-51943000D01*
X26543000Y-51943000D01*
X26543000Y-51923000D01*
X26797000Y-51923000D01*
X26797000Y-51943000D01*
X26817000Y-51943000D01*
X26817000Y-52197000D01*
X26797000Y-52197000D01*
X26797000Y-53539915D01*
X27019039Y-53661904D01*
X27076730Y-53651444D01*
X27338421Y-53545551D01*
X27574425Y-53390639D01*
X27775673Y-53192662D01*
X27934430Y-52959227D01*
X27941878Y-52941655D01*
X28011068Y-53071101D01*
X28190393Y-53289608D01*
X28408900Y-53468932D01*
X28658193Y-53602182D01*
X28928692Y-53684236D01*
X29210000Y-53711943D01*
X29491309Y-53684236D01*
X29761808Y-53602182D01*
X30011101Y-53468932D01*
X30229608Y-53289608D01*
X30408932Y-53071101D01*
X30470989Y-52955000D01*
X32145422Y-52955000D01*
X38485001Y-59294580D01*
X38485000Y-63456531D01*
X38480719Y-63500000D01*
X38485000Y-63543469D01*
X38485000Y-63543476D01*
X38485001Y-63543486D01*
X38485000Y-79458531D01*
X38480719Y-79502000D01*
X38485000Y-79545469D01*
X38485000Y-79545476D01*
X38497805Y-79675489D01*
X38548411Y-79842312D01*
X38630589Y-79996058D01*
X38741183Y-80130817D01*
X38774956Y-80158534D01*
X39039432Y-80423010D01*
X39027970Y-80460796D01*
X38997319Y-80772000D01*
X39027970Y-81083204D01*
X39118745Y-81382449D01*
X39266155Y-81658235D01*
X39464537Y-81899963D01*
X39643899Y-82047163D01*
X39458685Y-82202563D01*
X39264031Y-82445077D01*
X39120429Y-82720906D01*
X39049437Y-82939020D01*
X39169406Y-83185000D01*
X40513000Y-83185000D01*
X40513000Y-83165000D01*
X40767000Y-83165000D01*
X40767000Y-83185000D01*
X40787000Y-83185000D01*
X40787000Y-83439000D01*
X40767000Y-83439000D01*
X40767000Y-83459000D01*
X40513000Y-83459000D01*
X40513000Y-83439000D01*
X39169406Y-83439000D01*
X39049437Y-83684980D01*
X39120429Y-83903094D01*
X39264031Y-84178923D01*
X39377219Y-84319941D01*
X39285506Y-84368963D01*
X39188815Y-84448315D01*
X39109463Y-84545006D01*
X39050498Y-84655320D01*
X39014188Y-84775018D01*
X39001928Y-84899500D01*
X39001928Y-86804500D01*
X39014188Y-86928982D01*
X39050498Y-87048680D01*
X39109463Y-87158994D01*
X39188815Y-87255685D01*
X39285506Y-87335037D01*
X39395820Y-87394002D01*
X39515518Y-87430312D01*
X39640000Y-87442572D01*
X41640000Y-87442572D01*
X41764482Y-87430312D01*
X41787001Y-87423481D01*
X41787001Y-88025420D01*
X40098090Y-89714332D01*
X39799807Y-89655000D01*
X39448193Y-89655000D01*
X39103335Y-89723596D01*
X38778485Y-89858153D01*
X38486129Y-90053500D01*
X38237500Y-90302129D01*
X38042153Y-90594485D01*
X37907596Y-90919335D01*
X37839000Y-91264193D01*
X37839000Y-91615807D01*
X37907596Y-91960665D01*
X38042153Y-92285515D01*
X38237500Y-92577871D01*
X38486129Y-92826500D01*
X38778485Y-93021847D01*
X39103335Y-93156404D01*
X39448193Y-93225000D01*
X39799807Y-93225000D01*
X40144665Y-93156404D01*
X40469515Y-93021847D01*
X40761871Y-92826500D01*
X41010500Y-92577871D01*
X41205847Y-92285515D01*
X41340404Y-91960665D01*
X41409000Y-91615807D01*
X41409000Y-91264193D01*
X41349668Y-90965910D01*
X43267049Y-89048530D01*
X43300817Y-89020817D01*
X43411411Y-88886059D01*
X43493589Y-88732313D01*
X43544195Y-88565490D01*
X43557000Y-88435477D01*
X43557000Y-88435469D01*
X43561281Y-88392000D01*
X43557000Y-88348531D01*
X43557000Y-72433469D01*
X43561281Y-72390000D01*
X43557000Y-72346531D01*
X43557000Y-72346523D01*
X43544195Y-72216510D01*
X43493589Y-72049687D01*
X43411411Y-71895941D01*
X43300817Y-71761183D01*
X43267050Y-71733471D01*
X43084017Y-71550439D01*
X43091000Y-71515335D01*
X43091000Y-71232665D01*
X43035853Y-70955426D01*
X42927680Y-70694273D01*
X42770637Y-70459241D01*
X42570759Y-70259363D01*
X42335727Y-70102320D01*
X42074574Y-69994147D01*
X41797335Y-69939000D01*
X41514665Y-69939000D01*
X41237426Y-69994147D01*
X40976273Y-70102320D01*
X40741241Y-70259363D01*
X40541363Y-70459241D01*
X40384320Y-70694273D01*
X40276147Y-70955426D01*
X40255000Y-71061738D01*
X40255000Y-63866578D01*
X41479561Y-62642017D01*
X41514665Y-62649000D01*
X41797335Y-62649000D01*
X42074574Y-62593853D01*
X42335727Y-62485680D01*
X42570759Y-62328637D01*
X42770637Y-62128759D01*
X42927680Y-61893727D01*
X43035853Y-61632574D01*
X43091000Y-61355335D01*
X43091000Y-61072665D01*
X43035853Y-60795426D01*
X42927680Y-60534273D01*
X42770637Y-60299241D01*
X42570759Y-60099363D01*
X42335727Y-59942320D01*
X42074574Y-59834147D01*
X41797335Y-59779000D01*
X41514665Y-59779000D01*
X41237426Y-59834147D01*
X40976273Y-59942320D01*
X40741241Y-60099363D01*
X40541363Y-60299241D01*
X40384320Y-60534273D01*
X40276147Y-60795426D01*
X40255000Y-60901738D01*
X40255000Y-58971469D01*
X40259281Y-58928000D01*
X40255000Y-58884531D01*
X40255000Y-58884523D01*
X40242195Y-58754510D01*
X40191589Y-58587687D01*
X40191589Y-58587686D01*
X40109411Y-58433941D01*
X40026532Y-58332953D01*
X40026530Y-58332951D01*
X39998817Y-58299183D01*
X39965049Y-58271470D01*
X35282054Y-53588475D01*
X39783000Y-53588475D01*
X39783000Y-54107525D01*
X39884261Y-54616601D01*
X40082893Y-55096141D01*
X40371262Y-55527715D01*
X40738285Y-55894738D01*
X41169859Y-56183107D01*
X41649399Y-56381739D01*
X42158475Y-56483000D01*
X42677525Y-56483000D01*
X43186601Y-56381739D01*
X43666141Y-56183107D01*
X44097715Y-55894738D01*
X44464738Y-55527715D01*
X44753107Y-55096141D01*
X44951739Y-54616601D01*
X45053000Y-54107525D01*
X45053000Y-53588475D01*
X44951739Y-53079399D01*
X44753107Y-52599859D01*
X44464738Y-52168285D01*
X44097715Y-51801262D01*
X43666141Y-51512893D01*
X43186601Y-51314261D01*
X42677525Y-51213000D01*
X42158475Y-51213000D01*
X41649399Y-51314261D01*
X41169859Y-51512893D01*
X40738285Y-51801262D01*
X40371262Y-52168285D01*
X40082893Y-52599859D01*
X39884261Y-53079399D01*
X39783000Y-53588475D01*
X35282054Y-53588475D01*
X33168534Y-51474956D01*
X33140817Y-51441183D01*
X33006059Y-51330589D01*
X32852313Y-51248411D01*
X32712505Y-51206000D01*
X45060001Y-51206000D01*
X45060000Y-146024882D01*
G37*
%TD.AperFunction*%
D24*
X18370790Y-103265592D02*
X18327000Y-103485740D01*
X18327000Y-103778260D01*
X18384068Y-104065158D01*
X18496010Y-104335411D01*
X18658525Y-104578632D01*
X18865368Y-104785475D01*
X19047534Y-104907195D01*
X18930645Y-104976822D01*
X18714412Y-105171731D01*
X18540359Y-105405080D01*
X18415175Y-105667901D01*
X18370524Y-105815110D01*
X18491845Y-106045000D01*
X19685000Y-106045000D01*
X19685000Y-106025000D01*
X19939000Y-106025000D01*
X19939000Y-106045000D01*
X19959000Y-106045000D01*
X19959000Y-106299000D01*
X19939000Y-106299000D01*
X19939000Y-108585000D01*
X19959000Y-108585000D01*
X19959000Y-108839000D01*
X19939000Y-108839000D01*
X19939000Y-108859000D01*
X19685000Y-108859000D01*
X19685000Y-108839000D01*
X18491845Y-108839000D01*
X18370524Y-109068890D01*
X18415175Y-109216099D01*
X18540359Y-109478920D01*
X18714412Y-109712269D01*
X18930645Y-109907178D01*
X19047534Y-109976805D01*
X18865368Y-110098525D01*
X18658525Y-110305368D01*
X18496010Y-110548589D01*
X18384068Y-110818842D01*
X18327000Y-111105740D01*
X18327000Y-111398260D01*
X18384068Y-111685158D01*
X18496010Y-111955411D01*
X18658525Y-112198632D01*
X18790380Y-112330487D01*
X18717820Y-112352498D01*
X18607506Y-112411463D01*
X18510815Y-112490815D01*
X18431463Y-112587506D01*
X18372498Y-112697820D01*
X18336188Y-112817518D01*
X18323928Y-112942000D01*
X18323928Y-114642000D01*
X18336188Y-114766482D01*
X18372498Y-114886180D01*
X18431463Y-114996494D01*
X18510815Y-115093185D01*
X18607506Y-115172537D01*
X18717820Y-115231502D01*
X18837518Y-115267812D01*
X18962000Y-115280072D01*
X20662000Y-115280072D01*
X20705001Y-115275837D01*
X20705001Y-117050521D01*
X20700719Y-117094000D01*
X20717805Y-117267490D01*
X20768412Y-117434313D01*
X20850590Y-117588059D01*
X20933468Y-117689046D01*
X20933471Y-117689049D01*
X20961184Y-117722817D01*
X20994951Y-117750529D01*
X23219470Y-119975049D01*
X23247183Y-120008817D01*
X23280951Y-120036530D01*
X23280953Y-120036532D01*
X23338075Y-120083411D01*
X23381941Y-120119411D01*
X23535687Y-120201589D01*
X23702510Y-120252195D01*
X23832523Y-120265000D01*
X23832533Y-120265000D01*
X23875999Y-120269281D01*
X23919465Y-120265000D01*
X37921344Y-120265000D01*
X37962525Y-120326632D01*
X38169368Y-120533475D01*
X38343760Y-120650000D01*
X38169368Y-120766525D01*
X37962525Y-120973368D01*
X37800010Y-121216589D01*
X37688068Y-121486842D01*
X37631000Y-121773740D01*
X37631000Y-122066260D01*
X37645461Y-122138960D01*
X35447422Y-124337000D01*
X29787502Y-124337000D01*
X29744036Y-124332719D01*
X29700570Y-124337000D01*
X29700560Y-124337000D01*
X29570547Y-124349805D01*
X29403724Y-124400411D01*
X29249978Y-124482589D01*
X29115220Y-124593183D01*
X29087505Y-124626954D01*
X28986974Y-124727485D01*
X28969941Y-124736589D01*
X28969939Y-124736590D01*
X28969940Y-124736590D01*
X28868953Y-124819468D01*
X28868951Y-124819470D01*
X28835183Y-124847183D01*
X28807470Y-124880951D01*
X26811422Y-126877000D01*
X21006656Y-126877000D01*
X20965475Y-126815368D01*
X20758632Y-126608525D01*
X20515411Y-126446010D01*
X20245158Y-126334068D01*
X19958260Y-126277000D01*
X19665740Y-126277000D01*
X19378842Y-126334068D01*
X19108589Y-126446010D01*
X18865368Y-126608525D01*
X18658525Y-126815368D01*
X18496010Y-127058589D01*
X18384068Y-127328842D01*
X18327000Y-127615740D01*
X18327000Y-127908260D01*
X18384068Y-128195158D01*
X18496010Y-128465411D01*
X18658525Y-128708632D01*
X18865368Y-128915475D01*
X19039760Y-129032000D01*
X18865368Y-129148525D01*
X18658525Y-129355368D01*
X18496010Y-129598589D01*
X18384068Y-129868842D01*
X18327000Y-130155740D01*
X18327000Y-130282199D01*
X18032000Y-129987199D01*
X18032000Y-106528890D01*
X18370524Y-106528890D01*
X18415175Y-106676099D01*
X18540359Y-106938920D01*
X18714412Y-107172269D01*
X18930645Y-107367178D01*
X19056255Y-107442000D01*
X18930645Y-107516822D01*
X18714412Y-107711731D01*
X18540359Y-107945080D01*
X18415175Y-108207901D01*
X18370524Y-108355110D01*
X18491845Y-108585000D01*
X19685000Y-108585000D01*
X19685000Y-106299000D01*
X18491845Y-106299000D01*
X18370524Y-106528890D01*
X18032000Y-106528890D01*
X18032000Y-102926801D01*
X18370790Y-103265592D01*
%TA.AperFunction,Conductor*%
D25*
G36*
X18370790Y-103265592D02*
G01*
X18327000Y-103485740D01*
X18327000Y-103778260D01*
X18384068Y-104065158D01*
X18496010Y-104335411D01*
X18658525Y-104578632D01*
X18865368Y-104785475D01*
X19047534Y-104907195D01*
X18930645Y-104976822D01*
X18714412Y-105171731D01*
X18540359Y-105405080D01*
X18415175Y-105667901D01*
X18370524Y-105815110D01*
X18491845Y-106045000D01*
X19685000Y-106045000D01*
X19685000Y-106025000D01*
X19939000Y-106025000D01*
X19939000Y-106045000D01*
X19959000Y-106045000D01*
X19959000Y-106299000D01*
X19939000Y-106299000D01*
X19939000Y-108585000D01*
X19959000Y-108585000D01*
X19959000Y-108839000D01*
X19939000Y-108839000D01*
X19939000Y-108859000D01*
X19685000Y-108859000D01*
X19685000Y-108839000D01*
X18491845Y-108839000D01*
X18370524Y-109068890D01*
X18415175Y-109216099D01*
X18540359Y-109478920D01*
X18714412Y-109712269D01*
X18930645Y-109907178D01*
X19047534Y-109976805D01*
X18865368Y-110098525D01*
X18658525Y-110305368D01*
X18496010Y-110548589D01*
X18384068Y-110818842D01*
X18327000Y-111105740D01*
X18327000Y-111398260D01*
X18384068Y-111685158D01*
X18496010Y-111955411D01*
X18658525Y-112198632D01*
X18790380Y-112330487D01*
X18717820Y-112352498D01*
X18607506Y-112411463D01*
X18510815Y-112490815D01*
X18431463Y-112587506D01*
X18372498Y-112697820D01*
X18336188Y-112817518D01*
X18323928Y-112942000D01*
X18323928Y-114642000D01*
X18336188Y-114766482D01*
X18372498Y-114886180D01*
X18431463Y-114996494D01*
X18510815Y-115093185D01*
X18607506Y-115172537D01*
X18717820Y-115231502D01*
X18837518Y-115267812D01*
X18962000Y-115280072D01*
X20662000Y-115280072D01*
X20705001Y-115275837D01*
X20705001Y-117050521D01*
X20700719Y-117094000D01*
X20717805Y-117267490D01*
X20768412Y-117434313D01*
X20850590Y-117588059D01*
X20933468Y-117689046D01*
X20933471Y-117689049D01*
X20961184Y-117722817D01*
X20994951Y-117750529D01*
X23219470Y-119975049D01*
X23247183Y-120008817D01*
X23280951Y-120036530D01*
X23280953Y-120036532D01*
X23338075Y-120083411D01*
X23381941Y-120119411D01*
X23535687Y-120201589D01*
X23702510Y-120252195D01*
X23832523Y-120265000D01*
X23832533Y-120265000D01*
X23875999Y-120269281D01*
X23919465Y-120265000D01*
X37921344Y-120265000D01*
X37962525Y-120326632D01*
X38169368Y-120533475D01*
X38343760Y-120650000D01*
X38169368Y-120766525D01*
X37962525Y-120973368D01*
X37800010Y-121216589D01*
X37688068Y-121486842D01*
X37631000Y-121773740D01*
X37631000Y-122066260D01*
X37645461Y-122138960D01*
X35447422Y-124337000D01*
X29787502Y-124337000D01*
X29744036Y-124332719D01*
X29700570Y-124337000D01*
X29700560Y-124337000D01*
X29570547Y-124349805D01*
X29403724Y-124400411D01*
X29249978Y-124482589D01*
X29115220Y-124593183D01*
X29087505Y-124626954D01*
X28986974Y-124727485D01*
X28969941Y-124736589D01*
X28969939Y-124736590D01*
X28969940Y-124736590D01*
X28868953Y-124819468D01*
X28868951Y-124819470D01*
X28835183Y-124847183D01*
X28807470Y-124880951D01*
X26811422Y-126877000D01*
X21006656Y-126877000D01*
X20965475Y-126815368D01*
X20758632Y-126608525D01*
X20515411Y-126446010D01*
X20245158Y-126334068D01*
X19958260Y-126277000D01*
X19665740Y-126277000D01*
X19378842Y-126334068D01*
X19108589Y-126446010D01*
X18865368Y-126608525D01*
X18658525Y-126815368D01*
X18496010Y-127058589D01*
X18384068Y-127328842D01*
X18327000Y-127615740D01*
X18327000Y-127908260D01*
X18384068Y-128195158D01*
X18496010Y-128465411D01*
X18658525Y-128708632D01*
X18865368Y-128915475D01*
X19039760Y-129032000D01*
X18865368Y-129148525D01*
X18658525Y-129355368D01*
X18496010Y-129598589D01*
X18384068Y-129868842D01*
X18327000Y-130155740D01*
X18327000Y-130282199D01*
X18032000Y-129987199D01*
X18032000Y-106528890D01*
X18370524Y-106528890D01*
X18415175Y-106676099D01*
X18540359Y-106938920D01*
X18714412Y-107172269D01*
X18930645Y-107367178D01*
X19056255Y-107442000D01*
X18930645Y-107516822D01*
X18714412Y-107711731D01*
X18540359Y-107945080D01*
X18415175Y-108207901D01*
X18370524Y-108355110D01*
X18491845Y-108585000D01*
X19685000Y-108585000D01*
X19685000Y-106299000D01*
X18491845Y-106299000D01*
X18370524Y-106528890D01*
X18032000Y-106528890D01*
X18032000Y-102926801D01*
X18370790Y-103265592D01*
G37*
%TD.AperFunction*%
D24*
X33437017Y-83700363D02*
X33786698Y-83934012D01*
X34175244Y-84094953D01*
X34587721Y-84177000D01*
X35008279Y-84177000D01*
X35420756Y-84094953D01*
X35809302Y-83934012D01*
X35863001Y-83898131D01*
X35863002Y-105419668D01*
X35859325Y-105457001D01*
X35873999Y-105605986D01*
X35917455Y-105749247D01*
X35988027Y-105881277D01*
X36059202Y-105968003D01*
X36083001Y-105997002D01*
X36111999Y-106020800D01*
X40642000Y-110550802D01*
X40642001Y-129224199D01*
X40604072Y-129262128D01*
X40604072Y-128690000D01*
X40591812Y-128565518D01*
X40555502Y-128445820D01*
X40496537Y-128335506D01*
X40417185Y-128238815D01*
X40320494Y-128159463D01*
X40210180Y-128100498D01*
X40137620Y-128078487D01*
X40269475Y-127946632D01*
X40431990Y-127703411D01*
X40543932Y-127433158D01*
X40601000Y-127146260D01*
X40601000Y-126853740D01*
X40543932Y-126566842D01*
X40431990Y-126296589D01*
X40269475Y-126053368D01*
X40062632Y-125846525D01*
X39888240Y-125730000D01*
X40062632Y-125613475D01*
X40269475Y-125406632D01*
X40431990Y-125163411D01*
X40543932Y-124893158D01*
X40601000Y-124606260D01*
X40601000Y-124313740D01*
X40543932Y-124026842D01*
X40431990Y-123756589D01*
X40269475Y-123513368D01*
X40062632Y-123306525D01*
X39888240Y-123190000D01*
X40062632Y-123073475D01*
X40269475Y-122866632D01*
X40431990Y-122623411D01*
X40543932Y-122353158D01*
X40601000Y-122066260D01*
X40601000Y-121773740D01*
X40543932Y-121486842D01*
X40431990Y-121216589D01*
X40269475Y-120973368D01*
X40062632Y-120766525D01*
X39888240Y-120650000D01*
X40062632Y-120533475D01*
X40269475Y-120326632D01*
X40431990Y-120083411D01*
X40543932Y-119813158D01*
X40601000Y-119526260D01*
X40601000Y-119233740D01*
X40543932Y-118946842D01*
X40431990Y-118676589D01*
X40269475Y-118433368D01*
X40062632Y-118226525D01*
X39888240Y-118110000D01*
X40062632Y-117993475D01*
X40269475Y-117786632D01*
X40431990Y-117543411D01*
X40543932Y-117273158D01*
X40601000Y-116986260D01*
X40601000Y-116693740D01*
X40543932Y-116406842D01*
X40431990Y-116136589D01*
X40269475Y-115893368D01*
X40062632Y-115686525D01*
X39888240Y-115570000D01*
X40062632Y-115453475D01*
X40269475Y-115246632D01*
X40431990Y-115003411D01*
X40543932Y-114733158D01*
X40601000Y-114446260D01*
X40601000Y-114153740D01*
X40543932Y-113866842D01*
X40431990Y-113596589D01*
X40269475Y-113353368D01*
X40062632Y-113146525D01*
X39888240Y-113030000D01*
X40062632Y-112913475D01*
X40269475Y-112706632D01*
X40431990Y-112463411D01*
X40543932Y-112193158D01*
X40601000Y-111906260D01*
X40601000Y-111613740D01*
X40543932Y-111326842D01*
X40431990Y-111056589D01*
X40269475Y-110813368D01*
X40062632Y-110606525D01*
X39819411Y-110444010D01*
X39549158Y-110332068D01*
X39262260Y-110275000D01*
X38969740Y-110275000D01*
X38682842Y-110332068D01*
X38412589Y-110444010D01*
X38169368Y-110606525D01*
X37962525Y-110813368D01*
X37921344Y-110875000D01*
X35418579Y-110875000D01*
X34667000Y-110123422D01*
X34667000Y-101135465D01*
X34671281Y-101091999D01*
X34667000Y-101048533D01*
X34667000Y-101048523D01*
X34654195Y-100918510D01*
X34603589Y-100751687D01*
X34521411Y-100597941D01*
X34410817Y-100463183D01*
X34377050Y-100435471D01*
X32712539Y-98770961D01*
X32727000Y-98698260D01*
X32727000Y-98405740D01*
X32669932Y-98118842D01*
X32557990Y-97848589D01*
X32395475Y-97605368D01*
X32188632Y-97398525D01*
X31945411Y-97236010D01*
X31675158Y-97124068D01*
X31388260Y-97067000D01*
X31095740Y-97067000D01*
X30808842Y-97124068D01*
X30538589Y-97236010D01*
X30295368Y-97398525D01*
X30088525Y-97605368D01*
X29926010Y-97848589D01*
X29814068Y-98118842D01*
X29757000Y-98405740D01*
X29757000Y-98698260D01*
X29814068Y-98985158D01*
X29926010Y-99255411D01*
X30088525Y-99498632D01*
X30295368Y-99705475D01*
X30469760Y-99822000D01*
X30295368Y-99938525D01*
X30088525Y-100145368D01*
X29926010Y-100388589D01*
X29814068Y-100658842D01*
X29757000Y-100945740D01*
X29757000Y-101072198D01*
X24128000Y-95443199D01*
X24128000Y-90806184D01*
X24293500Y-91053871D01*
X24542129Y-91302500D01*
X24834485Y-91497847D01*
X25159335Y-91632404D01*
X25504193Y-91701000D01*
X25855807Y-91701000D01*
X26200665Y-91632404D01*
X26525515Y-91497847D01*
X26817871Y-91302500D01*
X27066500Y-91053871D01*
X27261847Y-90761515D01*
X27396404Y-90436665D01*
X27465000Y-90091807D01*
X27465000Y-89740193D01*
X27405668Y-89441910D01*
X27831579Y-89015999D01*
X28691928Y-89015999D01*
X28691928Y-90816001D01*
X28708992Y-90989255D01*
X28759528Y-91155851D01*
X28841595Y-91309387D01*
X28952038Y-91443962D01*
X29086613Y-91554405D01*
X29240149Y-91636472D01*
X29406745Y-91687008D01*
X29579999Y-91704072D01*
X31380001Y-91704072D01*
X31553255Y-91687008D01*
X31719851Y-91636472D01*
X31873387Y-91554405D01*
X32007962Y-91443962D01*
X32118405Y-91309387D01*
X32200472Y-91155851D01*
X32251008Y-90989255D01*
X32268072Y-90816001D01*
X32268072Y-89015999D01*
X32251008Y-88842745D01*
X32200472Y-88676149D01*
X32118405Y-88522613D01*
X32007962Y-88388038D01*
X31873387Y-88277595D01*
X31719851Y-88195528D01*
X31553255Y-88144992D01*
X31380001Y-88127928D01*
X29579999Y-88127928D01*
X29406745Y-88144992D01*
X29240149Y-88195528D01*
X29086613Y-88277595D01*
X28952038Y-88388038D01*
X28841595Y-88522613D01*
X28759528Y-88676149D01*
X28708992Y-88842745D01*
X28691928Y-89015999D01*
X27831579Y-89015999D01*
X33292116Y-83555462D01*
X33437017Y-83700363D01*
%TA.AperFunction,Conductor*%
D25*
G36*
X33437017Y-83700363D02*
G01*
X33786698Y-83934012D01*
X34175244Y-84094953D01*
X34587721Y-84177000D01*
X35008279Y-84177000D01*
X35420756Y-84094953D01*
X35809302Y-83934012D01*
X35863001Y-83898131D01*
X35863002Y-105419668D01*
X35859325Y-105457001D01*
X35873999Y-105605986D01*
X35917455Y-105749247D01*
X35988027Y-105881277D01*
X36059202Y-105968003D01*
X36083001Y-105997002D01*
X36111999Y-106020800D01*
X40642000Y-110550802D01*
X40642001Y-129224199D01*
X40604072Y-129262128D01*
X40604072Y-128690000D01*
X40591812Y-128565518D01*
X40555502Y-128445820D01*
X40496537Y-128335506D01*
X40417185Y-128238815D01*
X40320494Y-128159463D01*
X40210180Y-128100498D01*
X40137620Y-128078487D01*
X40269475Y-127946632D01*
X40431990Y-127703411D01*
X40543932Y-127433158D01*
X40601000Y-127146260D01*
X40601000Y-126853740D01*
X40543932Y-126566842D01*
X40431990Y-126296589D01*
X40269475Y-126053368D01*
X40062632Y-125846525D01*
X39888240Y-125730000D01*
X40062632Y-125613475D01*
X40269475Y-125406632D01*
X40431990Y-125163411D01*
X40543932Y-124893158D01*
X40601000Y-124606260D01*
X40601000Y-124313740D01*
X40543932Y-124026842D01*
X40431990Y-123756589D01*
X40269475Y-123513368D01*
X40062632Y-123306525D01*
X39888240Y-123190000D01*
X40062632Y-123073475D01*
X40269475Y-122866632D01*
X40431990Y-122623411D01*
X40543932Y-122353158D01*
X40601000Y-122066260D01*
X40601000Y-121773740D01*
X40543932Y-121486842D01*
X40431990Y-121216589D01*
X40269475Y-120973368D01*
X40062632Y-120766525D01*
X39888240Y-120650000D01*
X40062632Y-120533475D01*
X40269475Y-120326632D01*
X40431990Y-120083411D01*
X40543932Y-119813158D01*
X40601000Y-119526260D01*
X40601000Y-119233740D01*
X40543932Y-118946842D01*
X40431990Y-118676589D01*
X40269475Y-118433368D01*
X40062632Y-118226525D01*
X39888240Y-118110000D01*
X40062632Y-117993475D01*
X40269475Y-117786632D01*
X40431990Y-117543411D01*
X40543932Y-117273158D01*
X40601000Y-116986260D01*
X40601000Y-116693740D01*
X40543932Y-116406842D01*
X40431990Y-116136589D01*
X40269475Y-115893368D01*
X40062632Y-115686525D01*
X39888240Y-115570000D01*
X40062632Y-115453475D01*
X40269475Y-115246632D01*
X40431990Y-115003411D01*
X40543932Y-114733158D01*
X40601000Y-114446260D01*
X40601000Y-114153740D01*
X40543932Y-113866842D01*
X40431990Y-113596589D01*
X40269475Y-113353368D01*
X40062632Y-113146525D01*
X39888240Y-113030000D01*
X40062632Y-112913475D01*
X40269475Y-112706632D01*
X40431990Y-112463411D01*
X40543932Y-112193158D01*
X40601000Y-111906260D01*
X40601000Y-111613740D01*
X40543932Y-111326842D01*
X40431990Y-111056589D01*
X40269475Y-110813368D01*
X40062632Y-110606525D01*
X39819411Y-110444010D01*
X39549158Y-110332068D01*
X39262260Y-110275000D01*
X38969740Y-110275000D01*
X38682842Y-110332068D01*
X38412589Y-110444010D01*
X38169368Y-110606525D01*
X37962525Y-110813368D01*
X37921344Y-110875000D01*
X35418579Y-110875000D01*
X34667000Y-110123422D01*
X34667000Y-101135465D01*
X34671281Y-101091999D01*
X34667000Y-101048533D01*
X34667000Y-101048523D01*
X34654195Y-100918510D01*
X34603589Y-100751687D01*
X34521411Y-100597941D01*
X34410817Y-100463183D01*
X34377050Y-100435471D01*
X32712539Y-98770961D01*
X32727000Y-98698260D01*
X32727000Y-98405740D01*
X32669932Y-98118842D01*
X32557990Y-97848589D01*
X32395475Y-97605368D01*
X32188632Y-97398525D01*
X31945411Y-97236010D01*
X31675158Y-97124068D01*
X31388260Y-97067000D01*
X31095740Y-97067000D01*
X30808842Y-97124068D01*
X30538589Y-97236010D01*
X30295368Y-97398525D01*
X30088525Y-97605368D01*
X29926010Y-97848589D01*
X29814068Y-98118842D01*
X29757000Y-98405740D01*
X29757000Y-98698260D01*
X29814068Y-98985158D01*
X29926010Y-99255411D01*
X30088525Y-99498632D01*
X30295368Y-99705475D01*
X30469760Y-99822000D01*
X30295368Y-99938525D01*
X30088525Y-100145368D01*
X29926010Y-100388589D01*
X29814068Y-100658842D01*
X29757000Y-100945740D01*
X29757000Y-101072198D01*
X24128000Y-95443199D01*
X24128000Y-90806184D01*
X24293500Y-91053871D01*
X24542129Y-91302500D01*
X24834485Y-91497847D01*
X25159335Y-91632404D01*
X25504193Y-91701000D01*
X25855807Y-91701000D01*
X26200665Y-91632404D01*
X26525515Y-91497847D01*
X26817871Y-91302500D01*
X27066500Y-91053871D01*
X27261847Y-90761515D01*
X27396404Y-90436665D01*
X27465000Y-90091807D01*
X27465000Y-89740193D01*
X27405668Y-89441910D01*
X27831579Y-89015999D01*
X28691928Y-89015999D01*
X28691928Y-90816001D01*
X28708992Y-90989255D01*
X28759528Y-91155851D01*
X28841595Y-91309387D01*
X28952038Y-91443962D01*
X29086613Y-91554405D01*
X29240149Y-91636472D01*
X29406745Y-91687008D01*
X29579999Y-91704072D01*
X31380001Y-91704072D01*
X31553255Y-91687008D01*
X31719851Y-91636472D01*
X31873387Y-91554405D01*
X32007962Y-91443962D01*
X32118405Y-91309387D01*
X32200472Y-91155851D01*
X32251008Y-90989255D01*
X32268072Y-90816001D01*
X32268072Y-89015999D01*
X32251008Y-88842745D01*
X32200472Y-88676149D01*
X32118405Y-88522613D01*
X32007962Y-88388038D01*
X31873387Y-88277595D01*
X31719851Y-88195528D01*
X31553255Y-88144992D01*
X31380001Y-88127928D01*
X29579999Y-88127928D01*
X29406745Y-88144992D01*
X29240149Y-88195528D01*
X29086613Y-88277595D01*
X28952038Y-88388038D01*
X28841595Y-88522613D01*
X28759528Y-88676149D01*
X28708992Y-88842745D01*
X28691928Y-89015999D01*
X27831579Y-89015999D01*
X33292116Y-83555462D01*
X33437017Y-83700363D01*
G37*
%TD.AperFunction*%
D24*
X20391068Y-75931101D02*
X20570393Y-76149608D01*
X20788900Y-76328932D01*
X20830000Y-76350900D01*
X20830001Y-85814668D01*
X20826324Y-85852000D01*
X20840998Y-86000985D01*
X20884454Y-86144246D01*
X20955026Y-86276276D01*
X21004470Y-86336523D01*
X21050000Y-86392001D01*
X21078998Y-86415799D01*
X22608000Y-87944802D01*
X22608000Y-88139944D01*
X22486000Y-88127928D01*
X21621750Y-88131000D01*
X21463000Y-88289750D01*
X21463000Y-89789000D01*
X21483000Y-89789000D01*
X21483000Y-90043000D01*
X21463000Y-90043000D01*
X21463000Y-91542250D01*
X21621750Y-91701000D01*
X22486000Y-91704072D01*
X22608000Y-91692056D01*
X22608001Y-95720667D01*
X22604324Y-95758000D01*
X22618998Y-95906985D01*
X22662454Y-96050246D01*
X22733026Y-96182276D01*
X22804201Y-96269002D01*
X22828000Y-96298001D01*
X22856998Y-96321799D01*
X29800790Y-103265592D01*
X29757000Y-103485740D01*
X29757000Y-103778260D01*
X29814068Y-104065158D01*
X29926010Y-104335411D01*
X30088525Y-104578632D01*
X30295368Y-104785475D01*
X30477534Y-104907195D01*
X30360645Y-104976822D01*
X30144412Y-105171731D01*
X29970359Y-105405080D01*
X29845175Y-105667901D01*
X29800524Y-105815110D01*
X29921845Y-106045000D01*
X31115000Y-106045000D01*
X31115000Y-106025000D01*
X31369000Y-106025000D01*
X31369000Y-106045000D01*
X31389000Y-106045000D01*
X31389000Y-106299000D01*
X31369000Y-106299000D01*
X31369000Y-108585000D01*
X31389000Y-108585000D01*
X31389000Y-108839000D01*
X31369000Y-108839000D01*
X31369000Y-108859000D01*
X31115000Y-108859000D01*
X31115000Y-108839000D01*
X29921845Y-108839000D01*
X29800524Y-109068890D01*
X29845175Y-109216099D01*
X29970359Y-109478920D01*
X30144412Y-109712269D01*
X30360645Y-109907178D01*
X30477534Y-109976805D01*
X30295368Y-110098525D01*
X30088525Y-110305368D01*
X29926010Y-110548589D01*
X29814068Y-110818842D01*
X29757000Y-111105740D01*
X29757000Y-111398260D01*
X29814068Y-111685158D01*
X29926010Y-111955411D01*
X30088525Y-112198632D01*
X30220380Y-112330487D01*
X30147820Y-112352498D01*
X30037506Y-112411463D01*
X29940815Y-112490815D01*
X29861463Y-112587506D01*
X29802498Y-112697820D01*
X29766188Y-112817518D01*
X29753928Y-112942000D01*
X29753928Y-114642000D01*
X29766188Y-114766482D01*
X29802498Y-114886180D01*
X29861463Y-114996494D01*
X29940815Y-115093185D01*
X30037506Y-115172537D01*
X30147820Y-115231502D01*
X30267518Y-115267812D01*
X30392000Y-115280072D01*
X32092000Y-115280072D01*
X32216482Y-115267812D01*
X32336180Y-115231502D01*
X32446494Y-115172537D01*
X32543185Y-115093185D01*
X32622537Y-114996494D01*
X32681502Y-114886180D01*
X32717812Y-114766482D01*
X32730072Y-114642000D01*
X32730072Y-112942000D01*
X32717812Y-112817518D01*
X32681502Y-112697820D01*
X32622537Y-112587506D01*
X32543185Y-112490815D01*
X32446494Y-112411463D01*
X32336180Y-112352498D01*
X32263620Y-112330487D01*
X32395475Y-112198632D01*
X32421494Y-112159692D01*
X32424951Y-112162529D01*
X35157470Y-114895049D01*
X35185183Y-114928817D01*
X35218951Y-114956530D01*
X35218953Y-114956532D01*
X35319941Y-115039411D01*
X35473686Y-115121589D01*
X35640510Y-115172195D01*
X35770523Y-115185000D01*
X35770531Y-115185000D01*
X35814000Y-115189281D01*
X35857469Y-115185000D01*
X37921344Y-115185000D01*
X37962525Y-115246632D01*
X38169368Y-115453475D01*
X38343760Y-115570000D01*
X38169368Y-115686525D01*
X37962525Y-115893368D01*
X37800010Y-116136589D01*
X37688068Y-116406842D01*
X37631000Y-116693740D01*
X37631000Y-116986260D01*
X37688068Y-117273158D01*
X37773330Y-117479000D01*
X24496579Y-117479000D01*
X23237000Y-116219422D01*
X23237000Y-106528890D01*
X29800524Y-106528890D01*
X29845175Y-106676099D01*
X29970359Y-106938920D01*
X30144412Y-107172269D01*
X30360645Y-107367178D01*
X30486255Y-107442000D01*
X30360645Y-107516822D01*
X30144412Y-107711731D01*
X29970359Y-107945080D01*
X29845175Y-108207901D01*
X29800524Y-108355110D01*
X29921845Y-108585000D01*
X31115000Y-108585000D01*
X31115000Y-106299000D01*
X29921845Y-106299000D01*
X29800524Y-106528890D01*
X23237000Y-106528890D01*
X23237000Y-101135465D01*
X23241281Y-101091999D01*
X23237000Y-101048533D01*
X23237000Y-101048523D01*
X23224195Y-100918510D01*
X23173589Y-100751687D01*
X23091411Y-100597941D01*
X22980817Y-100463183D01*
X22947050Y-100435471D01*
X21282539Y-98770961D01*
X21297000Y-98698260D01*
X21297000Y-98405740D01*
X21239932Y-98118842D01*
X21127990Y-97848589D01*
X20965475Y-97605368D01*
X20758632Y-97398525D01*
X20515411Y-97236010D01*
X20245158Y-97124068D01*
X19958260Y-97067000D01*
X19665740Y-97067000D01*
X19378842Y-97124068D01*
X19108589Y-97236010D01*
X18865368Y-97398525D01*
X18794000Y-97469893D01*
X18794000Y-96326801D01*
X19561003Y-95559799D01*
X19590001Y-95536001D01*
X19642526Y-95471999D01*
X19684974Y-95420277D01*
X19755546Y-95288247D01*
X19766237Y-95253003D01*
X19799003Y-95144986D01*
X19810000Y-95033333D01*
X19810000Y-95033323D01*
X19813676Y-94996000D01*
X19810000Y-94958678D01*
X19810000Y-91578888D01*
X19831506Y-91596537D01*
X19941820Y-91655502D01*
X20061518Y-91691812D01*
X20186000Y-91704072D01*
X21050250Y-91701000D01*
X21209000Y-91542250D01*
X21209000Y-90043000D01*
X21189000Y-90043000D01*
X21189000Y-89789000D01*
X21209000Y-89789000D01*
X21209000Y-88289750D01*
X21050250Y-88131000D01*
X20186000Y-88127928D01*
X20061518Y-88140188D01*
X19941820Y-88176498D01*
X19831506Y-88235463D01*
X19810000Y-88253112D01*
X19810000Y-76350901D01*
X19851101Y-76328932D01*
X20069608Y-76149608D01*
X20248932Y-75931101D01*
X20320000Y-75798142D01*
X20391068Y-75931101D01*
%TA.AperFunction,Conductor*%
D25*
G36*
X20391068Y-75931101D02*
G01*
X20570393Y-76149608D01*
X20788900Y-76328932D01*
X20830000Y-76350900D01*
X20830001Y-85814668D01*
X20826324Y-85852000D01*
X20840998Y-86000985D01*
X20884454Y-86144246D01*
X20955026Y-86276276D01*
X21004470Y-86336523D01*
X21050000Y-86392001D01*
X21078998Y-86415799D01*
X22608000Y-87944802D01*
X22608000Y-88139944D01*
X22486000Y-88127928D01*
X21621750Y-88131000D01*
X21463000Y-88289750D01*
X21463000Y-89789000D01*
X21483000Y-89789000D01*
X21483000Y-90043000D01*
X21463000Y-90043000D01*
X21463000Y-91542250D01*
X21621750Y-91701000D01*
X22486000Y-91704072D01*
X22608000Y-91692056D01*
X22608001Y-95720667D01*
X22604324Y-95758000D01*
X22618998Y-95906985D01*
X22662454Y-96050246D01*
X22733026Y-96182276D01*
X22804201Y-96269002D01*
X22828000Y-96298001D01*
X22856998Y-96321799D01*
X29800790Y-103265592D01*
X29757000Y-103485740D01*
X29757000Y-103778260D01*
X29814068Y-104065158D01*
X29926010Y-104335411D01*
X30088525Y-104578632D01*
X30295368Y-104785475D01*
X30477534Y-104907195D01*
X30360645Y-104976822D01*
X30144412Y-105171731D01*
X29970359Y-105405080D01*
X29845175Y-105667901D01*
X29800524Y-105815110D01*
X29921845Y-106045000D01*
X31115000Y-106045000D01*
X31115000Y-106025000D01*
X31369000Y-106025000D01*
X31369000Y-106045000D01*
X31389000Y-106045000D01*
X31389000Y-106299000D01*
X31369000Y-106299000D01*
X31369000Y-108585000D01*
X31389000Y-108585000D01*
X31389000Y-108839000D01*
X31369000Y-108839000D01*
X31369000Y-108859000D01*
X31115000Y-108859000D01*
X31115000Y-108839000D01*
X29921845Y-108839000D01*
X29800524Y-109068890D01*
X29845175Y-109216099D01*
X29970359Y-109478920D01*
X30144412Y-109712269D01*
X30360645Y-109907178D01*
X30477534Y-109976805D01*
X30295368Y-110098525D01*
X30088525Y-110305368D01*
X29926010Y-110548589D01*
X29814068Y-110818842D01*
X29757000Y-111105740D01*
X29757000Y-111398260D01*
X29814068Y-111685158D01*
X29926010Y-111955411D01*
X30088525Y-112198632D01*
X30220380Y-112330487D01*
X30147820Y-112352498D01*
X30037506Y-112411463D01*
X29940815Y-112490815D01*
X29861463Y-112587506D01*
X29802498Y-112697820D01*
X29766188Y-112817518D01*
X29753928Y-112942000D01*
X29753928Y-114642000D01*
X29766188Y-114766482D01*
X29802498Y-114886180D01*
X29861463Y-114996494D01*
X29940815Y-115093185D01*
X30037506Y-115172537D01*
X30147820Y-115231502D01*
X30267518Y-115267812D01*
X30392000Y-115280072D01*
X32092000Y-115280072D01*
X32216482Y-115267812D01*
X32336180Y-115231502D01*
X32446494Y-115172537D01*
X32543185Y-115093185D01*
X32622537Y-114996494D01*
X32681502Y-114886180D01*
X32717812Y-114766482D01*
X32730072Y-114642000D01*
X32730072Y-112942000D01*
X32717812Y-112817518D01*
X32681502Y-112697820D01*
X32622537Y-112587506D01*
X32543185Y-112490815D01*
X32446494Y-112411463D01*
X32336180Y-112352498D01*
X32263620Y-112330487D01*
X32395475Y-112198632D01*
X32421494Y-112159692D01*
X32424951Y-112162529D01*
X35157470Y-114895049D01*
X35185183Y-114928817D01*
X35218951Y-114956530D01*
X35218953Y-114956532D01*
X35319941Y-115039411D01*
X35473686Y-115121589D01*
X35640510Y-115172195D01*
X35770523Y-115185000D01*
X35770531Y-115185000D01*
X35814000Y-115189281D01*
X35857469Y-115185000D01*
X37921344Y-115185000D01*
X37962525Y-115246632D01*
X38169368Y-115453475D01*
X38343760Y-115570000D01*
X38169368Y-115686525D01*
X37962525Y-115893368D01*
X37800010Y-116136589D01*
X37688068Y-116406842D01*
X37631000Y-116693740D01*
X37631000Y-116986260D01*
X37688068Y-117273158D01*
X37773330Y-117479000D01*
X24496579Y-117479000D01*
X23237000Y-116219422D01*
X23237000Y-106528890D01*
X29800524Y-106528890D01*
X29845175Y-106676099D01*
X29970359Y-106938920D01*
X30144412Y-107172269D01*
X30360645Y-107367178D01*
X30486255Y-107442000D01*
X30360645Y-107516822D01*
X30144412Y-107711731D01*
X29970359Y-107945080D01*
X29845175Y-108207901D01*
X29800524Y-108355110D01*
X29921845Y-108585000D01*
X31115000Y-108585000D01*
X31115000Y-106299000D01*
X29921845Y-106299000D01*
X29800524Y-106528890D01*
X23237000Y-106528890D01*
X23237000Y-101135465D01*
X23241281Y-101091999D01*
X23237000Y-101048533D01*
X23237000Y-101048523D01*
X23224195Y-100918510D01*
X23173589Y-100751687D01*
X23091411Y-100597941D01*
X22980817Y-100463183D01*
X22947050Y-100435471D01*
X21282539Y-98770961D01*
X21297000Y-98698260D01*
X21297000Y-98405740D01*
X21239932Y-98118842D01*
X21127990Y-97848589D01*
X20965475Y-97605368D01*
X20758632Y-97398525D01*
X20515411Y-97236010D01*
X20245158Y-97124068D01*
X19958260Y-97067000D01*
X19665740Y-97067000D01*
X19378842Y-97124068D01*
X19108589Y-97236010D01*
X18865368Y-97398525D01*
X18794000Y-97469893D01*
X18794000Y-96326801D01*
X19561003Y-95559799D01*
X19590001Y-95536001D01*
X19642526Y-95471999D01*
X19684974Y-95420277D01*
X19755546Y-95288247D01*
X19766237Y-95253003D01*
X19799003Y-95144986D01*
X19810000Y-95033333D01*
X19810000Y-95033323D01*
X19813676Y-94996000D01*
X19810000Y-94958678D01*
X19810000Y-91578888D01*
X19831506Y-91596537D01*
X19941820Y-91655502D01*
X20061518Y-91691812D01*
X20186000Y-91704072D01*
X21050250Y-91701000D01*
X21209000Y-91542250D01*
X21209000Y-90043000D01*
X21189000Y-90043000D01*
X21189000Y-89789000D01*
X21209000Y-89789000D01*
X21209000Y-88289750D01*
X21050250Y-88131000D01*
X20186000Y-88127928D01*
X20061518Y-88140188D01*
X19941820Y-88176498D01*
X19831506Y-88235463D01*
X19810000Y-88253112D01*
X19810000Y-76350901D01*
X19851101Y-76328932D01*
X20069608Y-76149608D01*
X20248932Y-75931101D01*
X20320000Y-75798142D01*
X20391068Y-75931101D01*
G37*
%TD.AperFunction*%
D24*
X17851068Y-53071101D02*
X18030393Y-53289608D01*
X18248900Y-53468932D01*
X18498193Y-53602182D01*
X18768692Y-53684236D01*
X19050000Y-53711943D01*
X19331309Y-53684236D01*
X19529358Y-53624159D01*
X35863001Y-69957803D01*
X35863001Y-80185869D01*
X35809302Y-80149988D01*
X35420756Y-79989047D01*
X35008279Y-79907000D01*
X34587721Y-79907000D01*
X34175244Y-79989047D01*
X33786698Y-80149988D01*
X33437017Y-80383637D01*
X33139637Y-80681017D01*
X32905988Y-81030698D01*
X32745047Y-81419244D01*
X32700320Y-81644101D01*
X26154090Y-88190332D01*
X25855807Y-88131000D01*
X25504193Y-88131000D01*
X25159335Y-88199596D01*
X24834485Y-88334153D01*
X24542129Y-88529500D01*
X24293500Y-88778129D01*
X24128000Y-89025816D01*
X24128000Y-87667325D01*
X24131676Y-87630000D01*
X24128000Y-87592675D01*
X24128000Y-87592667D01*
X24117003Y-87481014D01*
X24073546Y-87337753D01*
X24002974Y-87205724D01*
X23908001Y-87089999D01*
X23879004Y-87066202D01*
X22350000Y-85537199D01*
X22350000Y-76350901D01*
X22391101Y-76328932D01*
X22609608Y-76149608D01*
X22788932Y-75931101D01*
X22860000Y-75798142D01*
X22931068Y-75931101D01*
X23110393Y-76149608D01*
X23328900Y-76328932D01*
X23578193Y-76462182D01*
X23848692Y-76544236D01*
X24130000Y-76571943D01*
X24411309Y-76544236D01*
X24681808Y-76462182D01*
X24931101Y-76328932D01*
X25149608Y-76149608D01*
X25328932Y-75931101D01*
X25400000Y-75798142D01*
X25471068Y-75931101D01*
X25650393Y-76149608D01*
X25868900Y-76328932D01*
X26118193Y-76462182D01*
X26388692Y-76544236D01*
X26670000Y-76571943D01*
X26951309Y-76544236D01*
X27221808Y-76462182D01*
X27471101Y-76328932D01*
X27689608Y-76149608D01*
X27868932Y-75931101D01*
X27940000Y-75798142D01*
X28011068Y-75931101D01*
X28190393Y-76149608D01*
X28408900Y-76328932D01*
X28658193Y-76462182D01*
X28928692Y-76544236D01*
X29210000Y-76571943D01*
X29491309Y-76544236D01*
X29761808Y-76462182D01*
X30011101Y-76328932D01*
X30229608Y-76149608D01*
X30408932Y-75931101D01*
X30542182Y-75681807D01*
X30624236Y-75411308D01*
X30645000Y-75200491D01*
X30645000Y-74659508D01*
X30624236Y-74448691D01*
X30542182Y-74178192D01*
X30408932Y-73928899D01*
X30229607Y-73710392D01*
X30011100Y-73531068D01*
X29761807Y-73397818D01*
X29491308Y-73315764D01*
X29210000Y-73288057D01*
X28928691Y-73315764D01*
X28658192Y-73397818D01*
X28408899Y-73531068D01*
X28190392Y-73710393D01*
X28011068Y-73928900D01*
X27940000Y-74061858D01*
X27868932Y-73928899D01*
X27689607Y-73710392D01*
X27471100Y-73531068D01*
X27221807Y-73397818D01*
X26951308Y-73315764D01*
X26670000Y-73288057D01*
X26388691Y-73315764D01*
X26118192Y-73397818D01*
X25868899Y-73531068D01*
X25650392Y-73710393D01*
X25471068Y-73928900D01*
X25400000Y-74061858D01*
X25328932Y-73928899D01*
X25149607Y-73710392D01*
X24931100Y-73531068D01*
X24681807Y-73397818D01*
X24411308Y-73315764D01*
X24130000Y-73288057D01*
X23848691Y-73315764D01*
X23578192Y-73397818D01*
X23328899Y-73531068D01*
X23110392Y-73710393D01*
X22931068Y-73928900D01*
X22860000Y-74061858D01*
X22788932Y-73928899D01*
X22609607Y-73710392D01*
X22391100Y-73531068D01*
X22141807Y-73397818D01*
X21871308Y-73315764D01*
X21590000Y-73288057D01*
X21308691Y-73315764D01*
X21038192Y-73397818D01*
X20788899Y-73531068D01*
X20570392Y-73710393D01*
X20391068Y-73928900D01*
X20320000Y-74061858D01*
X20248932Y-73928899D01*
X20069607Y-73710392D01*
X19851100Y-73531068D01*
X19601807Y-73397818D01*
X19331308Y-73315764D01*
X19050000Y-73288057D01*
X18768691Y-73315764D01*
X18541574Y-73384658D01*
X18540000Y-73368676D01*
X18540000Y-73368667D01*
X18529003Y-73257014D01*
X18485546Y-73113753D01*
X18414974Y-72981724D01*
X18320001Y-72865999D01*
X18291004Y-72842202D01*
X17270000Y-71821199D01*
X17270000Y-53490901D01*
X17311101Y-53468932D01*
X17529608Y-53289608D01*
X17708932Y-53071101D01*
X17780000Y-52938142D01*
X17851068Y-53071101D01*
%TA.AperFunction,Conductor*%
D25*
G36*
X17851068Y-53071101D02*
G01*
X18030393Y-53289608D01*
X18248900Y-53468932D01*
X18498193Y-53602182D01*
X18768692Y-53684236D01*
X19050000Y-53711943D01*
X19331309Y-53684236D01*
X19529358Y-53624159D01*
X35863001Y-69957803D01*
X35863001Y-80185869D01*
X35809302Y-80149988D01*
X35420756Y-79989047D01*
X35008279Y-79907000D01*
X34587721Y-79907000D01*
X34175244Y-79989047D01*
X33786698Y-80149988D01*
X33437017Y-80383637D01*
X33139637Y-80681017D01*
X32905988Y-81030698D01*
X32745047Y-81419244D01*
X32700320Y-81644101D01*
X26154090Y-88190332D01*
X25855807Y-88131000D01*
X25504193Y-88131000D01*
X25159335Y-88199596D01*
X24834485Y-88334153D01*
X24542129Y-88529500D01*
X24293500Y-88778129D01*
X24128000Y-89025816D01*
X24128000Y-87667325D01*
X24131676Y-87630000D01*
X24128000Y-87592675D01*
X24128000Y-87592667D01*
X24117003Y-87481014D01*
X24073546Y-87337753D01*
X24002974Y-87205724D01*
X23908001Y-87089999D01*
X23879004Y-87066202D01*
X22350000Y-85537199D01*
X22350000Y-76350901D01*
X22391101Y-76328932D01*
X22609608Y-76149608D01*
X22788932Y-75931101D01*
X22860000Y-75798142D01*
X22931068Y-75931101D01*
X23110393Y-76149608D01*
X23328900Y-76328932D01*
X23578193Y-76462182D01*
X23848692Y-76544236D01*
X24130000Y-76571943D01*
X24411309Y-76544236D01*
X24681808Y-76462182D01*
X24931101Y-76328932D01*
X25149608Y-76149608D01*
X25328932Y-75931101D01*
X25400000Y-75798142D01*
X25471068Y-75931101D01*
X25650393Y-76149608D01*
X25868900Y-76328932D01*
X26118193Y-76462182D01*
X26388692Y-76544236D01*
X26670000Y-76571943D01*
X26951309Y-76544236D01*
X27221808Y-76462182D01*
X27471101Y-76328932D01*
X27689608Y-76149608D01*
X27868932Y-75931101D01*
X27940000Y-75798142D01*
X28011068Y-75931101D01*
X28190393Y-76149608D01*
X28408900Y-76328932D01*
X28658193Y-76462182D01*
X28928692Y-76544236D01*
X29210000Y-76571943D01*
X29491309Y-76544236D01*
X29761808Y-76462182D01*
X30011101Y-76328932D01*
X30229608Y-76149608D01*
X30408932Y-75931101D01*
X30542182Y-75681807D01*
X30624236Y-75411308D01*
X30645000Y-75200491D01*
X30645000Y-74659508D01*
X30624236Y-74448691D01*
X30542182Y-74178192D01*
X30408932Y-73928899D01*
X30229607Y-73710392D01*
X30011100Y-73531068D01*
X29761807Y-73397818D01*
X29491308Y-73315764D01*
X29210000Y-73288057D01*
X28928691Y-73315764D01*
X28658192Y-73397818D01*
X28408899Y-73531068D01*
X28190392Y-73710393D01*
X28011068Y-73928900D01*
X27940000Y-74061858D01*
X27868932Y-73928899D01*
X27689607Y-73710392D01*
X27471100Y-73531068D01*
X27221807Y-73397818D01*
X26951308Y-73315764D01*
X26670000Y-73288057D01*
X26388691Y-73315764D01*
X26118192Y-73397818D01*
X25868899Y-73531068D01*
X25650392Y-73710393D01*
X25471068Y-73928900D01*
X25400000Y-74061858D01*
X25328932Y-73928899D01*
X25149607Y-73710392D01*
X24931100Y-73531068D01*
X24681807Y-73397818D01*
X24411308Y-73315764D01*
X24130000Y-73288057D01*
X23848691Y-73315764D01*
X23578192Y-73397818D01*
X23328899Y-73531068D01*
X23110392Y-73710393D01*
X22931068Y-73928900D01*
X22860000Y-74061858D01*
X22788932Y-73928899D01*
X22609607Y-73710392D01*
X22391100Y-73531068D01*
X22141807Y-73397818D01*
X21871308Y-73315764D01*
X21590000Y-73288057D01*
X21308691Y-73315764D01*
X21038192Y-73397818D01*
X20788899Y-73531068D01*
X20570392Y-73710393D01*
X20391068Y-73928900D01*
X20320000Y-74061858D01*
X20248932Y-73928899D01*
X20069607Y-73710392D01*
X19851100Y-73531068D01*
X19601807Y-73397818D01*
X19331308Y-73315764D01*
X19050000Y-73288057D01*
X18768691Y-73315764D01*
X18541574Y-73384658D01*
X18540000Y-73368676D01*
X18540000Y-73368667D01*
X18529003Y-73257014D01*
X18485546Y-73113753D01*
X18414974Y-72981724D01*
X18320001Y-72865999D01*
X18291004Y-72842202D01*
X17270000Y-71821199D01*
X17270000Y-53490901D01*
X17311101Y-53468932D01*
X17529608Y-53289608D01*
X17708932Y-53071101D01*
X17780000Y-52938142D01*
X17851068Y-53071101D01*
G37*
%TD.AperFunction*%
D24*
X15311068Y-75931101D02*
X15490393Y-76149608D01*
X15708900Y-76328932D01*
X15958193Y-76462182D01*
X16228692Y-76544236D01*
X16510000Y-76571943D01*
X16791309Y-76544236D01*
X17020000Y-76474864D01*
X17020001Y-85612422D01*
X14198637Y-82791058D01*
X14250953Y-82664756D01*
X14333000Y-82252279D01*
X14333000Y-81831721D01*
X14250953Y-81419244D01*
X14090012Y-81030698D01*
X13856363Y-80681017D01*
X13558983Y-80383637D01*
X13209302Y-80149988D01*
X12820756Y-79989047D01*
X12408279Y-79907000D01*
X11987721Y-79907000D01*
X11575244Y-79989047D01*
X11186698Y-80149988D01*
X10837017Y-80383637D01*
X10820000Y-80400654D01*
X10820000Y-76568072D01*
X12430000Y-76568072D01*
X12554482Y-76555812D01*
X12674180Y-76519502D01*
X12784494Y-76460537D01*
X12881185Y-76381185D01*
X12960537Y-76284494D01*
X13007559Y-76196523D01*
X13168900Y-76328932D01*
X13418193Y-76462182D01*
X13688692Y-76544236D01*
X13970000Y-76571943D01*
X14251309Y-76544236D01*
X14521808Y-76462182D01*
X14771101Y-76328932D01*
X14989608Y-76149608D01*
X15168932Y-75931101D01*
X15240000Y-75798142D01*
X15311068Y-75931101D01*
%TA.AperFunction,Conductor*%
D25*
G36*
X15311068Y-75931101D02*
G01*
X15490393Y-76149608D01*
X15708900Y-76328932D01*
X15958193Y-76462182D01*
X16228692Y-76544236D01*
X16510000Y-76571943D01*
X16791309Y-76544236D01*
X17020000Y-76474864D01*
X17020001Y-85612422D01*
X14198637Y-82791058D01*
X14250953Y-82664756D01*
X14333000Y-82252279D01*
X14333000Y-81831721D01*
X14250953Y-81419244D01*
X14090012Y-81030698D01*
X13856363Y-80681017D01*
X13558983Y-80383637D01*
X13209302Y-80149988D01*
X12820756Y-79989047D01*
X12408279Y-79907000D01*
X11987721Y-79907000D01*
X11575244Y-79989047D01*
X11186698Y-80149988D01*
X10837017Y-80383637D01*
X10820000Y-80400654D01*
X10820000Y-76568072D01*
X12430000Y-76568072D01*
X12554482Y-76555812D01*
X12674180Y-76519502D01*
X12784494Y-76460537D01*
X12881185Y-76381185D01*
X12960537Y-76284494D01*
X13007559Y-76196523D01*
X13168900Y-76328932D01*
X13418193Y-76462182D01*
X13688692Y-76544236D01*
X13970000Y-76571943D01*
X14251309Y-76544236D01*
X14521808Y-76462182D01*
X14771101Y-76328932D01*
X14989608Y-76149608D01*
X15168932Y-75931101D01*
X15240000Y-75798142D01*
X15311068Y-75931101D01*
G37*
%TD.AperFunction*%
D24*
X40276147Y-71792574D02*
X40384320Y-72053727D01*
X40541363Y-72288759D01*
X40741241Y-72488637D01*
X40976273Y-72645680D01*
X41237426Y-72753853D01*
X41514665Y-72809000D01*
X41787000Y-72809000D01*
X41787000Y-79620678D01*
X41573735Y-79445655D01*
X41297949Y-79298245D01*
X40998704Y-79207470D01*
X40765486Y-79184500D01*
X40514514Y-79184500D01*
X40322946Y-79203368D01*
X40255000Y-79135422D01*
X40255000Y-71686262D01*
X40276147Y-71792574D01*
%TA.AperFunction,Conductor*%
D25*
G36*
X40276147Y-71792574D02*
G01*
X40384320Y-72053727D01*
X40541363Y-72288759D01*
X40741241Y-72488637D01*
X40976273Y-72645680D01*
X41237426Y-72753853D01*
X41514665Y-72809000D01*
X41787000Y-72809000D01*
X41787000Y-79620678D01*
X41573735Y-79445655D01*
X41297949Y-79298245D01*
X40998704Y-79207470D01*
X40765486Y-79184500D01*
X40514514Y-79184500D01*
X40322946Y-79203368D01*
X40255000Y-79135422D01*
X40255000Y-71686262D01*
X40276147Y-71792574D01*
G37*
%TD.AperFunction*%
D24*
X15311068Y-53071101D02*
X15490393Y-53289608D01*
X15708900Y-53468932D01*
X15750000Y-53490900D01*
X15750000Y-54695547D01*
X15649715Y-54595262D01*
X15218141Y-54306893D01*
X14738601Y-54108261D01*
X14229525Y-54007000D01*
X13710475Y-54007000D01*
X13201399Y-54108261D01*
X12721859Y-54306893D01*
X12290285Y-54595262D01*
X11923262Y-54962285D01*
X11634893Y-55393859D01*
X11436261Y-55873399D01*
X11335000Y-56382475D01*
X11335000Y-56901525D01*
X11436261Y-57410601D01*
X11634893Y-57890141D01*
X11923262Y-58321715D01*
X12290285Y-58688738D01*
X12721859Y-58977107D01*
X13201399Y-59175739D01*
X13710475Y-59277000D01*
X14229525Y-59277000D01*
X14738601Y-59175739D01*
X15218141Y-58977107D01*
X15649715Y-58688738D01*
X15750000Y-58588453D01*
X15750001Y-72098667D01*
X15746324Y-72136000D01*
X15760998Y-72284985D01*
X15804454Y-72428246D01*
X15875026Y-72560276D01*
X15942361Y-72642323D01*
X15970000Y-72676001D01*
X15998998Y-72699799D01*
X16595696Y-73296497D01*
X16510000Y-73288057D01*
X16228691Y-73315764D01*
X15958192Y-73397818D01*
X15708899Y-73531068D01*
X15490392Y-73710393D01*
X15311068Y-73928900D01*
X15240000Y-74061858D01*
X15168932Y-73928899D01*
X14989607Y-73710392D01*
X14771100Y-73531068D01*
X14521807Y-73397818D01*
X14251308Y-73315764D01*
X13970000Y-73288057D01*
X13688691Y-73315764D01*
X13418192Y-73397818D01*
X13168899Y-73531068D01*
X13007559Y-73663477D01*
X12960537Y-73575506D01*
X12881185Y-73478815D01*
X12784494Y-73399463D01*
X12674180Y-73340498D01*
X12554482Y-73304188D01*
X12430000Y-73291928D01*
X10820000Y-73291928D01*
X10820000Y-53571077D01*
X10878193Y-53602182D01*
X11148692Y-53684236D01*
X11430000Y-53711943D01*
X11711309Y-53684236D01*
X11981808Y-53602182D01*
X12231101Y-53468932D01*
X12449608Y-53289608D01*
X12628932Y-53071101D01*
X12700000Y-52938142D01*
X12771068Y-53071101D01*
X12950393Y-53289608D01*
X13168900Y-53468932D01*
X13418193Y-53602182D01*
X13688692Y-53684236D01*
X13970000Y-53711943D01*
X14251309Y-53684236D01*
X14521808Y-53602182D01*
X14771101Y-53468932D01*
X14989608Y-53289608D01*
X15168932Y-53071101D01*
X15240000Y-52938142D01*
X15311068Y-53071101D01*
%TA.AperFunction,Conductor*%
D25*
G36*
X15311068Y-53071101D02*
G01*
X15490393Y-53289608D01*
X15708900Y-53468932D01*
X15750000Y-53490900D01*
X15750000Y-54695547D01*
X15649715Y-54595262D01*
X15218141Y-54306893D01*
X14738601Y-54108261D01*
X14229525Y-54007000D01*
X13710475Y-54007000D01*
X13201399Y-54108261D01*
X12721859Y-54306893D01*
X12290285Y-54595262D01*
X11923262Y-54962285D01*
X11634893Y-55393859D01*
X11436261Y-55873399D01*
X11335000Y-56382475D01*
X11335000Y-56901525D01*
X11436261Y-57410601D01*
X11634893Y-57890141D01*
X11923262Y-58321715D01*
X12290285Y-58688738D01*
X12721859Y-58977107D01*
X13201399Y-59175739D01*
X13710475Y-59277000D01*
X14229525Y-59277000D01*
X14738601Y-59175739D01*
X15218141Y-58977107D01*
X15649715Y-58688738D01*
X15750000Y-58588453D01*
X15750001Y-72098667D01*
X15746324Y-72136000D01*
X15760998Y-72284985D01*
X15804454Y-72428246D01*
X15875026Y-72560276D01*
X15942361Y-72642323D01*
X15970000Y-72676001D01*
X15998998Y-72699799D01*
X16595696Y-73296497D01*
X16510000Y-73288057D01*
X16228691Y-73315764D01*
X15958192Y-73397818D01*
X15708899Y-73531068D01*
X15490392Y-73710393D01*
X15311068Y-73928900D01*
X15240000Y-74061858D01*
X15168932Y-73928899D01*
X14989607Y-73710392D01*
X14771100Y-73531068D01*
X14521807Y-73397818D01*
X14251308Y-73315764D01*
X13970000Y-73288057D01*
X13688691Y-73315764D01*
X13418192Y-73397818D01*
X13168899Y-73531068D01*
X13007559Y-73663477D01*
X12960537Y-73575506D01*
X12881185Y-73478815D01*
X12784494Y-73399463D01*
X12674180Y-73340498D01*
X12554482Y-73304188D01*
X12430000Y-73291928D01*
X10820000Y-73291928D01*
X10820000Y-53571077D01*
X10878193Y-53602182D01*
X11148692Y-53684236D01*
X11430000Y-53711943D01*
X11711309Y-53684236D01*
X11981808Y-53602182D01*
X12231101Y-53468932D01*
X12449608Y-53289608D01*
X12628932Y-53071101D01*
X12700000Y-52938142D01*
X12771068Y-53071101D01*
X12950393Y-53289608D01*
X13168900Y-53468932D01*
X13418193Y-53602182D01*
X13688692Y-53684236D01*
X13970000Y-53711943D01*
X14251309Y-53684236D01*
X14521808Y-53602182D01*
X14771101Y-53468932D01*
X14989608Y-53289608D01*
X15168932Y-53071101D01*
X15240000Y-52938142D01*
X15311068Y-53071101D01*
G37*
%TD.AperFunction*%
%TD*%
M02*
