M48
; DRILL file {KiCad (5.1.10)-1} date 07/28/21 16:16:40
; FORMAT={-:-/ absolute / metric / decimal}
; #@! TF.CreationDate,2021-07-28T16:16:40+02:00
; #@! TF.GenerationSoftware,Kicad,Pcbnew,(5.1.10)-1
; #@! TF.FileFunction,Plated,1,2,PTH
FMAT,2
METRIC
T1C0.400
T2C0.800
T3C1.000
T4C1.100
T5C1.500
T6C3.200
%
G90
G05
T1
X13.462Y-101.854
X13.97Y-65.786
X15.24Y-79.502
X26.67Y-79.756
X26.924Y-66.802
X34.29Y-94.488
X41.148Y-75.438
T2
X41.656Y-61.214
X41.656Y-71.374
T3
X11.43Y-52.07
X11.43Y-74.93
X13.97Y-52.07
X13.97Y-74.93
X16.51Y-52.07
X16.51Y-74.93
X19.05Y-52.07
X19.05Y-74.93
X19.812Y-98.552
X19.812Y-101.092
X19.812Y-103.632
X19.812Y-106.172
X19.812Y-108.712
X19.812Y-111.252
X19.812Y-113.792
X19.812Y-127.762
X19.812Y-130.302
X19.812Y-132.842
X19.812Y-135.382
X19.812Y-137.922
X19.812Y-140.462
X19.812Y-143.002
X21.59Y-52.07
X21.59Y-74.93
X24.13Y-52.07
X24.13Y-74.93
X26.67Y-52.07
X26.67Y-74.93
X29.21Y-52.07
X29.21Y-74.93
X31.242Y-98.552
X31.242Y-101.092
X31.242Y-103.632
X31.242Y-106.172
X31.242Y-108.712
X31.242Y-111.252
X31.242Y-113.792
X31.242Y-127.762
X31.242Y-130.302
X31.242Y-132.842
X31.242Y-135.382
X31.242Y-137.922
X31.242Y-140.462
X31.242Y-143.002
X39.116Y-111.76
X39.116Y-114.3
X39.116Y-116.84
X39.116Y-119.38
X39.116Y-121.92
X39.116Y-124.46
X39.116Y-127.0
X39.116Y-129.54
T4
X16.536Y-89.916
X21.336Y-89.916
X25.68Y-89.916
X30.48Y-89.916
X39.624Y-91.44
X39.624Y-96.24
X40.64Y-80.772
X40.64Y-83.312
X40.64Y-85.852
T5
X12.198Y-82.042
X34.798Y-82.042
T6
X12.954Y-147.574
X13.97Y-56.642
X42.418Y-53.848
X42.926Y-147.574
T0
M30
