M48
; DRILL file {KiCad (5.1.10)-1} date 07/27/21 21:20:34
; FORMAT={-:-/ absolute / inch / decimal}
; #@! TF.CreationDate,2021-07-27T21:20:34+02:00
; #@! TF.GenerationSoftware,Kicad,Pcbnew,(5.1.10)-1
; #@! TF.FileFunction,Plated,1,2,PTH
FMAT,2
INCH
T1C0.0157
T2C0.0315
T3C0.0394
T4C0.0433
T5C0.0591
T6C0.1260
%
G90
G05
T1
X0.75Y-2.7
X0.85Y-3.4
X1.15Y-3.25
X1.7Y-4.0
X1.8Y-3.8
X1.9Y-3.3
X1.95Y-3.25
X2.0Y-3.55
T2
X2.35Y-2.5
X2.35Y-2.9
T3
X0.45Y-2.05
X0.45Y-2.95
X0.55Y-2.05
X0.55Y-2.95
X0.65Y-2.05
X0.65Y-2.95
X0.7Y-3.5
X0.7Y-3.6
X0.7Y-3.7
X0.7Y-3.8
X0.7Y-3.9
X0.7Y-4.0
X0.7Y-4.1
X0.75Y-2.05
X0.75Y-2.95
X0.85Y-2.05
X0.85Y-2.95
X0.95Y-2.05
X0.95Y-2.95
X1.05Y-2.05
X1.05Y-2.95
X1.15Y-2.05
X1.15Y-2.95
X1.4Y-3.5
X1.4Y-3.6
X1.4Y-3.7
X1.4Y-3.8
X1.4Y-3.9
X1.4Y-4.0
X1.4Y-4.1
X2.1Y-3.5
X2.1Y-3.6
X2.1Y-3.7
X2.1Y-3.8
X2.1Y-3.9
X2.1Y-4.0
X2.1Y-4.1
X2.8Y-2.4
X2.8Y-2.5
X2.8Y-2.6
X2.8Y-2.7
X2.8Y-2.8
X2.8Y-2.9
X2.8Y-3.0
X2.8Y-3.1
X2.8Y-3.5
X2.8Y-3.6
X2.8Y-3.7
X2.8Y-3.8
X2.8Y-3.9
X2.8Y-4.0
X2.8Y-4.1
T4
X1.061Y-1.85
X1.25Y-1.85
X1.7Y-3.1
X1.8Y-3.1
X1.9Y-3.1
X2.211Y-3.1
X2.4Y-3.1
X2.8Y-2.0
X2.8Y-2.189
T5
X1.7602Y-1.95
X2.65Y-1.95
T6
X0.55Y-1.85
X0.55Y-4.45
X2.95Y-1.85
X2.95Y-4.45
T0
M30
