%TF.GenerationSoftware,KiCad,Pcbnew,(5.1.10)-1*%
%TF.CreationDate,2021-07-27T21:20:26+02:00*%
%TF.ProjectId,LEDBeam,4c454442-6561-46d2-9e6b-696361645f70,rev?*%
%TF.SameCoordinates,Original*%
%TF.FileFunction,Legend,Top*%
%TF.FilePolarity,Positive*%
%FSLAX46Y46*%
G04 Gerber Fmt 4.6, Leading zero omitted, Abs format (unit mm)*
G04 Created by KiCad (PCBNEW (5.1.10)-1) date 2021-07-27 21:20:26*
%MOMM*%
%LPD*%
G01*
G04 APERTURE LIST*
%ADD10C,0.120000*%
%ADD11C,0.150000*%
G04 APERTURE END LIST*
D10*
%TO.C,R1*%
X58320000Y-71850000D02*
X61060000Y-71850000D01*
X61060000Y-71850000D02*
X61060000Y-65310000D01*
X61060000Y-65310000D02*
X58320000Y-65310000D01*
X58320000Y-65310000D02*
X58320000Y-71850000D01*
X59690000Y-72620000D02*
X59690000Y-71850000D01*
X59690000Y-64540000D02*
X59690000Y-65310000D01*
%TO.C,U6*%
X19110000Y-105470000D02*
X17780000Y-105470000D01*
X19110000Y-104140000D02*
X19110000Y-105470000D01*
X19110000Y-102870000D02*
X16450000Y-102870000D01*
X16450000Y-102870000D02*
X16450000Y-87570000D01*
X19110000Y-102870000D02*
X19110000Y-87570000D01*
X19110000Y-87570000D02*
X16450000Y-87570000D01*
%TO.C,U5*%
X36890000Y-105470000D02*
X35560000Y-105470000D01*
X36890000Y-104140000D02*
X36890000Y-105470000D01*
X36890000Y-102870000D02*
X34230000Y-102870000D01*
X34230000Y-102870000D02*
X34230000Y-87570000D01*
X36890000Y-102870000D02*
X36890000Y-87570000D01*
X36890000Y-87570000D02*
X34230000Y-87570000D01*
%TO.C,U4*%
X47571000Y-75470000D02*
X47571000Y-76980000D01*
X43870000Y-75470000D02*
X43870000Y-76980000D01*
X40600000Y-76980000D02*
X50840000Y-76980000D01*
X50840000Y-75470000D02*
X50840000Y-80111000D01*
X40600000Y-75470000D02*
X40600000Y-80111000D01*
X40600000Y-80111000D02*
X50840000Y-80111000D01*
X40600000Y-75470000D02*
X50840000Y-75470000D01*
%TO.C,U3*%
X54670000Y-105470000D02*
X53340000Y-105470000D01*
X54670000Y-104140000D02*
X54670000Y-105470000D01*
X54670000Y-102870000D02*
X52010000Y-102870000D01*
X52010000Y-102870000D02*
X52010000Y-87570000D01*
X54670000Y-102870000D02*
X54670000Y-87570000D01*
X54670000Y-87570000D02*
X52010000Y-87570000D01*
%TO.C,U2*%
X72450000Y-105470000D02*
X71120000Y-105470000D01*
X72450000Y-104140000D02*
X72450000Y-105470000D01*
X72450000Y-102870000D02*
X69790000Y-102870000D01*
X69790000Y-102870000D02*
X69790000Y-87570000D01*
X72450000Y-102870000D02*
X72450000Y-87570000D01*
X72450000Y-87570000D02*
X69790000Y-87570000D01*
%TO.C,U1*%
X30650000Y-73890000D02*
X37550000Y-73890000D01*
X30650000Y-76430000D02*
X30650000Y-73890000D01*
D11*
G36*
X10795000Y-77470000D02*
G01*
X12065000Y-77470000D01*
X11430000Y-76835000D01*
X10795000Y-77470000D01*
G37*
X10795000Y-77470000D02*
X12065000Y-77470000D01*
X11430000Y-76835000D01*
X10795000Y-77470000D01*
D10*
X3090000Y-52690000D02*
X3090000Y-74300000D01*
X37550000Y-50570000D02*
X5220000Y-50570000D01*
X30650000Y-76430000D02*
X5220000Y-76430000D01*
X37550000Y-73890000D02*
X37550000Y-50570000D01*
X3090000Y-52700000D02*
G75*
G02*
X5220000Y-50570000I2130000J0D01*
G01*
X5220000Y-76430000D02*
G75*
G02*
X3090000Y-74300000I0J2130000D01*
G01*
%TO.C,F1*%
X67310000Y-44730000D02*
X67310000Y-47530000D01*
X67310000Y-44730000D02*
X44710000Y-44730000D01*
X67310000Y-54330000D02*
X44710000Y-54330000D01*
X67310000Y-51530000D02*
X67310000Y-54330000D01*
X44710000Y-51530000D02*
X44710000Y-54330000D01*
X44710000Y-44730000D02*
X44710000Y-47530000D01*
%TO.C,D1*%
X72450000Y-80070000D02*
X71120000Y-80070000D01*
X72450000Y-78740000D02*
X72450000Y-80070000D01*
X72450000Y-77470000D02*
X69790000Y-77470000D01*
X69790000Y-77470000D02*
X69790000Y-59630000D01*
X72450000Y-77470000D02*
X72450000Y-59630000D01*
X72450000Y-59630000D02*
X69790000Y-59630000D01*
%TO.C,R1*%
D11*
X57772380Y-68746666D02*
X57296190Y-69080000D01*
X57772380Y-69318095D02*
X56772380Y-69318095D01*
X56772380Y-68937142D01*
X56820000Y-68841904D01*
X56867619Y-68794285D01*
X56962857Y-68746666D01*
X57105714Y-68746666D01*
X57200952Y-68794285D01*
X57248571Y-68841904D01*
X57296190Y-68937142D01*
X57296190Y-69318095D01*
X57772380Y-67794285D02*
X57772380Y-68365714D01*
X57772380Y-68080000D02*
X56772380Y-68080000D01*
X56915238Y-68175238D01*
X57010476Y-68270476D01*
X57058095Y-68365714D01*
%TO.C,U6*%
X17018095Y-105922380D02*
X17018095Y-106731904D01*
X17065714Y-106827142D01*
X17113333Y-106874761D01*
X17208571Y-106922380D01*
X17399047Y-106922380D01*
X17494285Y-106874761D01*
X17541904Y-106827142D01*
X17589523Y-106731904D01*
X17589523Y-105922380D01*
X18494285Y-105922380D02*
X18303809Y-105922380D01*
X18208571Y-105970000D01*
X18160952Y-106017619D01*
X18065714Y-106160476D01*
X18018095Y-106350952D01*
X18018095Y-106731904D01*
X18065714Y-106827142D01*
X18113333Y-106874761D01*
X18208571Y-106922380D01*
X18399047Y-106922380D01*
X18494285Y-106874761D01*
X18541904Y-106827142D01*
X18589523Y-106731904D01*
X18589523Y-106493809D01*
X18541904Y-106398571D01*
X18494285Y-106350952D01*
X18399047Y-106303333D01*
X18208571Y-106303333D01*
X18113333Y-106350952D01*
X18065714Y-106398571D01*
X18018095Y-106493809D01*
%TO.C,U5*%
X34798095Y-105922380D02*
X34798095Y-106731904D01*
X34845714Y-106827142D01*
X34893333Y-106874761D01*
X34988571Y-106922380D01*
X35179047Y-106922380D01*
X35274285Y-106874761D01*
X35321904Y-106827142D01*
X35369523Y-106731904D01*
X35369523Y-105922380D01*
X36321904Y-105922380D02*
X35845714Y-105922380D01*
X35798095Y-106398571D01*
X35845714Y-106350952D01*
X35940952Y-106303333D01*
X36179047Y-106303333D01*
X36274285Y-106350952D01*
X36321904Y-106398571D01*
X36369523Y-106493809D01*
X36369523Y-106731904D01*
X36321904Y-106827142D01*
X36274285Y-106874761D01*
X36179047Y-106922380D01*
X35940952Y-106922380D01*
X35845714Y-106874761D01*
X35798095Y-106827142D01*
%TO.C,U4*%
X44958095Y-73922380D02*
X44958095Y-74731904D01*
X45005714Y-74827142D01*
X45053333Y-74874761D01*
X45148571Y-74922380D01*
X45339047Y-74922380D01*
X45434285Y-74874761D01*
X45481904Y-74827142D01*
X45529523Y-74731904D01*
X45529523Y-73922380D01*
X46434285Y-74255714D02*
X46434285Y-74922380D01*
X46196190Y-73874761D02*
X45958095Y-74589047D01*
X46577142Y-74589047D01*
%TO.C,U3*%
X52578095Y-105922380D02*
X52578095Y-106731904D01*
X52625714Y-106827142D01*
X52673333Y-106874761D01*
X52768571Y-106922380D01*
X52959047Y-106922380D01*
X53054285Y-106874761D01*
X53101904Y-106827142D01*
X53149523Y-106731904D01*
X53149523Y-105922380D01*
X53530476Y-105922380D02*
X54149523Y-105922380D01*
X53816190Y-106303333D01*
X53959047Y-106303333D01*
X54054285Y-106350952D01*
X54101904Y-106398571D01*
X54149523Y-106493809D01*
X54149523Y-106731904D01*
X54101904Y-106827142D01*
X54054285Y-106874761D01*
X53959047Y-106922380D01*
X53673333Y-106922380D01*
X53578095Y-106874761D01*
X53530476Y-106827142D01*
%TO.C,U2*%
X70358095Y-105922380D02*
X70358095Y-106731904D01*
X70405714Y-106827142D01*
X70453333Y-106874761D01*
X70548571Y-106922380D01*
X70739047Y-106922380D01*
X70834285Y-106874761D01*
X70881904Y-106827142D01*
X70929523Y-106731904D01*
X70929523Y-105922380D01*
X71358095Y-106017619D02*
X71405714Y-105970000D01*
X71500952Y-105922380D01*
X71739047Y-105922380D01*
X71834285Y-105970000D01*
X71881904Y-106017619D01*
X71929523Y-106112857D01*
X71929523Y-106208095D01*
X71881904Y-106350952D01*
X71310476Y-106922380D01*
X71929523Y-106922380D01*
%TO.C,U1*%
X37882380Y-53691904D02*
X38691904Y-53691904D01*
X38787142Y-53644285D01*
X38834761Y-53596666D01*
X38882380Y-53501428D01*
X38882380Y-53310952D01*
X38834761Y-53215714D01*
X38787142Y-53168095D01*
X38691904Y-53120476D01*
X37882380Y-53120476D01*
X38882380Y-52120476D02*
X38882380Y-52691904D01*
X38882380Y-52406190D02*
X37882380Y-52406190D01*
X38025238Y-52501428D01*
X38120476Y-52596666D01*
X38168095Y-52691904D01*
%TO.C,J3*%
X58226666Y-75842380D02*
X58226666Y-76556666D01*
X58179047Y-76699523D01*
X58083809Y-76794761D01*
X57940952Y-76842380D01*
X57845714Y-76842380D01*
X58607619Y-75842380D02*
X59226666Y-75842380D01*
X58893333Y-76223333D01*
X59036190Y-76223333D01*
X59131428Y-76270952D01*
X59179047Y-76318571D01*
X59226666Y-76413809D01*
X59226666Y-76651904D01*
X59179047Y-76747142D01*
X59131428Y-76794761D01*
X59036190Y-76842380D01*
X58750476Y-76842380D01*
X58655238Y-76794761D01*
X58607619Y-76747142D01*
%TO.C,J2*%
X68222380Y-53533333D02*
X68936666Y-53533333D01*
X69079523Y-53580952D01*
X69174761Y-53676190D01*
X69222380Y-53819047D01*
X69222380Y-53914285D01*
X68317619Y-53104761D02*
X68270000Y-53057142D01*
X68222380Y-52961904D01*
X68222380Y-52723809D01*
X68270000Y-52628571D01*
X68317619Y-52580952D01*
X68412857Y-52533333D01*
X68508095Y-52533333D01*
X68650952Y-52580952D01*
X69222380Y-53152380D01*
X69222380Y-52533333D01*
%TO.C,J1*%
X29016666Y-44092380D02*
X29016666Y-44806666D01*
X28969047Y-44949523D01*
X28873809Y-45044761D01*
X28730952Y-45092380D01*
X28635714Y-45092380D01*
X30016666Y-45092380D02*
X29445238Y-45092380D01*
X29730952Y-45092380D02*
X29730952Y-44092380D01*
X29635714Y-44235238D01*
X29540476Y-44330476D01*
X29445238Y-44378095D01*
%TO.C,F1*%
X55726666Y-55458571D02*
X55393333Y-55458571D01*
X55393333Y-55982380D02*
X55393333Y-54982380D01*
X55869523Y-54982380D01*
X56774285Y-55982380D02*
X56202857Y-55982380D01*
X56488571Y-55982380D02*
X56488571Y-54982380D01*
X56393333Y-55125238D01*
X56298095Y-55220476D01*
X56202857Y-55268095D01*
%TO.C,D1*%
X70381904Y-81522380D02*
X70381904Y-80522380D01*
X70620000Y-80522380D01*
X70762857Y-80570000D01*
X70858095Y-80665238D01*
X70905714Y-80760476D01*
X70953333Y-80950952D01*
X70953333Y-81093809D01*
X70905714Y-81284285D01*
X70858095Y-81379523D01*
X70762857Y-81474761D01*
X70620000Y-81522380D01*
X70381904Y-81522380D01*
X71905714Y-81522380D02*
X71334285Y-81522380D01*
X71620000Y-81522380D02*
X71620000Y-80522380D01*
X71524761Y-80665238D01*
X71429523Y-80760476D01*
X71334285Y-80808095D01*
%TD*%
M02*
