%TF.GenerationSoftware,KiCad,Pcbnew,(5.1.10)-1*%
%TF.CreationDate,2021-07-27T21:20:26+02:00*%
%TF.ProjectId,LEDBeam,4c454442-6561-46d2-9e6b-696361645f70,rev?*%
%TF.SameCoordinates,Original*%
%TF.FileFunction,Copper,L2,Bot*%
%TF.FilePolarity,Positive*%
%FSLAX46Y46*%
G04 Gerber Fmt 4.6, Leading zero omitted, Abs format (unit mm)*
G04 Created by KiCad (PCBNEW (5.1.10)-1) date 2021-07-27 21:20:26*
%MOMM*%
%LPD*%
G01*
G04 APERTURE LIST*
%TA.AperFunction,ComponentPad*%
%ADD10O,1.600000X1.600000*%
%TD*%
%TA.AperFunction,ComponentPad*%
%ADD11C,1.600000*%
%TD*%
%TA.AperFunction,ComponentPad*%
%ADD12O,1.700000X1.700000*%
%TD*%
%TA.AperFunction,ComponentPad*%
%ADD13R,1.700000X1.700000*%
%TD*%
%TA.AperFunction,ComponentPad*%
%ADD14O,1.905000X2.000000*%
%TD*%
%TA.AperFunction,ComponentPad*%
%ADD15R,1.905000X2.000000*%
%TD*%
%TA.AperFunction,ComponentPad*%
%ADD16O,1.600000X2.000000*%
%TD*%
%TA.AperFunction,ComponentPad*%
%ADD17R,2.000000X2.000000*%
%TD*%
%TA.AperFunction,ComponentPad*%
%ADD18C,2.300000*%
%TD*%
%TA.AperFunction,ComponentPad*%
%ADD19C,3.000000*%
%TD*%
%TA.AperFunction,ViaPad*%
%ADD20C,4.000000*%
%TD*%
%TA.AperFunction,ViaPad*%
%ADD21C,0.800000*%
%TD*%
%TA.AperFunction,Conductor*%
%ADD22C,0.500000*%
%TD*%
%TA.AperFunction,Conductor*%
%ADD23C,0.254000*%
%TD*%
%TA.AperFunction,Conductor*%
%ADD24C,0.100000*%
%TD*%
G04 APERTURE END LIST*
D10*
%TO.P,R1,2*%
%TO.N,5V*%
X59690000Y-63500000D03*
D11*
%TO.P,R1,1*%
%TO.N,Net-(J3-Pad2)*%
X59690000Y-73660000D03*
%TD*%
D12*
%TO.P,U6,7*%
%TO.N,W-*%
X17780000Y-88900000D03*
%TO.P,U6,6*%
%TO.N,W+*%
X17780000Y-91440000D03*
%TO.P,U6,5*%
%TO.N,W_PWM*%
X17780000Y-93980000D03*
%TO.P,U6,4*%
%TO.N,GND*%
X17780000Y-96520000D03*
%TO.P,U6,3*%
X17780000Y-99060000D03*
%TO.P,U6,2*%
%TO.N,24V*%
X17780000Y-101600000D03*
D13*
%TO.P,U6,1*%
X17780000Y-104140000D03*
%TD*%
D12*
%TO.P,U5,7*%
%TO.N,B-*%
X35560000Y-88900000D03*
%TO.P,U5,6*%
%TO.N,B+*%
X35560000Y-91440000D03*
%TO.P,U5,5*%
%TO.N,B_PWM*%
X35560000Y-93980000D03*
%TO.P,U5,4*%
%TO.N,GND*%
X35560000Y-96520000D03*
%TO.P,U5,3*%
X35560000Y-99060000D03*
%TO.P,U5,2*%
%TO.N,24V*%
X35560000Y-101600000D03*
D13*
%TO.P,U5,1*%
X35560000Y-104140000D03*
%TD*%
D14*
%TO.P,U4,3*%
%TO.N,5V*%
X48260000Y-78740000D03*
%TO.P,U4,2*%
%TO.N,GND*%
X45720000Y-78740000D03*
D15*
%TO.P,U4,1*%
%TO.N,24V*%
X43180000Y-78740000D03*
%TD*%
D12*
%TO.P,U3,7*%
%TO.N,G-*%
X53340000Y-88900000D03*
%TO.P,U3,6*%
%TO.N,G+*%
X53340000Y-91440000D03*
%TO.P,U3,5*%
%TO.N,G_PWM*%
X53340000Y-93980000D03*
%TO.P,U3,4*%
%TO.N,GND*%
X53340000Y-96520000D03*
%TO.P,U3,3*%
X53340000Y-99060000D03*
%TO.P,U3,2*%
%TO.N,24V*%
X53340000Y-101600000D03*
D13*
%TO.P,U3,1*%
X53340000Y-104140000D03*
%TD*%
D12*
%TO.P,U2,7*%
%TO.N,R-*%
X71120000Y-88900000D03*
%TO.P,U2,6*%
%TO.N,R+*%
X71120000Y-91440000D03*
%TO.P,U2,5*%
%TO.N,R_PWM*%
X71120000Y-93980000D03*
%TO.P,U2,4*%
%TO.N,GND*%
X71120000Y-96520000D03*
%TO.P,U2,3*%
X71120000Y-99060000D03*
%TO.P,U2,2*%
%TO.N,24V*%
X71120000Y-101600000D03*
D13*
%TO.P,U2,1*%
X71120000Y-104140000D03*
%TD*%
D16*
%TO.P,U1,16*%
%TO.N,Net-(U1-Pad16)*%
X11430000Y-52070000D03*
%TO.P,U1,15*%
%TO.N,Net-(U1-Pad15)*%
X13970000Y-52070000D03*
%TO.P,U1,14*%
%TO.N,G_PWM*%
X16510000Y-52070000D03*
%TO.P,U1,13*%
%TO.N,R_PWM*%
X19050000Y-52070000D03*
%TO.P,U1,12*%
%TO.N,Net-(U1-Pad12)*%
X21590000Y-52070000D03*
%TO.P,U1,11*%
%TO.N,Net-(U1-Pad11)*%
X24130000Y-52070000D03*
%TO.P,U1,10*%
%TO.N,GND*%
X26670000Y-52070000D03*
%TO.P,U1,9*%
%TO.N,5V*%
X29210000Y-52070000D03*
%TO.P,U1,8*%
%TO.N,Net-(U1-Pad8)*%
X29210000Y-74930000D03*
%TO.P,U1,7*%
%TO.N,Net-(U1-Pad7)*%
X26670000Y-74930000D03*
%TO.P,U1,6*%
%TO.N,Net-(U1-Pad6)*%
X24130000Y-74930000D03*
%TO.P,U1,5*%
%TO.N,B_PWM*%
X21590000Y-74930000D03*
%TO.P,U1,4*%
%TO.N,W_PWM*%
X19050000Y-74930000D03*
%TO.P,U1,3*%
%TO.N,Net-(U1-Pad3)*%
X16510000Y-74930000D03*
D17*
%TO.P,U1,1*%
%TO.N,Net-(U1-Pad1)*%
X11430000Y-74930000D03*
D16*
%TO.P,U1,2*%
%TO.N,Net-(U1-Pad2)*%
X13970000Y-74930000D03*
%TD*%
%TO.P,J3,1*%
%TO.N,GND*%
%TA.AperFunction,ComponentPad*%
G36*
G01*
X55010000Y-79640000D02*
X55010000Y-77840000D01*
G75*
G02*
X55260000Y-77590000I250000J0D01*
G01*
X57060000Y-77590000D01*
G75*
G02*
X57310000Y-77840000I0J-250000D01*
G01*
X57310000Y-79640000D01*
G75*
G02*
X57060000Y-79890000I-250000J0D01*
G01*
X55260000Y-79890000D01*
G75*
G02*
X55010000Y-79640000I0J250000D01*
G01*
G37*
%TD.AperFunction*%
D18*
%TO.P,J3,2*%
%TO.N,Net-(J3-Pad2)*%
X60960000Y-78740000D03*
%TD*%
%TO.P,J2,2*%
%TO.N,Net-(F1-Pad1)*%
X71120000Y-50800000D03*
%TO.P,J2,1*%
%TO.N,24V*%
%TA.AperFunction,ComponentPad*%
G36*
G01*
X72020000Y-56750000D02*
X70220000Y-56750000D01*
G75*
G02*
X69970000Y-56500000I0J250000D01*
G01*
X69970000Y-54700000D01*
G75*
G02*
X70220000Y-54450000I250000J0D01*
G01*
X72020000Y-54450000D01*
G75*
G02*
X72270000Y-54700000I0J-250000D01*
G01*
X72270000Y-56500000D01*
G75*
G02*
X72020000Y-56750000I-250000J0D01*
G01*
G37*
%TD.AperFunction*%
%TD*%
%TO.P,J1,2*%
%TO.N,Net-(F1-Pad2)*%
X31750000Y-46990000D03*
%TO.P,J1,1*%
%TO.N,GND*%
%TA.AperFunction,ComponentPad*%
G36*
G01*
X25800000Y-47890000D02*
X25800000Y-46090000D01*
G75*
G02*
X26050000Y-45840000I250000J0D01*
G01*
X27850000Y-45840000D01*
G75*
G02*
X28100000Y-46090000I0J-250000D01*
G01*
X28100000Y-47890000D01*
G75*
G02*
X27850000Y-48140000I-250000J0D01*
G01*
X26050000Y-48140000D01*
G75*
G02*
X25800000Y-47890000I0J250000D01*
G01*
G37*
%TD.AperFunction*%
%TD*%
D19*
%TO.P,F1,2*%
%TO.N,Net-(F1-Pad2)*%
X44710000Y-49530000D03*
%TO.P,F1,1*%
%TO.N,Net-(F1-Pad1)*%
X67310000Y-49530000D03*
%TD*%
D12*
%TO.P,D1,8*%
%TO.N,W-*%
X71120000Y-60960000D03*
%TO.P,D1,7*%
%TO.N,W+*%
X71120000Y-63500000D03*
%TO.P,D1,6*%
%TO.N,B-*%
X71120000Y-66040000D03*
%TO.P,D1,5*%
%TO.N,B+*%
X71120000Y-68580000D03*
%TO.P,D1,4*%
%TO.N,G-*%
X71120000Y-71120000D03*
%TO.P,D1,3*%
%TO.N,G+*%
X71120000Y-73660000D03*
%TO.P,D1,2*%
%TO.N,R-*%
X71120000Y-76200000D03*
D13*
%TO.P,D1,1*%
%TO.N,R+*%
X71120000Y-78740000D03*
%TD*%
D20*
%TO.N,*%
X74930000Y-46990000D03*
X74930000Y-113030000D03*
X13970000Y-113030000D03*
X13970000Y-46990000D03*
D21*
%TO.N,GND*%
X45720000Y-96520000D03*
X19050000Y-68580000D03*
X29210000Y-82550000D03*
X21590000Y-86360000D03*
X50800000Y-90170000D03*
%TO.N,24V*%
X43180000Y-101600000D03*
%TO.N,R_PWM*%
X49530000Y-82550000D03*
%TO.N,G_PWM*%
X48260000Y-83820000D03*
%TD*%
D22*
%TO.N,W+*%
X17780000Y-91440000D02*
X30480000Y-91440000D01*
X34320001Y-87599999D02*
X48290001Y-87599999D01*
X30480000Y-91440000D02*
X34320001Y-87599999D01*
X48290001Y-87599999D02*
X50800000Y-85090000D01*
X62230000Y-85090000D02*
X64639980Y-82680020D01*
X50800000Y-85090000D02*
X62230000Y-85090000D01*
X64639980Y-69980020D02*
X71120000Y-63500000D01*
X64639980Y-82680020D02*
X64639980Y-69980020D01*
%TO.N,W-*%
X17780000Y-88900000D02*
X31750000Y-88900000D01*
X31750000Y-88900000D02*
X34290000Y-86360000D01*
X34290000Y-86360000D02*
X48260000Y-86360000D01*
X48260000Y-86360000D02*
X50800000Y-83820000D01*
X50800000Y-83820000D02*
X60960000Y-83820000D01*
X60960000Y-83820000D02*
X63500000Y-81280000D01*
X63500000Y-68580000D02*
X71120000Y-60960000D01*
X63500000Y-81280000D02*
X63500000Y-68580000D01*
%TO.N,B+*%
X35560000Y-91440000D02*
X46990000Y-91440000D01*
X50830001Y-87599999D02*
X64800001Y-87599999D01*
X46990000Y-91440000D02*
X50830001Y-87599999D01*
X64800001Y-87599999D02*
X66040000Y-86360000D01*
X66040000Y-73660000D02*
X71120000Y-68580000D01*
X66040000Y-86360000D02*
X66040000Y-73660000D01*
%TO.N,B-*%
X35560000Y-88900000D02*
X48260000Y-88900000D01*
X48260000Y-88900000D02*
X50800000Y-86360000D01*
X50800000Y-86360000D02*
X63500000Y-86360000D01*
X65339990Y-71820010D02*
X71120000Y-66040000D01*
X65339990Y-84520010D02*
X65339990Y-71820010D01*
X63500000Y-86360000D02*
X65339990Y-84520010D01*
%TO.N,G+*%
X68580000Y-76200000D02*
X71120000Y-73660000D01*
X68580000Y-88900000D02*
X68580000Y-76200000D01*
X66040000Y-91440000D02*
X68580000Y-88900000D01*
X53340000Y-91440000D02*
X66040000Y-91440000D01*
%TO.N,G-*%
X67310000Y-74930000D02*
X71120000Y-71120000D01*
X67310000Y-86360000D02*
X67310000Y-74930000D01*
X64770000Y-88900000D02*
X67310000Y-86360000D01*
X53340000Y-88900000D02*
X64770000Y-88900000D01*
%TO.N,R+*%
X72420001Y-80040001D02*
X71120000Y-78740000D01*
X72420001Y-90139999D02*
X72420001Y-80040001D01*
X71120000Y-91440000D02*
X72420001Y-90139999D01*
%TO.N,R-*%
X69819999Y-77500001D02*
X71120000Y-76200000D01*
X69819999Y-87599999D02*
X69819999Y-77500001D01*
X71120000Y-88900000D02*
X69819999Y-87599999D01*
%TO.N,Net-(F1-Pad2)*%
X34290000Y-49530000D02*
X31750000Y-46990000D01*
X44710000Y-49530000D02*
X34290000Y-49530000D01*
%TO.N,Net-(F1-Pad1)*%
X68580000Y-50800000D02*
X67310000Y-49530000D01*
X71120000Y-50800000D02*
X68580000Y-50800000D01*
%TO.N,GND*%
X71120000Y-96520000D02*
X45720000Y-96520000D01*
X17780000Y-96520000D02*
X17780000Y-99060000D01*
X35560000Y-96520000D02*
X35560000Y-99060000D01*
X53340000Y-96520000D02*
X53340000Y-99060000D01*
X71120000Y-96520000D02*
X71120000Y-99060000D01*
X45720000Y-78740000D02*
X45720000Y-80010000D01*
X47409999Y-81699999D02*
X54190001Y-81699999D01*
X45720000Y-80010000D02*
X47409999Y-81699999D01*
X56160000Y-79730000D02*
X56160000Y-78740000D01*
X54190001Y-81699999D02*
X56160000Y-79730000D01*
X45720000Y-78740000D02*
X45720000Y-73660000D01*
X45720000Y-73660000D02*
X34290000Y-62230000D01*
X34290000Y-62230000D02*
X34290000Y-58700037D01*
X29109973Y-53520010D02*
X28120010Y-53520010D01*
X34290000Y-58700037D02*
X29109973Y-53520010D01*
X28120010Y-53520010D02*
X26670000Y-52070000D01*
X26950000Y-51790000D02*
X26670000Y-52070000D01*
X26950000Y-46990000D02*
X26950000Y-51790000D01*
X45720000Y-96520000D02*
X17780000Y-96520000D01*
X71120000Y-99060000D02*
X53340000Y-99060000D01*
X48260000Y-99060000D02*
X45720000Y-96520000D01*
X53340000Y-99060000D02*
X48260000Y-99060000D01*
X43180000Y-99060000D02*
X45720000Y-96520000D01*
X35560000Y-99060000D02*
X43180000Y-99060000D01*
X35560000Y-99060000D02*
X17780000Y-99060000D01*
%TO.N,24V*%
X17780000Y-101600000D02*
X71120000Y-101600000D01*
X71120000Y-101600000D02*
X71120000Y-104140000D01*
X53340000Y-101600000D02*
X53340000Y-104140000D01*
X35560000Y-104140000D02*
X35560000Y-101600000D01*
X17780000Y-104140000D02*
X17780000Y-101600000D01*
X71120000Y-104140000D02*
X53340000Y-104140000D01*
X35560000Y-104140000D02*
X17780000Y-104140000D01*
X35560000Y-104140000D02*
X40640000Y-104140000D01*
X40640000Y-104140000D02*
X43180000Y-101600000D01*
X53340000Y-104140000D02*
X45720000Y-104140000D01*
X45720000Y-104140000D02*
X43180000Y-101600000D01*
%TO.N,Net-(J3-Pad2)*%
X59690000Y-77470000D02*
X60960000Y-78740000D01*
X59690000Y-73660000D02*
X59690000Y-77470000D01*
%TO.N,5V*%
X35560000Y-58420000D02*
X29210000Y-52070000D01*
X35560000Y-62230000D02*
X35560000Y-58420000D01*
X48260000Y-74930000D02*
X35560000Y-62230000D01*
X48260000Y-78740000D02*
X48260000Y-74930000D01*
X48260000Y-74930000D02*
X59690000Y-63500000D01*
%TO.N,R_PWM*%
X19050000Y-52070000D02*
X21590000Y-54610000D01*
X21590000Y-54610000D02*
X29210000Y-54610000D01*
X29210000Y-54610000D02*
X31750000Y-57150000D01*
X31750000Y-57150000D02*
X31750000Y-80010000D01*
X31750000Y-80010000D02*
X34290000Y-82550000D01*
X34290000Y-82550000D02*
X44450000Y-82550000D01*
X44450000Y-82550000D02*
X48260000Y-82550000D01*
X48260000Y-82550000D02*
X49530000Y-82550000D01*
%TO.N,G_PWM*%
X16510000Y-52070000D02*
X20320000Y-55880000D01*
X20320000Y-55880000D02*
X27940000Y-55880000D01*
X27940000Y-55880000D02*
X30480000Y-58420000D01*
X30480000Y-58420000D02*
X30480000Y-80010000D01*
X34290000Y-83820000D02*
X48260000Y-83820000D01*
X30480000Y-80010000D02*
X34290000Y-83820000D01*
%TO.N,W_PWM*%
X15240000Y-87630000D02*
X15240000Y-91440000D01*
X15240000Y-91440000D02*
X17780000Y-93980000D01*
X19050000Y-83820000D02*
X15240000Y-87630000D01*
X19050000Y-74930000D02*
X19050000Y-83820000D01*
%TD*%
D23*
%TO.N,GND*%
X11923262Y-45310285D02*
X11634893Y-45741859D01*
X11436261Y-46221399D01*
X11335000Y-46730475D01*
X11335000Y-47249525D01*
X11436261Y-47758601D01*
X11634893Y-48238141D01*
X11923262Y-48669715D01*
X12290285Y-49036738D01*
X12721859Y-49325107D01*
X13201399Y-49523739D01*
X13710475Y-49625000D01*
X14229525Y-49625000D01*
X14738601Y-49523739D01*
X15218141Y-49325107D01*
X15649715Y-49036738D01*
X16016738Y-48669715D01*
X16305107Y-48238141D01*
X16345758Y-48140000D01*
X25161928Y-48140000D01*
X25174188Y-48264482D01*
X25210498Y-48384180D01*
X25269463Y-48494494D01*
X25348815Y-48591185D01*
X25445506Y-48670537D01*
X25555820Y-48729502D01*
X25675518Y-48765812D01*
X25800000Y-48778072D01*
X26664250Y-48775000D01*
X26823000Y-48616250D01*
X26823000Y-47117000D01*
X27077000Y-47117000D01*
X27077000Y-48616250D01*
X27235750Y-48775000D01*
X28100000Y-48778072D01*
X28224482Y-48765812D01*
X28344180Y-48729502D01*
X28454494Y-48670537D01*
X28551185Y-48591185D01*
X28630537Y-48494494D01*
X28689502Y-48384180D01*
X28725812Y-48264482D01*
X28738072Y-48140000D01*
X28735000Y-47275750D01*
X28576250Y-47117000D01*
X27077000Y-47117000D01*
X26823000Y-47117000D01*
X25323750Y-47117000D01*
X25165000Y-47275750D01*
X25161928Y-48140000D01*
X16345758Y-48140000D01*
X16503739Y-47758601D01*
X16605000Y-47249525D01*
X16605000Y-46730475D01*
X16503739Y-46221399D01*
X16345759Y-45840000D01*
X25161928Y-45840000D01*
X25165000Y-46704250D01*
X25323750Y-46863000D01*
X26823000Y-46863000D01*
X26823000Y-45363750D01*
X27077000Y-45363750D01*
X27077000Y-46863000D01*
X28576250Y-46863000D01*
X28625057Y-46814193D01*
X29965000Y-46814193D01*
X29965000Y-47165807D01*
X30033596Y-47510665D01*
X30168153Y-47835515D01*
X30363500Y-48127871D01*
X30612129Y-48376500D01*
X30904485Y-48571847D01*
X31229335Y-48706404D01*
X31574193Y-48775000D01*
X31925807Y-48775000D01*
X32224090Y-48715668D01*
X33633470Y-50125049D01*
X33661183Y-50158817D01*
X33694951Y-50186530D01*
X33694953Y-50186532D01*
X33717399Y-50204953D01*
X33795941Y-50269411D01*
X33949687Y-50351589D01*
X34116510Y-50402195D01*
X34246523Y-50415000D01*
X34246533Y-50415000D01*
X34289999Y-50419281D01*
X34333465Y-50415000D01*
X42765672Y-50415000D01*
X42817988Y-50541302D01*
X43051637Y-50890983D01*
X43349017Y-51188363D01*
X43698698Y-51422012D01*
X44087244Y-51582953D01*
X44499721Y-51665000D01*
X44920279Y-51665000D01*
X45332756Y-51582953D01*
X45721302Y-51422012D01*
X46070983Y-51188363D01*
X46368363Y-50890983D01*
X46602012Y-50541302D01*
X46762953Y-50152756D01*
X46845000Y-49740279D01*
X46845000Y-49319721D01*
X65175000Y-49319721D01*
X65175000Y-49740279D01*
X65257047Y-50152756D01*
X65417988Y-50541302D01*
X65651637Y-50890983D01*
X65949017Y-51188363D01*
X66298698Y-51422012D01*
X66687244Y-51582953D01*
X67099721Y-51665000D01*
X67520279Y-51665000D01*
X67932756Y-51582953D01*
X68069819Y-51526180D01*
X68085941Y-51539411D01*
X68239687Y-51621589D01*
X68406510Y-51672195D01*
X68536523Y-51685000D01*
X68536533Y-51685000D01*
X68579999Y-51689281D01*
X68623465Y-51685000D01*
X69564536Y-51685000D01*
X69733500Y-51937871D01*
X69982129Y-52186500D01*
X70274485Y-52381847D01*
X70599335Y-52516404D01*
X70944193Y-52585000D01*
X71295807Y-52585000D01*
X71640665Y-52516404D01*
X71965515Y-52381847D01*
X72257871Y-52186500D01*
X72506500Y-51937871D01*
X72701847Y-51645515D01*
X72836404Y-51320665D01*
X72905000Y-50975807D01*
X72905000Y-50624193D01*
X72836404Y-50279335D01*
X72701847Y-49954485D01*
X72506500Y-49662129D01*
X72257871Y-49413500D01*
X71965515Y-49218153D01*
X71640665Y-49083596D01*
X71295807Y-49015000D01*
X70944193Y-49015000D01*
X70599335Y-49083596D01*
X70274485Y-49218153D01*
X69982129Y-49413500D01*
X69733500Y-49662129D01*
X69564536Y-49915000D01*
X69410246Y-49915000D01*
X69445000Y-49740279D01*
X69445000Y-49319721D01*
X69362953Y-48907244D01*
X69202012Y-48518698D01*
X68968363Y-48169017D01*
X68670983Y-47871637D01*
X68321302Y-47637988D01*
X67932756Y-47477047D01*
X67520279Y-47395000D01*
X67099721Y-47395000D01*
X66687244Y-47477047D01*
X66298698Y-47637988D01*
X65949017Y-47871637D01*
X65651637Y-48169017D01*
X65417988Y-48518698D01*
X65257047Y-48907244D01*
X65175000Y-49319721D01*
X46845000Y-49319721D01*
X46762953Y-48907244D01*
X46602012Y-48518698D01*
X46368363Y-48169017D01*
X46070983Y-47871637D01*
X45721302Y-47637988D01*
X45332756Y-47477047D01*
X44920279Y-47395000D01*
X44499721Y-47395000D01*
X44087244Y-47477047D01*
X43698698Y-47637988D01*
X43349017Y-47871637D01*
X43051637Y-48169017D01*
X42817988Y-48518698D01*
X42765672Y-48645000D01*
X34656579Y-48645000D01*
X33475668Y-47464090D01*
X33535000Y-47165807D01*
X33535000Y-46814193D01*
X33466404Y-46469335D01*
X33331847Y-46144485D01*
X33136500Y-45852129D01*
X32887871Y-45603500D01*
X32595515Y-45408153D01*
X32270665Y-45273596D01*
X31925807Y-45205000D01*
X31574193Y-45205000D01*
X31229335Y-45273596D01*
X30904485Y-45408153D01*
X30612129Y-45603500D01*
X30363500Y-45852129D01*
X30168153Y-46144485D01*
X30033596Y-46469335D01*
X29965000Y-46814193D01*
X28625057Y-46814193D01*
X28735000Y-46704250D01*
X28738072Y-45840000D01*
X28725812Y-45715518D01*
X28689502Y-45595820D01*
X28630537Y-45485506D01*
X28551185Y-45388815D01*
X28454494Y-45309463D01*
X28344180Y-45250498D01*
X28224482Y-45214188D01*
X28100000Y-45201928D01*
X27235750Y-45205000D01*
X27077000Y-45363750D01*
X26823000Y-45363750D01*
X26664250Y-45205000D01*
X25800000Y-45201928D01*
X25675518Y-45214188D01*
X25555820Y-45250498D01*
X25445506Y-45309463D01*
X25348815Y-45388815D01*
X25269463Y-45485506D01*
X25210498Y-45595820D01*
X25174188Y-45715518D01*
X25161928Y-45840000D01*
X16345759Y-45840000D01*
X16305107Y-45741859D01*
X16016738Y-45310285D01*
X15866453Y-45160000D01*
X73033547Y-45160000D01*
X72883262Y-45310285D01*
X72594893Y-45741859D01*
X72396261Y-46221399D01*
X72295000Y-46730475D01*
X72295000Y-47249525D01*
X72396261Y-47758601D01*
X72594893Y-48238141D01*
X72883262Y-48669715D01*
X73250285Y-49036738D01*
X73681859Y-49325107D01*
X74161399Y-49523739D01*
X74670475Y-49625000D01*
X75189525Y-49625000D01*
X75698601Y-49523739D01*
X76178141Y-49325107D01*
X76609715Y-49036738D01*
X76760000Y-48886453D01*
X76760001Y-111133548D01*
X76609715Y-110983262D01*
X76178141Y-110694893D01*
X75698601Y-110496261D01*
X75189525Y-110395000D01*
X74670475Y-110395000D01*
X74161399Y-110496261D01*
X73681859Y-110694893D01*
X73250285Y-110983262D01*
X72883262Y-111350285D01*
X72594893Y-111781859D01*
X72396261Y-112261399D01*
X72295000Y-112770475D01*
X72295000Y-113289525D01*
X72396261Y-113798601D01*
X72594893Y-114278141D01*
X72883262Y-114709715D01*
X73033547Y-114860000D01*
X15866453Y-114860000D01*
X16016738Y-114709715D01*
X16305107Y-114278141D01*
X16503739Y-113798601D01*
X16605000Y-113289525D01*
X16605000Y-112770475D01*
X16503739Y-112261399D01*
X16305107Y-111781859D01*
X16016738Y-111350285D01*
X15649715Y-110983262D01*
X15218141Y-110694893D01*
X14738601Y-110496261D01*
X14229525Y-110395000D01*
X13710475Y-110395000D01*
X13201399Y-110496261D01*
X12721859Y-110694893D01*
X12290285Y-110983262D01*
X11923262Y-111350285D01*
X11634893Y-111781859D01*
X11436261Y-112261399D01*
X11335000Y-112770475D01*
X11335000Y-113289525D01*
X11436261Y-113798601D01*
X11634893Y-114278141D01*
X11923262Y-114709715D01*
X12073547Y-114860000D01*
X10870000Y-114860000D01*
X10870000Y-103290000D01*
X16291928Y-103290000D01*
X16291928Y-104990000D01*
X16304188Y-105114482D01*
X16340498Y-105234180D01*
X16399463Y-105344494D01*
X16478815Y-105441185D01*
X16575506Y-105520537D01*
X16685820Y-105579502D01*
X16805518Y-105615812D01*
X16930000Y-105628072D01*
X18630000Y-105628072D01*
X18754482Y-105615812D01*
X18874180Y-105579502D01*
X18984494Y-105520537D01*
X19081185Y-105441185D01*
X19160537Y-105344494D01*
X19219502Y-105234180D01*
X19255812Y-105114482D01*
X19264625Y-105025000D01*
X34075375Y-105025000D01*
X34084188Y-105114482D01*
X34120498Y-105234180D01*
X34179463Y-105344494D01*
X34258815Y-105441185D01*
X34355506Y-105520537D01*
X34465820Y-105579502D01*
X34585518Y-105615812D01*
X34710000Y-105628072D01*
X36410000Y-105628072D01*
X36534482Y-105615812D01*
X36654180Y-105579502D01*
X36764494Y-105520537D01*
X36861185Y-105441185D01*
X36940537Y-105344494D01*
X36999502Y-105234180D01*
X37035812Y-105114482D01*
X37044625Y-105025000D01*
X40596531Y-105025000D01*
X40640000Y-105029281D01*
X40683469Y-105025000D01*
X40683477Y-105025000D01*
X40813490Y-105012195D01*
X40980313Y-104961589D01*
X41134059Y-104879411D01*
X41268817Y-104768817D01*
X41296534Y-104735044D01*
X43180000Y-102851579D01*
X45063470Y-104735049D01*
X45091183Y-104768817D01*
X45124951Y-104796530D01*
X45124953Y-104796532D01*
X45196452Y-104855210D01*
X45225941Y-104879411D01*
X45379687Y-104961589D01*
X45546510Y-105012195D01*
X45676523Y-105025000D01*
X45676533Y-105025000D01*
X45719999Y-105029281D01*
X45763465Y-105025000D01*
X51855375Y-105025000D01*
X51864188Y-105114482D01*
X51900498Y-105234180D01*
X51959463Y-105344494D01*
X52038815Y-105441185D01*
X52135506Y-105520537D01*
X52245820Y-105579502D01*
X52365518Y-105615812D01*
X52490000Y-105628072D01*
X54190000Y-105628072D01*
X54314482Y-105615812D01*
X54434180Y-105579502D01*
X54544494Y-105520537D01*
X54641185Y-105441185D01*
X54720537Y-105344494D01*
X54779502Y-105234180D01*
X54815812Y-105114482D01*
X54824625Y-105025000D01*
X69635375Y-105025000D01*
X69644188Y-105114482D01*
X69680498Y-105234180D01*
X69739463Y-105344494D01*
X69818815Y-105441185D01*
X69915506Y-105520537D01*
X70025820Y-105579502D01*
X70145518Y-105615812D01*
X70270000Y-105628072D01*
X71970000Y-105628072D01*
X72094482Y-105615812D01*
X72214180Y-105579502D01*
X72324494Y-105520537D01*
X72421185Y-105441185D01*
X72500537Y-105344494D01*
X72559502Y-105234180D01*
X72595812Y-105114482D01*
X72608072Y-104990000D01*
X72608072Y-103290000D01*
X72595812Y-103165518D01*
X72559502Y-103045820D01*
X72500537Y-102935506D01*
X72421185Y-102838815D01*
X72324494Y-102759463D01*
X72214180Y-102700498D01*
X72141620Y-102678487D01*
X72273475Y-102546632D01*
X72435990Y-102303411D01*
X72547932Y-102033158D01*
X72605000Y-101746260D01*
X72605000Y-101453740D01*
X72547932Y-101166842D01*
X72435990Y-100896589D01*
X72273475Y-100653368D01*
X72066632Y-100446525D01*
X71884466Y-100324805D01*
X72001355Y-100255178D01*
X72217588Y-100060269D01*
X72391641Y-99826920D01*
X72516825Y-99564099D01*
X72561476Y-99416890D01*
X72440155Y-99187000D01*
X71247000Y-99187000D01*
X71247000Y-99207000D01*
X70993000Y-99207000D01*
X70993000Y-99187000D01*
X69799845Y-99187000D01*
X69678524Y-99416890D01*
X69723175Y-99564099D01*
X69848359Y-99826920D01*
X70022412Y-100060269D01*
X70238645Y-100255178D01*
X70355534Y-100324805D01*
X70173368Y-100446525D01*
X69966525Y-100653368D01*
X69925344Y-100715000D01*
X54534656Y-100715000D01*
X54493475Y-100653368D01*
X54286632Y-100446525D01*
X54104466Y-100324805D01*
X54221355Y-100255178D01*
X54437588Y-100060269D01*
X54611641Y-99826920D01*
X54736825Y-99564099D01*
X54781476Y-99416890D01*
X54660155Y-99187000D01*
X53467000Y-99187000D01*
X53467000Y-99207000D01*
X53213000Y-99207000D01*
X53213000Y-99187000D01*
X52019845Y-99187000D01*
X51898524Y-99416890D01*
X51943175Y-99564099D01*
X52068359Y-99826920D01*
X52242412Y-100060269D01*
X52458645Y-100255178D01*
X52575534Y-100324805D01*
X52393368Y-100446525D01*
X52186525Y-100653368D01*
X52145344Y-100715000D01*
X43718454Y-100715000D01*
X43670256Y-100682795D01*
X43481898Y-100604774D01*
X43281939Y-100565000D01*
X43078061Y-100565000D01*
X42878102Y-100604774D01*
X42689744Y-100682795D01*
X42641546Y-100715000D01*
X36754656Y-100715000D01*
X36713475Y-100653368D01*
X36506632Y-100446525D01*
X36324466Y-100324805D01*
X36441355Y-100255178D01*
X36657588Y-100060269D01*
X36831641Y-99826920D01*
X36956825Y-99564099D01*
X37001476Y-99416890D01*
X36880155Y-99187000D01*
X35687000Y-99187000D01*
X35687000Y-99207000D01*
X35433000Y-99207000D01*
X35433000Y-99187000D01*
X34239845Y-99187000D01*
X34118524Y-99416890D01*
X34163175Y-99564099D01*
X34288359Y-99826920D01*
X34462412Y-100060269D01*
X34678645Y-100255178D01*
X34795534Y-100324805D01*
X34613368Y-100446525D01*
X34406525Y-100653368D01*
X34365344Y-100715000D01*
X18974656Y-100715000D01*
X18933475Y-100653368D01*
X18726632Y-100446525D01*
X18544466Y-100324805D01*
X18661355Y-100255178D01*
X18877588Y-100060269D01*
X19051641Y-99826920D01*
X19176825Y-99564099D01*
X19221476Y-99416890D01*
X19100155Y-99187000D01*
X17907000Y-99187000D01*
X17907000Y-99207000D01*
X17653000Y-99207000D01*
X17653000Y-99187000D01*
X16459845Y-99187000D01*
X16338524Y-99416890D01*
X16383175Y-99564099D01*
X16508359Y-99826920D01*
X16682412Y-100060269D01*
X16898645Y-100255178D01*
X17015534Y-100324805D01*
X16833368Y-100446525D01*
X16626525Y-100653368D01*
X16464010Y-100896589D01*
X16352068Y-101166842D01*
X16295000Y-101453740D01*
X16295000Y-101746260D01*
X16352068Y-102033158D01*
X16464010Y-102303411D01*
X16626525Y-102546632D01*
X16758380Y-102678487D01*
X16685820Y-102700498D01*
X16575506Y-102759463D01*
X16478815Y-102838815D01*
X16399463Y-102935506D01*
X16340498Y-103045820D01*
X16304188Y-103165518D01*
X16291928Y-103290000D01*
X10870000Y-103290000D01*
X10870000Y-96876890D01*
X16338524Y-96876890D01*
X16383175Y-97024099D01*
X16508359Y-97286920D01*
X16682412Y-97520269D01*
X16898645Y-97715178D01*
X17024255Y-97790000D01*
X16898645Y-97864822D01*
X16682412Y-98059731D01*
X16508359Y-98293080D01*
X16383175Y-98555901D01*
X16338524Y-98703110D01*
X16459845Y-98933000D01*
X17653000Y-98933000D01*
X17653000Y-96647000D01*
X17907000Y-96647000D01*
X17907000Y-98933000D01*
X19100155Y-98933000D01*
X19221476Y-98703110D01*
X19176825Y-98555901D01*
X19051641Y-98293080D01*
X18877588Y-98059731D01*
X18661355Y-97864822D01*
X18535745Y-97790000D01*
X18661355Y-97715178D01*
X18877588Y-97520269D01*
X19051641Y-97286920D01*
X19176825Y-97024099D01*
X19221476Y-96876890D01*
X34118524Y-96876890D01*
X34163175Y-97024099D01*
X34288359Y-97286920D01*
X34462412Y-97520269D01*
X34678645Y-97715178D01*
X34804255Y-97790000D01*
X34678645Y-97864822D01*
X34462412Y-98059731D01*
X34288359Y-98293080D01*
X34163175Y-98555901D01*
X34118524Y-98703110D01*
X34239845Y-98933000D01*
X35433000Y-98933000D01*
X35433000Y-96647000D01*
X35687000Y-96647000D01*
X35687000Y-98933000D01*
X36880155Y-98933000D01*
X37001476Y-98703110D01*
X36956825Y-98555901D01*
X36831641Y-98293080D01*
X36657588Y-98059731D01*
X36441355Y-97864822D01*
X36315745Y-97790000D01*
X36441355Y-97715178D01*
X36657588Y-97520269D01*
X36831641Y-97286920D01*
X36956825Y-97024099D01*
X37001476Y-96876890D01*
X51898524Y-96876890D01*
X51943175Y-97024099D01*
X52068359Y-97286920D01*
X52242412Y-97520269D01*
X52458645Y-97715178D01*
X52584255Y-97790000D01*
X52458645Y-97864822D01*
X52242412Y-98059731D01*
X52068359Y-98293080D01*
X51943175Y-98555901D01*
X51898524Y-98703110D01*
X52019845Y-98933000D01*
X53213000Y-98933000D01*
X53213000Y-96647000D01*
X53467000Y-96647000D01*
X53467000Y-98933000D01*
X54660155Y-98933000D01*
X54781476Y-98703110D01*
X54736825Y-98555901D01*
X54611641Y-98293080D01*
X54437588Y-98059731D01*
X54221355Y-97864822D01*
X54095745Y-97790000D01*
X54221355Y-97715178D01*
X54437588Y-97520269D01*
X54611641Y-97286920D01*
X54736825Y-97024099D01*
X54781476Y-96876890D01*
X69678524Y-96876890D01*
X69723175Y-97024099D01*
X69848359Y-97286920D01*
X70022412Y-97520269D01*
X70238645Y-97715178D01*
X70364255Y-97790000D01*
X70238645Y-97864822D01*
X70022412Y-98059731D01*
X69848359Y-98293080D01*
X69723175Y-98555901D01*
X69678524Y-98703110D01*
X69799845Y-98933000D01*
X70993000Y-98933000D01*
X70993000Y-96647000D01*
X71247000Y-96647000D01*
X71247000Y-98933000D01*
X72440155Y-98933000D01*
X72561476Y-98703110D01*
X72516825Y-98555901D01*
X72391641Y-98293080D01*
X72217588Y-98059731D01*
X72001355Y-97864822D01*
X71875745Y-97790000D01*
X72001355Y-97715178D01*
X72217588Y-97520269D01*
X72391641Y-97286920D01*
X72516825Y-97024099D01*
X72561476Y-96876890D01*
X72440155Y-96647000D01*
X71247000Y-96647000D01*
X70993000Y-96647000D01*
X69799845Y-96647000D01*
X69678524Y-96876890D01*
X54781476Y-96876890D01*
X54660155Y-96647000D01*
X53467000Y-96647000D01*
X53213000Y-96647000D01*
X52019845Y-96647000D01*
X51898524Y-96876890D01*
X37001476Y-96876890D01*
X36880155Y-96647000D01*
X35687000Y-96647000D01*
X35433000Y-96647000D01*
X34239845Y-96647000D01*
X34118524Y-96876890D01*
X19221476Y-96876890D01*
X19100155Y-96647000D01*
X17907000Y-96647000D01*
X17653000Y-96647000D01*
X16459845Y-96647000D01*
X16338524Y-96876890D01*
X10870000Y-96876890D01*
X10870000Y-76568072D01*
X12430000Y-76568072D01*
X12554482Y-76555812D01*
X12674180Y-76519502D01*
X12784494Y-76460537D01*
X12881185Y-76381185D01*
X12960537Y-76284494D01*
X13007559Y-76196523D01*
X13168900Y-76328932D01*
X13418193Y-76462182D01*
X13688692Y-76544236D01*
X13970000Y-76571943D01*
X14251309Y-76544236D01*
X14521808Y-76462182D01*
X14771101Y-76328932D01*
X14989608Y-76149608D01*
X15168932Y-75931101D01*
X15240000Y-75798142D01*
X15311068Y-75931101D01*
X15490393Y-76149608D01*
X15708900Y-76328932D01*
X15958193Y-76462182D01*
X16228692Y-76544236D01*
X16510000Y-76571943D01*
X16791309Y-76544236D01*
X17061808Y-76462182D01*
X17311101Y-76328932D01*
X17529608Y-76149608D01*
X17708932Y-75931101D01*
X17780000Y-75798142D01*
X17851068Y-75931101D01*
X18030393Y-76149608D01*
X18165000Y-76260077D01*
X18165001Y-83453420D01*
X14644956Y-86973466D01*
X14611183Y-87001183D01*
X14500589Y-87135942D01*
X14418411Y-87289688D01*
X14367805Y-87456511D01*
X14355000Y-87586524D01*
X14355000Y-87586531D01*
X14350719Y-87630000D01*
X14355000Y-87673469D01*
X14355001Y-91396521D01*
X14350719Y-91440000D01*
X14367805Y-91613490D01*
X14418412Y-91780313D01*
X14500590Y-91934059D01*
X14583468Y-92035046D01*
X14583471Y-92035049D01*
X14611184Y-92068817D01*
X14644951Y-92096529D01*
X16309461Y-93761040D01*
X16295000Y-93833740D01*
X16295000Y-94126260D01*
X16352068Y-94413158D01*
X16464010Y-94683411D01*
X16626525Y-94926632D01*
X16833368Y-95133475D01*
X17015534Y-95255195D01*
X16898645Y-95324822D01*
X16682412Y-95519731D01*
X16508359Y-95753080D01*
X16383175Y-96015901D01*
X16338524Y-96163110D01*
X16459845Y-96393000D01*
X17653000Y-96393000D01*
X17653000Y-96373000D01*
X17907000Y-96373000D01*
X17907000Y-96393000D01*
X19100155Y-96393000D01*
X19221476Y-96163110D01*
X19176825Y-96015901D01*
X19051641Y-95753080D01*
X18877588Y-95519731D01*
X18661355Y-95324822D01*
X18544466Y-95255195D01*
X18726632Y-95133475D01*
X18933475Y-94926632D01*
X19095990Y-94683411D01*
X19207932Y-94413158D01*
X19265000Y-94126260D01*
X19265000Y-93833740D01*
X19207932Y-93546842D01*
X19095990Y-93276589D01*
X18933475Y-93033368D01*
X18726632Y-92826525D01*
X18552240Y-92710000D01*
X18726632Y-92593475D01*
X18933475Y-92386632D01*
X18974656Y-92325000D01*
X30436531Y-92325000D01*
X30480000Y-92329281D01*
X30523469Y-92325000D01*
X30523477Y-92325000D01*
X30653490Y-92312195D01*
X30820313Y-92261589D01*
X30974059Y-92179411D01*
X31108817Y-92068817D01*
X31136534Y-92035044D01*
X34083348Y-89088230D01*
X34132068Y-89333158D01*
X34244010Y-89603411D01*
X34406525Y-89846632D01*
X34613368Y-90053475D01*
X34787760Y-90170000D01*
X34613368Y-90286525D01*
X34406525Y-90493368D01*
X34244010Y-90736589D01*
X34132068Y-91006842D01*
X34075000Y-91293740D01*
X34075000Y-91586260D01*
X34132068Y-91873158D01*
X34244010Y-92143411D01*
X34406525Y-92386632D01*
X34613368Y-92593475D01*
X34787760Y-92710000D01*
X34613368Y-92826525D01*
X34406525Y-93033368D01*
X34244010Y-93276589D01*
X34132068Y-93546842D01*
X34075000Y-93833740D01*
X34075000Y-94126260D01*
X34132068Y-94413158D01*
X34244010Y-94683411D01*
X34406525Y-94926632D01*
X34613368Y-95133475D01*
X34795534Y-95255195D01*
X34678645Y-95324822D01*
X34462412Y-95519731D01*
X34288359Y-95753080D01*
X34163175Y-96015901D01*
X34118524Y-96163110D01*
X34239845Y-96393000D01*
X35433000Y-96393000D01*
X35433000Y-96373000D01*
X35687000Y-96373000D01*
X35687000Y-96393000D01*
X36880155Y-96393000D01*
X37001476Y-96163110D01*
X36956825Y-96015901D01*
X36831641Y-95753080D01*
X36657588Y-95519731D01*
X36441355Y-95324822D01*
X36324466Y-95255195D01*
X36506632Y-95133475D01*
X36713475Y-94926632D01*
X36875990Y-94683411D01*
X36987932Y-94413158D01*
X37045000Y-94126260D01*
X37045000Y-93833740D01*
X36987932Y-93546842D01*
X36875990Y-93276589D01*
X36713475Y-93033368D01*
X36506632Y-92826525D01*
X36332240Y-92710000D01*
X36506632Y-92593475D01*
X36713475Y-92386632D01*
X36754656Y-92325000D01*
X46946531Y-92325000D01*
X46990000Y-92329281D01*
X47033469Y-92325000D01*
X47033477Y-92325000D01*
X47163490Y-92312195D01*
X47330313Y-92261589D01*
X47484059Y-92179411D01*
X47618817Y-92068817D01*
X47646534Y-92035044D01*
X51196580Y-88484999D01*
X51908456Y-88484999D01*
X51855000Y-88753740D01*
X51855000Y-89046260D01*
X51912068Y-89333158D01*
X52024010Y-89603411D01*
X52186525Y-89846632D01*
X52393368Y-90053475D01*
X52567760Y-90170000D01*
X52393368Y-90286525D01*
X52186525Y-90493368D01*
X52024010Y-90736589D01*
X51912068Y-91006842D01*
X51855000Y-91293740D01*
X51855000Y-91586260D01*
X51912068Y-91873158D01*
X52024010Y-92143411D01*
X52186525Y-92386632D01*
X52393368Y-92593475D01*
X52567760Y-92710000D01*
X52393368Y-92826525D01*
X52186525Y-93033368D01*
X52024010Y-93276589D01*
X51912068Y-93546842D01*
X51855000Y-93833740D01*
X51855000Y-94126260D01*
X51912068Y-94413158D01*
X52024010Y-94683411D01*
X52186525Y-94926632D01*
X52393368Y-95133475D01*
X52575534Y-95255195D01*
X52458645Y-95324822D01*
X52242412Y-95519731D01*
X52068359Y-95753080D01*
X51943175Y-96015901D01*
X51898524Y-96163110D01*
X52019845Y-96393000D01*
X53213000Y-96393000D01*
X53213000Y-96373000D01*
X53467000Y-96373000D01*
X53467000Y-96393000D01*
X54660155Y-96393000D01*
X54781476Y-96163110D01*
X54736825Y-96015901D01*
X54611641Y-95753080D01*
X54437588Y-95519731D01*
X54221355Y-95324822D01*
X54104466Y-95255195D01*
X54286632Y-95133475D01*
X54493475Y-94926632D01*
X54655990Y-94683411D01*
X54767932Y-94413158D01*
X54825000Y-94126260D01*
X54825000Y-93833740D01*
X54767932Y-93546842D01*
X54655990Y-93276589D01*
X54493475Y-93033368D01*
X54286632Y-92826525D01*
X54112240Y-92710000D01*
X54286632Y-92593475D01*
X54493475Y-92386632D01*
X54534656Y-92325000D01*
X65996531Y-92325000D01*
X66040000Y-92329281D01*
X66083469Y-92325000D01*
X66083477Y-92325000D01*
X66213490Y-92312195D01*
X66380313Y-92261589D01*
X66534059Y-92179411D01*
X66668817Y-92068817D01*
X66696534Y-92035044D01*
X69175050Y-89556529D01*
X69208817Y-89528817D01*
X69319411Y-89394059D01*
X69401589Y-89240313D01*
X69452195Y-89073490D01*
X69465000Y-88943477D01*
X69465000Y-88943467D01*
X69469281Y-88900001D01*
X69465000Y-88856535D01*
X69465000Y-88496578D01*
X69649461Y-88681039D01*
X69635000Y-88753740D01*
X69635000Y-89046260D01*
X69692068Y-89333158D01*
X69804010Y-89603411D01*
X69966525Y-89846632D01*
X70173368Y-90053475D01*
X70347760Y-90170000D01*
X70173368Y-90286525D01*
X69966525Y-90493368D01*
X69804010Y-90736589D01*
X69692068Y-91006842D01*
X69635000Y-91293740D01*
X69635000Y-91586260D01*
X69692068Y-91873158D01*
X69804010Y-92143411D01*
X69966525Y-92386632D01*
X70173368Y-92593475D01*
X70347760Y-92710000D01*
X70173368Y-92826525D01*
X69966525Y-93033368D01*
X69804010Y-93276589D01*
X69692068Y-93546842D01*
X69635000Y-93833740D01*
X69635000Y-94126260D01*
X69692068Y-94413158D01*
X69804010Y-94683411D01*
X69966525Y-94926632D01*
X70173368Y-95133475D01*
X70355534Y-95255195D01*
X70238645Y-95324822D01*
X70022412Y-95519731D01*
X69848359Y-95753080D01*
X69723175Y-96015901D01*
X69678524Y-96163110D01*
X69799845Y-96393000D01*
X70993000Y-96393000D01*
X70993000Y-96373000D01*
X71247000Y-96373000D01*
X71247000Y-96393000D01*
X72440155Y-96393000D01*
X72561476Y-96163110D01*
X72516825Y-96015901D01*
X72391641Y-95753080D01*
X72217588Y-95519731D01*
X72001355Y-95324822D01*
X71884466Y-95255195D01*
X72066632Y-95133475D01*
X72273475Y-94926632D01*
X72435990Y-94683411D01*
X72547932Y-94413158D01*
X72605000Y-94126260D01*
X72605000Y-93833740D01*
X72547932Y-93546842D01*
X72435990Y-93276589D01*
X72273475Y-93033368D01*
X72066632Y-92826525D01*
X71892240Y-92710000D01*
X72066632Y-92593475D01*
X72273475Y-92386632D01*
X72435990Y-92143411D01*
X72547932Y-91873158D01*
X72605000Y-91586260D01*
X72605000Y-91293740D01*
X72590539Y-91221040D01*
X73015051Y-90796528D01*
X73048818Y-90768816D01*
X73159412Y-90634058D01*
X73241590Y-90480312D01*
X73292196Y-90313489D01*
X73305001Y-90183476D01*
X73305001Y-90183466D01*
X73309282Y-90140000D01*
X73305001Y-90096533D01*
X73305001Y-80083467D01*
X73309282Y-80040000D01*
X73305001Y-79996534D01*
X73305001Y-79996524D01*
X73292196Y-79866511D01*
X73241590Y-79699688D01*
X73159412Y-79545942D01*
X73048818Y-79411184D01*
X73015050Y-79383471D01*
X72608072Y-78976493D01*
X72608072Y-77890000D01*
X72595812Y-77765518D01*
X72559502Y-77645820D01*
X72500537Y-77535506D01*
X72421185Y-77438815D01*
X72324494Y-77359463D01*
X72214180Y-77300498D01*
X72141620Y-77278487D01*
X72273475Y-77146632D01*
X72435990Y-76903411D01*
X72547932Y-76633158D01*
X72605000Y-76346260D01*
X72605000Y-76053740D01*
X72547932Y-75766842D01*
X72435990Y-75496589D01*
X72273475Y-75253368D01*
X72066632Y-75046525D01*
X71892240Y-74930000D01*
X72066632Y-74813475D01*
X72273475Y-74606632D01*
X72435990Y-74363411D01*
X72547932Y-74093158D01*
X72605000Y-73806260D01*
X72605000Y-73513740D01*
X72547932Y-73226842D01*
X72435990Y-72956589D01*
X72273475Y-72713368D01*
X72066632Y-72506525D01*
X71892240Y-72390000D01*
X72066632Y-72273475D01*
X72273475Y-72066632D01*
X72435990Y-71823411D01*
X72547932Y-71553158D01*
X72605000Y-71266260D01*
X72605000Y-70973740D01*
X72547932Y-70686842D01*
X72435990Y-70416589D01*
X72273475Y-70173368D01*
X72066632Y-69966525D01*
X71892240Y-69850000D01*
X72066632Y-69733475D01*
X72273475Y-69526632D01*
X72435990Y-69283411D01*
X72547932Y-69013158D01*
X72605000Y-68726260D01*
X72605000Y-68433740D01*
X72547932Y-68146842D01*
X72435990Y-67876589D01*
X72273475Y-67633368D01*
X72066632Y-67426525D01*
X71892240Y-67310000D01*
X72066632Y-67193475D01*
X72273475Y-66986632D01*
X72435990Y-66743411D01*
X72547932Y-66473158D01*
X72605000Y-66186260D01*
X72605000Y-65893740D01*
X72547932Y-65606842D01*
X72435990Y-65336589D01*
X72273475Y-65093368D01*
X72066632Y-64886525D01*
X71892240Y-64770000D01*
X72066632Y-64653475D01*
X72273475Y-64446632D01*
X72435990Y-64203411D01*
X72547932Y-63933158D01*
X72605000Y-63646260D01*
X72605000Y-63353740D01*
X72547932Y-63066842D01*
X72435990Y-62796589D01*
X72273475Y-62553368D01*
X72066632Y-62346525D01*
X71892240Y-62230000D01*
X72066632Y-62113475D01*
X72273475Y-61906632D01*
X72435990Y-61663411D01*
X72547932Y-61393158D01*
X72605000Y-61106260D01*
X72605000Y-60813740D01*
X72547932Y-60526842D01*
X72435990Y-60256589D01*
X72273475Y-60013368D01*
X72066632Y-59806525D01*
X71823411Y-59644010D01*
X71553158Y-59532068D01*
X71266260Y-59475000D01*
X70973740Y-59475000D01*
X70686842Y-59532068D01*
X70416589Y-59644010D01*
X70173368Y-59806525D01*
X69966525Y-60013368D01*
X69804010Y-60256589D01*
X69692068Y-60526842D01*
X69635000Y-60813740D01*
X69635000Y-61106260D01*
X69649461Y-61178960D01*
X62904952Y-67923470D01*
X62871184Y-67951183D01*
X62843471Y-67984951D01*
X62843468Y-67984954D01*
X62760590Y-68085941D01*
X62678412Y-68239687D01*
X62627805Y-68406510D01*
X62610719Y-68580000D01*
X62615001Y-68623479D01*
X62615000Y-78071093D01*
X62541847Y-77894485D01*
X62346500Y-77602129D01*
X62097871Y-77353500D01*
X61805515Y-77158153D01*
X61480665Y-77023596D01*
X61135807Y-76955000D01*
X60784193Y-76955000D01*
X60575000Y-76996611D01*
X60575000Y-74794521D01*
X60604759Y-74774637D01*
X60804637Y-74574759D01*
X60961680Y-74339727D01*
X61069853Y-74078574D01*
X61125000Y-73801335D01*
X61125000Y-73518665D01*
X61069853Y-73241426D01*
X60961680Y-72980273D01*
X60804637Y-72745241D01*
X60604759Y-72545363D01*
X60369727Y-72388320D01*
X60108574Y-72280147D01*
X59831335Y-72225000D01*
X59548665Y-72225000D01*
X59271426Y-72280147D01*
X59010273Y-72388320D01*
X58775241Y-72545363D01*
X58575363Y-72745241D01*
X58418320Y-72980273D01*
X58310147Y-73241426D01*
X58255000Y-73518665D01*
X58255000Y-73801335D01*
X58310147Y-74078574D01*
X58418320Y-74339727D01*
X58575363Y-74574759D01*
X58775241Y-74774637D01*
X58805000Y-74794521D01*
X58805001Y-77426521D01*
X58800719Y-77470000D01*
X58817805Y-77643490D01*
X58868412Y-77810313D01*
X58950590Y-77964059D01*
X59033468Y-78065046D01*
X59033471Y-78065049D01*
X59061184Y-78098817D01*
X59094951Y-78126529D01*
X59234332Y-78265910D01*
X59175000Y-78564193D01*
X59175000Y-78915807D01*
X59243596Y-79260665D01*
X59378153Y-79585515D01*
X59573500Y-79877871D01*
X59822129Y-80126500D01*
X60114485Y-80321847D01*
X60439335Y-80456404D01*
X60784193Y-80525000D01*
X61135807Y-80525000D01*
X61480665Y-80456404D01*
X61805515Y-80321847D01*
X62097871Y-80126500D01*
X62346500Y-79877871D01*
X62541847Y-79585515D01*
X62615000Y-79408907D01*
X62615000Y-80913421D01*
X60593422Y-82935000D01*
X50843465Y-82935000D01*
X50799999Y-82930719D01*
X50756533Y-82935000D01*
X50756523Y-82935000D01*
X50626510Y-82947805D01*
X50465235Y-82996728D01*
X50525226Y-82851898D01*
X50565000Y-82651939D01*
X50565000Y-82448061D01*
X50525226Y-82248102D01*
X50447205Y-82059744D01*
X50333937Y-81890226D01*
X50189774Y-81746063D01*
X50020256Y-81632795D01*
X49831898Y-81554774D01*
X49631939Y-81515000D01*
X49428061Y-81515000D01*
X49228102Y-81554774D01*
X49039744Y-81632795D01*
X48991546Y-81665000D01*
X34656579Y-81665000D01*
X32635000Y-79643422D01*
X32635000Y-77740000D01*
X41589428Y-77740000D01*
X41589428Y-79740000D01*
X41601688Y-79864482D01*
X41637998Y-79984180D01*
X41696963Y-80094494D01*
X41776315Y-80191185D01*
X41873006Y-80270537D01*
X41983320Y-80329502D01*
X42103018Y-80365812D01*
X42227500Y-80378072D01*
X44132500Y-80378072D01*
X44256982Y-80365812D01*
X44376680Y-80329502D01*
X44486994Y-80270537D01*
X44583685Y-80191185D01*
X44663037Y-80094494D01*
X44712059Y-80002781D01*
X44853077Y-80115969D01*
X45128906Y-80259571D01*
X45347020Y-80330563D01*
X45593000Y-80210594D01*
X45593000Y-78867000D01*
X45573000Y-78867000D01*
X45573000Y-78613000D01*
X45593000Y-78613000D01*
X45593000Y-77269406D01*
X45347020Y-77149437D01*
X45128906Y-77220429D01*
X44853077Y-77364031D01*
X44712059Y-77477219D01*
X44663037Y-77385506D01*
X44583685Y-77288815D01*
X44486994Y-77209463D01*
X44376680Y-77150498D01*
X44256982Y-77114188D01*
X44132500Y-77101928D01*
X42227500Y-77101928D01*
X42103018Y-77114188D01*
X41983320Y-77150498D01*
X41873006Y-77209463D01*
X41776315Y-77288815D01*
X41696963Y-77385506D01*
X41637998Y-77495820D01*
X41601688Y-77615518D01*
X41589428Y-77740000D01*
X32635000Y-77740000D01*
X32635000Y-57193465D01*
X32639281Y-57149999D01*
X32635000Y-57106533D01*
X32635000Y-57106523D01*
X32622195Y-56976510D01*
X32571589Y-56809687D01*
X32489411Y-56655941D01*
X32378817Y-56521183D01*
X32345050Y-56493471D01*
X29866534Y-54014956D01*
X29838817Y-53981183D01*
X29704059Y-53870589D01*
X29550313Y-53788411D01*
X29383490Y-53737805D01*
X29253477Y-53725000D01*
X29253469Y-53725000D01*
X29210000Y-53720719D01*
X29166531Y-53725000D01*
X21956579Y-53725000D01*
X21905456Y-53673878D01*
X22141808Y-53602182D01*
X22391101Y-53468932D01*
X22609608Y-53289608D01*
X22788932Y-53071101D01*
X22860000Y-52938142D01*
X22931068Y-53071101D01*
X23110393Y-53289608D01*
X23328900Y-53468932D01*
X23578193Y-53602182D01*
X23848692Y-53684236D01*
X24130000Y-53711943D01*
X24411309Y-53684236D01*
X24681808Y-53602182D01*
X24931101Y-53468932D01*
X25149608Y-53289608D01*
X25328932Y-53071101D01*
X25398122Y-52941655D01*
X25405570Y-52959227D01*
X25564327Y-53192662D01*
X25765575Y-53390639D01*
X26001579Y-53545551D01*
X26263270Y-53651444D01*
X26320961Y-53661904D01*
X26543000Y-53539915D01*
X26543000Y-52197000D01*
X26523000Y-52197000D01*
X26523000Y-51943000D01*
X26543000Y-51943000D01*
X26543000Y-50600085D01*
X26797000Y-50600085D01*
X26797000Y-51943000D01*
X26817000Y-51943000D01*
X26817000Y-52197000D01*
X26797000Y-52197000D01*
X26797000Y-53539915D01*
X27019039Y-53661904D01*
X27076730Y-53651444D01*
X27338421Y-53545551D01*
X27574425Y-53390639D01*
X27775673Y-53192662D01*
X27934430Y-52959227D01*
X27941878Y-52941655D01*
X28011068Y-53071101D01*
X28190393Y-53289608D01*
X28408900Y-53468932D01*
X28658193Y-53602182D01*
X28928692Y-53684236D01*
X29210000Y-53711943D01*
X29491309Y-53684236D01*
X29553725Y-53665303D01*
X34675001Y-58786580D01*
X34675000Y-62186531D01*
X34670719Y-62230000D01*
X34675000Y-62273469D01*
X34675000Y-62273476D01*
X34687805Y-62403489D01*
X34738411Y-62570312D01*
X34820589Y-62724058D01*
X34931183Y-62858817D01*
X34964956Y-62886534D01*
X47375001Y-75296580D01*
X47375000Y-77365495D01*
X47373765Y-77366155D01*
X47132037Y-77564537D01*
X46984838Y-77743900D01*
X46829437Y-77558685D01*
X46586923Y-77364031D01*
X46311094Y-77220429D01*
X46092980Y-77149437D01*
X45847000Y-77269406D01*
X45847000Y-78613000D01*
X45867000Y-78613000D01*
X45867000Y-78867000D01*
X45847000Y-78867000D01*
X45847000Y-80210594D01*
X46092980Y-80330563D01*
X46311094Y-80259571D01*
X46586923Y-80115969D01*
X46829437Y-79921315D01*
X46984837Y-79736101D01*
X47132037Y-79915463D01*
X47373766Y-80113845D01*
X47649552Y-80261255D01*
X47948797Y-80352030D01*
X48260000Y-80382681D01*
X48571204Y-80352030D01*
X48870449Y-80261255D01*
X49146235Y-80113845D01*
X49387963Y-79915463D01*
X49408859Y-79890000D01*
X54371928Y-79890000D01*
X54384188Y-80014482D01*
X54420498Y-80134180D01*
X54479463Y-80244494D01*
X54558815Y-80341185D01*
X54655506Y-80420537D01*
X54765820Y-80479502D01*
X54885518Y-80515812D01*
X55010000Y-80528072D01*
X55874250Y-80525000D01*
X56033000Y-80366250D01*
X56033000Y-78867000D01*
X56287000Y-78867000D01*
X56287000Y-80366250D01*
X56445750Y-80525000D01*
X57310000Y-80528072D01*
X57434482Y-80515812D01*
X57554180Y-80479502D01*
X57664494Y-80420537D01*
X57761185Y-80341185D01*
X57840537Y-80244494D01*
X57899502Y-80134180D01*
X57935812Y-80014482D01*
X57948072Y-79890000D01*
X57945000Y-79025750D01*
X57786250Y-78867000D01*
X56287000Y-78867000D01*
X56033000Y-78867000D01*
X54533750Y-78867000D01*
X54375000Y-79025750D01*
X54371928Y-79890000D01*
X49408859Y-79890000D01*
X49586345Y-79673734D01*
X49733755Y-79397948D01*
X49824530Y-79098703D01*
X49847500Y-78865485D01*
X49847500Y-78614514D01*
X49824530Y-78381296D01*
X49733755Y-78082051D01*
X49586345Y-77806265D01*
X49408861Y-77590000D01*
X54371928Y-77590000D01*
X54375000Y-78454250D01*
X54533750Y-78613000D01*
X56033000Y-78613000D01*
X56033000Y-77113750D01*
X56287000Y-77113750D01*
X56287000Y-78613000D01*
X57786250Y-78613000D01*
X57945000Y-78454250D01*
X57948072Y-77590000D01*
X57935812Y-77465518D01*
X57899502Y-77345820D01*
X57840537Y-77235506D01*
X57761185Y-77138815D01*
X57664494Y-77059463D01*
X57554180Y-77000498D01*
X57434482Y-76964188D01*
X57310000Y-76951928D01*
X56445750Y-76955000D01*
X56287000Y-77113750D01*
X56033000Y-77113750D01*
X55874250Y-76955000D01*
X55010000Y-76951928D01*
X54885518Y-76964188D01*
X54765820Y-77000498D01*
X54655506Y-77059463D01*
X54558815Y-77138815D01*
X54479463Y-77235506D01*
X54420498Y-77345820D01*
X54384188Y-77465518D01*
X54371928Y-77590000D01*
X49408861Y-77590000D01*
X49387963Y-77564537D01*
X49146234Y-77366155D01*
X49145000Y-77365495D01*
X49145000Y-75296578D01*
X59513562Y-64928017D01*
X59548665Y-64935000D01*
X59831335Y-64935000D01*
X60108574Y-64879853D01*
X60369727Y-64771680D01*
X60604759Y-64614637D01*
X60804637Y-64414759D01*
X60961680Y-64179727D01*
X61069853Y-63918574D01*
X61125000Y-63641335D01*
X61125000Y-63358665D01*
X61069853Y-63081426D01*
X60961680Y-62820273D01*
X60804637Y-62585241D01*
X60604759Y-62385363D01*
X60369727Y-62228320D01*
X60108574Y-62120147D01*
X59831335Y-62065000D01*
X59548665Y-62065000D01*
X59271426Y-62120147D01*
X59010273Y-62228320D01*
X58775241Y-62385363D01*
X58575363Y-62585241D01*
X58418320Y-62820273D01*
X58310147Y-63081426D01*
X58255000Y-63358665D01*
X58255000Y-63641335D01*
X58261983Y-63676438D01*
X48260000Y-73678421D01*
X36445000Y-61863422D01*
X36445000Y-58463465D01*
X36449281Y-58419999D01*
X36445000Y-58376533D01*
X36445000Y-58376523D01*
X36432195Y-58246510D01*
X36381589Y-58079687D01*
X36299411Y-57925941D01*
X36188817Y-57791183D01*
X36155049Y-57763470D01*
X33091579Y-54700000D01*
X69331928Y-54700000D01*
X69331928Y-56500000D01*
X69348992Y-56673254D01*
X69399528Y-56839850D01*
X69481595Y-56993386D01*
X69592038Y-57127962D01*
X69726614Y-57238405D01*
X69880150Y-57320472D01*
X70046746Y-57371008D01*
X70220000Y-57388072D01*
X72020000Y-57388072D01*
X72193254Y-57371008D01*
X72359850Y-57320472D01*
X72513386Y-57238405D01*
X72647962Y-57127962D01*
X72758405Y-56993386D01*
X72840472Y-56839850D01*
X72891008Y-56673254D01*
X72908072Y-56500000D01*
X72908072Y-54700000D01*
X72891008Y-54526746D01*
X72840472Y-54360150D01*
X72758405Y-54206614D01*
X72647962Y-54072038D01*
X72513386Y-53961595D01*
X72359850Y-53879528D01*
X72193254Y-53828992D01*
X72020000Y-53811928D01*
X70220000Y-53811928D01*
X70046746Y-53828992D01*
X69880150Y-53879528D01*
X69726614Y-53961595D01*
X69592038Y-54072038D01*
X69481595Y-54206614D01*
X69399528Y-54360150D01*
X69348992Y-54526746D01*
X69331928Y-54700000D01*
X33091579Y-54700000D01*
X30645000Y-52253422D01*
X30645000Y-51799508D01*
X30624236Y-51588691D01*
X30542182Y-51318192D01*
X30408932Y-51068899D01*
X30229607Y-50850392D01*
X30011100Y-50671068D01*
X29761807Y-50537818D01*
X29491308Y-50455764D01*
X29210000Y-50428057D01*
X28928691Y-50455764D01*
X28658192Y-50537818D01*
X28408899Y-50671068D01*
X28190392Y-50850393D01*
X28011068Y-51068900D01*
X27941878Y-51198345D01*
X27934430Y-51180773D01*
X27775673Y-50947338D01*
X27574425Y-50749361D01*
X27338421Y-50594449D01*
X27076730Y-50488556D01*
X27019039Y-50478096D01*
X26797000Y-50600085D01*
X26543000Y-50600085D01*
X26320961Y-50478096D01*
X26263270Y-50488556D01*
X26001579Y-50594449D01*
X25765575Y-50749361D01*
X25564327Y-50947338D01*
X25405570Y-51180773D01*
X25398122Y-51198345D01*
X25328932Y-51068899D01*
X25149607Y-50850392D01*
X24931100Y-50671068D01*
X24681807Y-50537818D01*
X24411308Y-50455764D01*
X24130000Y-50428057D01*
X23848691Y-50455764D01*
X23578192Y-50537818D01*
X23328899Y-50671068D01*
X23110392Y-50850393D01*
X22931068Y-51068900D01*
X22860000Y-51201858D01*
X22788932Y-51068899D01*
X22609607Y-50850392D01*
X22391100Y-50671068D01*
X22141807Y-50537818D01*
X21871308Y-50455764D01*
X21590000Y-50428057D01*
X21308691Y-50455764D01*
X21038192Y-50537818D01*
X20788899Y-50671068D01*
X20570392Y-50850393D01*
X20391068Y-51068900D01*
X20320000Y-51201858D01*
X20248932Y-51068899D01*
X20069607Y-50850392D01*
X19851100Y-50671068D01*
X19601807Y-50537818D01*
X19331308Y-50455764D01*
X19050000Y-50428057D01*
X18768691Y-50455764D01*
X18498192Y-50537818D01*
X18248899Y-50671068D01*
X18030392Y-50850393D01*
X17851068Y-51068900D01*
X17780000Y-51201858D01*
X17708932Y-51068899D01*
X17529607Y-50850392D01*
X17311100Y-50671068D01*
X17061807Y-50537818D01*
X16791308Y-50455764D01*
X16510000Y-50428057D01*
X16228691Y-50455764D01*
X15958192Y-50537818D01*
X15708899Y-50671068D01*
X15490392Y-50850393D01*
X15311068Y-51068900D01*
X15240000Y-51201858D01*
X15168932Y-51068899D01*
X14989607Y-50850392D01*
X14771100Y-50671068D01*
X14521807Y-50537818D01*
X14251308Y-50455764D01*
X13970000Y-50428057D01*
X13688691Y-50455764D01*
X13418192Y-50537818D01*
X13168899Y-50671068D01*
X12950392Y-50850393D01*
X12771068Y-51068900D01*
X12700000Y-51201858D01*
X12628932Y-51068899D01*
X12449607Y-50850392D01*
X12231100Y-50671068D01*
X11981807Y-50537818D01*
X11711308Y-50455764D01*
X11430000Y-50428057D01*
X11148691Y-50455764D01*
X10878192Y-50537818D01*
X10870000Y-50542197D01*
X10870000Y-45160000D01*
X12073547Y-45160000D01*
X11923262Y-45310285D01*
%TA.AperFunction,Conductor*%
D24*
G36*
X11923262Y-45310285D02*
G01*
X11634893Y-45741859D01*
X11436261Y-46221399D01*
X11335000Y-46730475D01*
X11335000Y-47249525D01*
X11436261Y-47758601D01*
X11634893Y-48238141D01*
X11923262Y-48669715D01*
X12290285Y-49036738D01*
X12721859Y-49325107D01*
X13201399Y-49523739D01*
X13710475Y-49625000D01*
X14229525Y-49625000D01*
X14738601Y-49523739D01*
X15218141Y-49325107D01*
X15649715Y-49036738D01*
X16016738Y-48669715D01*
X16305107Y-48238141D01*
X16345758Y-48140000D01*
X25161928Y-48140000D01*
X25174188Y-48264482D01*
X25210498Y-48384180D01*
X25269463Y-48494494D01*
X25348815Y-48591185D01*
X25445506Y-48670537D01*
X25555820Y-48729502D01*
X25675518Y-48765812D01*
X25800000Y-48778072D01*
X26664250Y-48775000D01*
X26823000Y-48616250D01*
X26823000Y-47117000D01*
X27077000Y-47117000D01*
X27077000Y-48616250D01*
X27235750Y-48775000D01*
X28100000Y-48778072D01*
X28224482Y-48765812D01*
X28344180Y-48729502D01*
X28454494Y-48670537D01*
X28551185Y-48591185D01*
X28630537Y-48494494D01*
X28689502Y-48384180D01*
X28725812Y-48264482D01*
X28738072Y-48140000D01*
X28735000Y-47275750D01*
X28576250Y-47117000D01*
X27077000Y-47117000D01*
X26823000Y-47117000D01*
X25323750Y-47117000D01*
X25165000Y-47275750D01*
X25161928Y-48140000D01*
X16345758Y-48140000D01*
X16503739Y-47758601D01*
X16605000Y-47249525D01*
X16605000Y-46730475D01*
X16503739Y-46221399D01*
X16345759Y-45840000D01*
X25161928Y-45840000D01*
X25165000Y-46704250D01*
X25323750Y-46863000D01*
X26823000Y-46863000D01*
X26823000Y-45363750D01*
X27077000Y-45363750D01*
X27077000Y-46863000D01*
X28576250Y-46863000D01*
X28625057Y-46814193D01*
X29965000Y-46814193D01*
X29965000Y-47165807D01*
X30033596Y-47510665D01*
X30168153Y-47835515D01*
X30363500Y-48127871D01*
X30612129Y-48376500D01*
X30904485Y-48571847D01*
X31229335Y-48706404D01*
X31574193Y-48775000D01*
X31925807Y-48775000D01*
X32224090Y-48715668D01*
X33633470Y-50125049D01*
X33661183Y-50158817D01*
X33694951Y-50186530D01*
X33694953Y-50186532D01*
X33717399Y-50204953D01*
X33795941Y-50269411D01*
X33949687Y-50351589D01*
X34116510Y-50402195D01*
X34246523Y-50415000D01*
X34246533Y-50415000D01*
X34289999Y-50419281D01*
X34333465Y-50415000D01*
X42765672Y-50415000D01*
X42817988Y-50541302D01*
X43051637Y-50890983D01*
X43349017Y-51188363D01*
X43698698Y-51422012D01*
X44087244Y-51582953D01*
X44499721Y-51665000D01*
X44920279Y-51665000D01*
X45332756Y-51582953D01*
X45721302Y-51422012D01*
X46070983Y-51188363D01*
X46368363Y-50890983D01*
X46602012Y-50541302D01*
X46762953Y-50152756D01*
X46845000Y-49740279D01*
X46845000Y-49319721D01*
X65175000Y-49319721D01*
X65175000Y-49740279D01*
X65257047Y-50152756D01*
X65417988Y-50541302D01*
X65651637Y-50890983D01*
X65949017Y-51188363D01*
X66298698Y-51422012D01*
X66687244Y-51582953D01*
X67099721Y-51665000D01*
X67520279Y-51665000D01*
X67932756Y-51582953D01*
X68069819Y-51526180D01*
X68085941Y-51539411D01*
X68239687Y-51621589D01*
X68406510Y-51672195D01*
X68536523Y-51685000D01*
X68536533Y-51685000D01*
X68579999Y-51689281D01*
X68623465Y-51685000D01*
X69564536Y-51685000D01*
X69733500Y-51937871D01*
X69982129Y-52186500D01*
X70274485Y-52381847D01*
X70599335Y-52516404D01*
X70944193Y-52585000D01*
X71295807Y-52585000D01*
X71640665Y-52516404D01*
X71965515Y-52381847D01*
X72257871Y-52186500D01*
X72506500Y-51937871D01*
X72701847Y-51645515D01*
X72836404Y-51320665D01*
X72905000Y-50975807D01*
X72905000Y-50624193D01*
X72836404Y-50279335D01*
X72701847Y-49954485D01*
X72506500Y-49662129D01*
X72257871Y-49413500D01*
X71965515Y-49218153D01*
X71640665Y-49083596D01*
X71295807Y-49015000D01*
X70944193Y-49015000D01*
X70599335Y-49083596D01*
X70274485Y-49218153D01*
X69982129Y-49413500D01*
X69733500Y-49662129D01*
X69564536Y-49915000D01*
X69410246Y-49915000D01*
X69445000Y-49740279D01*
X69445000Y-49319721D01*
X69362953Y-48907244D01*
X69202012Y-48518698D01*
X68968363Y-48169017D01*
X68670983Y-47871637D01*
X68321302Y-47637988D01*
X67932756Y-47477047D01*
X67520279Y-47395000D01*
X67099721Y-47395000D01*
X66687244Y-47477047D01*
X66298698Y-47637988D01*
X65949017Y-47871637D01*
X65651637Y-48169017D01*
X65417988Y-48518698D01*
X65257047Y-48907244D01*
X65175000Y-49319721D01*
X46845000Y-49319721D01*
X46762953Y-48907244D01*
X46602012Y-48518698D01*
X46368363Y-48169017D01*
X46070983Y-47871637D01*
X45721302Y-47637988D01*
X45332756Y-47477047D01*
X44920279Y-47395000D01*
X44499721Y-47395000D01*
X44087244Y-47477047D01*
X43698698Y-47637988D01*
X43349017Y-47871637D01*
X43051637Y-48169017D01*
X42817988Y-48518698D01*
X42765672Y-48645000D01*
X34656579Y-48645000D01*
X33475668Y-47464090D01*
X33535000Y-47165807D01*
X33535000Y-46814193D01*
X33466404Y-46469335D01*
X33331847Y-46144485D01*
X33136500Y-45852129D01*
X32887871Y-45603500D01*
X32595515Y-45408153D01*
X32270665Y-45273596D01*
X31925807Y-45205000D01*
X31574193Y-45205000D01*
X31229335Y-45273596D01*
X30904485Y-45408153D01*
X30612129Y-45603500D01*
X30363500Y-45852129D01*
X30168153Y-46144485D01*
X30033596Y-46469335D01*
X29965000Y-46814193D01*
X28625057Y-46814193D01*
X28735000Y-46704250D01*
X28738072Y-45840000D01*
X28725812Y-45715518D01*
X28689502Y-45595820D01*
X28630537Y-45485506D01*
X28551185Y-45388815D01*
X28454494Y-45309463D01*
X28344180Y-45250498D01*
X28224482Y-45214188D01*
X28100000Y-45201928D01*
X27235750Y-45205000D01*
X27077000Y-45363750D01*
X26823000Y-45363750D01*
X26664250Y-45205000D01*
X25800000Y-45201928D01*
X25675518Y-45214188D01*
X25555820Y-45250498D01*
X25445506Y-45309463D01*
X25348815Y-45388815D01*
X25269463Y-45485506D01*
X25210498Y-45595820D01*
X25174188Y-45715518D01*
X25161928Y-45840000D01*
X16345759Y-45840000D01*
X16305107Y-45741859D01*
X16016738Y-45310285D01*
X15866453Y-45160000D01*
X73033547Y-45160000D01*
X72883262Y-45310285D01*
X72594893Y-45741859D01*
X72396261Y-46221399D01*
X72295000Y-46730475D01*
X72295000Y-47249525D01*
X72396261Y-47758601D01*
X72594893Y-48238141D01*
X72883262Y-48669715D01*
X73250285Y-49036738D01*
X73681859Y-49325107D01*
X74161399Y-49523739D01*
X74670475Y-49625000D01*
X75189525Y-49625000D01*
X75698601Y-49523739D01*
X76178141Y-49325107D01*
X76609715Y-49036738D01*
X76760000Y-48886453D01*
X76760001Y-111133548D01*
X76609715Y-110983262D01*
X76178141Y-110694893D01*
X75698601Y-110496261D01*
X75189525Y-110395000D01*
X74670475Y-110395000D01*
X74161399Y-110496261D01*
X73681859Y-110694893D01*
X73250285Y-110983262D01*
X72883262Y-111350285D01*
X72594893Y-111781859D01*
X72396261Y-112261399D01*
X72295000Y-112770475D01*
X72295000Y-113289525D01*
X72396261Y-113798601D01*
X72594893Y-114278141D01*
X72883262Y-114709715D01*
X73033547Y-114860000D01*
X15866453Y-114860000D01*
X16016738Y-114709715D01*
X16305107Y-114278141D01*
X16503739Y-113798601D01*
X16605000Y-113289525D01*
X16605000Y-112770475D01*
X16503739Y-112261399D01*
X16305107Y-111781859D01*
X16016738Y-111350285D01*
X15649715Y-110983262D01*
X15218141Y-110694893D01*
X14738601Y-110496261D01*
X14229525Y-110395000D01*
X13710475Y-110395000D01*
X13201399Y-110496261D01*
X12721859Y-110694893D01*
X12290285Y-110983262D01*
X11923262Y-111350285D01*
X11634893Y-111781859D01*
X11436261Y-112261399D01*
X11335000Y-112770475D01*
X11335000Y-113289525D01*
X11436261Y-113798601D01*
X11634893Y-114278141D01*
X11923262Y-114709715D01*
X12073547Y-114860000D01*
X10870000Y-114860000D01*
X10870000Y-103290000D01*
X16291928Y-103290000D01*
X16291928Y-104990000D01*
X16304188Y-105114482D01*
X16340498Y-105234180D01*
X16399463Y-105344494D01*
X16478815Y-105441185D01*
X16575506Y-105520537D01*
X16685820Y-105579502D01*
X16805518Y-105615812D01*
X16930000Y-105628072D01*
X18630000Y-105628072D01*
X18754482Y-105615812D01*
X18874180Y-105579502D01*
X18984494Y-105520537D01*
X19081185Y-105441185D01*
X19160537Y-105344494D01*
X19219502Y-105234180D01*
X19255812Y-105114482D01*
X19264625Y-105025000D01*
X34075375Y-105025000D01*
X34084188Y-105114482D01*
X34120498Y-105234180D01*
X34179463Y-105344494D01*
X34258815Y-105441185D01*
X34355506Y-105520537D01*
X34465820Y-105579502D01*
X34585518Y-105615812D01*
X34710000Y-105628072D01*
X36410000Y-105628072D01*
X36534482Y-105615812D01*
X36654180Y-105579502D01*
X36764494Y-105520537D01*
X36861185Y-105441185D01*
X36940537Y-105344494D01*
X36999502Y-105234180D01*
X37035812Y-105114482D01*
X37044625Y-105025000D01*
X40596531Y-105025000D01*
X40640000Y-105029281D01*
X40683469Y-105025000D01*
X40683477Y-105025000D01*
X40813490Y-105012195D01*
X40980313Y-104961589D01*
X41134059Y-104879411D01*
X41268817Y-104768817D01*
X41296534Y-104735044D01*
X43180000Y-102851579D01*
X45063470Y-104735049D01*
X45091183Y-104768817D01*
X45124951Y-104796530D01*
X45124953Y-104796532D01*
X45196452Y-104855210D01*
X45225941Y-104879411D01*
X45379687Y-104961589D01*
X45546510Y-105012195D01*
X45676523Y-105025000D01*
X45676533Y-105025000D01*
X45719999Y-105029281D01*
X45763465Y-105025000D01*
X51855375Y-105025000D01*
X51864188Y-105114482D01*
X51900498Y-105234180D01*
X51959463Y-105344494D01*
X52038815Y-105441185D01*
X52135506Y-105520537D01*
X52245820Y-105579502D01*
X52365518Y-105615812D01*
X52490000Y-105628072D01*
X54190000Y-105628072D01*
X54314482Y-105615812D01*
X54434180Y-105579502D01*
X54544494Y-105520537D01*
X54641185Y-105441185D01*
X54720537Y-105344494D01*
X54779502Y-105234180D01*
X54815812Y-105114482D01*
X54824625Y-105025000D01*
X69635375Y-105025000D01*
X69644188Y-105114482D01*
X69680498Y-105234180D01*
X69739463Y-105344494D01*
X69818815Y-105441185D01*
X69915506Y-105520537D01*
X70025820Y-105579502D01*
X70145518Y-105615812D01*
X70270000Y-105628072D01*
X71970000Y-105628072D01*
X72094482Y-105615812D01*
X72214180Y-105579502D01*
X72324494Y-105520537D01*
X72421185Y-105441185D01*
X72500537Y-105344494D01*
X72559502Y-105234180D01*
X72595812Y-105114482D01*
X72608072Y-104990000D01*
X72608072Y-103290000D01*
X72595812Y-103165518D01*
X72559502Y-103045820D01*
X72500537Y-102935506D01*
X72421185Y-102838815D01*
X72324494Y-102759463D01*
X72214180Y-102700498D01*
X72141620Y-102678487D01*
X72273475Y-102546632D01*
X72435990Y-102303411D01*
X72547932Y-102033158D01*
X72605000Y-101746260D01*
X72605000Y-101453740D01*
X72547932Y-101166842D01*
X72435990Y-100896589D01*
X72273475Y-100653368D01*
X72066632Y-100446525D01*
X71884466Y-100324805D01*
X72001355Y-100255178D01*
X72217588Y-100060269D01*
X72391641Y-99826920D01*
X72516825Y-99564099D01*
X72561476Y-99416890D01*
X72440155Y-99187000D01*
X71247000Y-99187000D01*
X71247000Y-99207000D01*
X70993000Y-99207000D01*
X70993000Y-99187000D01*
X69799845Y-99187000D01*
X69678524Y-99416890D01*
X69723175Y-99564099D01*
X69848359Y-99826920D01*
X70022412Y-100060269D01*
X70238645Y-100255178D01*
X70355534Y-100324805D01*
X70173368Y-100446525D01*
X69966525Y-100653368D01*
X69925344Y-100715000D01*
X54534656Y-100715000D01*
X54493475Y-100653368D01*
X54286632Y-100446525D01*
X54104466Y-100324805D01*
X54221355Y-100255178D01*
X54437588Y-100060269D01*
X54611641Y-99826920D01*
X54736825Y-99564099D01*
X54781476Y-99416890D01*
X54660155Y-99187000D01*
X53467000Y-99187000D01*
X53467000Y-99207000D01*
X53213000Y-99207000D01*
X53213000Y-99187000D01*
X52019845Y-99187000D01*
X51898524Y-99416890D01*
X51943175Y-99564099D01*
X52068359Y-99826920D01*
X52242412Y-100060269D01*
X52458645Y-100255178D01*
X52575534Y-100324805D01*
X52393368Y-100446525D01*
X52186525Y-100653368D01*
X52145344Y-100715000D01*
X43718454Y-100715000D01*
X43670256Y-100682795D01*
X43481898Y-100604774D01*
X43281939Y-100565000D01*
X43078061Y-100565000D01*
X42878102Y-100604774D01*
X42689744Y-100682795D01*
X42641546Y-100715000D01*
X36754656Y-100715000D01*
X36713475Y-100653368D01*
X36506632Y-100446525D01*
X36324466Y-100324805D01*
X36441355Y-100255178D01*
X36657588Y-100060269D01*
X36831641Y-99826920D01*
X36956825Y-99564099D01*
X37001476Y-99416890D01*
X36880155Y-99187000D01*
X35687000Y-99187000D01*
X35687000Y-99207000D01*
X35433000Y-99207000D01*
X35433000Y-99187000D01*
X34239845Y-99187000D01*
X34118524Y-99416890D01*
X34163175Y-99564099D01*
X34288359Y-99826920D01*
X34462412Y-100060269D01*
X34678645Y-100255178D01*
X34795534Y-100324805D01*
X34613368Y-100446525D01*
X34406525Y-100653368D01*
X34365344Y-100715000D01*
X18974656Y-100715000D01*
X18933475Y-100653368D01*
X18726632Y-100446525D01*
X18544466Y-100324805D01*
X18661355Y-100255178D01*
X18877588Y-100060269D01*
X19051641Y-99826920D01*
X19176825Y-99564099D01*
X19221476Y-99416890D01*
X19100155Y-99187000D01*
X17907000Y-99187000D01*
X17907000Y-99207000D01*
X17653000Y-99207000D01*
X17653000Y-99187000D01*
X16459845Y-99187000D01*
X16338524Y-99416890D01*
X16383175Y-99564099D01*
X16508359Y-99826920D01*
X16682412Y-100060269D01*
X16898645Y-100255178D01*
X17015534Y-100324805D01*
X16833368Y-100446525D01*
X16626525Y-100653368D01*
X16464010Y-100896589D01*
X16352068Y-101166842D01*
X16295000Y-101453740D01*
X16295000Y-101746260D01*
X16352068Y-102033158D01*
X16464010Y-102303411D01*
X16626525Y-102546632D01*
X16758380Y-102678487D01*
X16685820Y-102700498D01*
X16575506Y-102759463D01*
X16478815Y-102838815D01*
X16399463Y-102935506D01*
X16340498Y-103045820D01*
X16304188Y-103165518D01*
X16291928Y-103290000D01*
X10870000Y-103290000D01*
X10870000Y-96876890D01*
X16338524Y-96876890D01*
X16383175Y-97024099D01*
X16508359Y-97286920D01*
X16682412Y-97520269D01*
X16898645Y-97715178D01*
X17024255Y-97790000D01*
X16898645Y-97864822D01*
X16682412Y-98059731D01*
X16508359Y-98293080D01*
X16383175Y-98555901D01*
X16338524Y-98703110D01*
X16459845Y-98933000D01*
X17653000Y-98933000D01*
X17653000Y-96647000D01*
X17907000Y-96647000D01*
X17907000Y-98933000D01*
X19100155Y-98933000D01*
X19221476Y-98703110D01*
X19176825Y-98555901D01*
X19051641Y-98293080D01*
X18877588Y-98059731D01*
X18661355Y-97864822D01*
X18535745Y-97790000D01*
X18661355Y-97715178D01*
X18877588Y-97520269D01*
X19051641Y-97286920D01*
X19176825Y-97024099D01*
X19221476Y-96876890D01*
X34118524Y-96876890D01*
X34163175Y-97024099D01*
X34288359Y-97286920D01*
X34462412Y-97520269D01*
X34678645Y-97715178D01*
X34804255Y-97790000D01*
X34678645Y-97864822D01*
X34462412Y-98059731D01*
X34288359Y-98293080D01*
X34163175Y-98555901D01*
X34118524Y-98703110D01*
X34239845Y-98933000D01*
X35433000Y-98933000D01*
X35433000Y-96647000D01*
X35687000Y-96647000D01*
X35687000Y-98933000D01*
X36880155Y-98933000D01*
X37001476Y-98703110D01*
X36956825Y-98555901D01*
X36831641Y-98293080D01*
X36657588Y-98059731D01*
X36441355Y-97864822D01*
X36315745Y-97790000D01*
X36441355Y-97715178D01*
X36657588Y-97520269D01*
X36831641Y-97286920D01*
X36956825Y-97024099D01*
X37001476Y-96876890D01*
X51898524Y-96876890D01*
X51943175Y-97024099D01*
X52068359Y-97286920D01*
X52242412Y-97520269D01*
X52458645Y-97715178D01*
X52584255Y-97790000D01*
X52458645Y-97864822D01*
X52242412Y-98059731D01*
X52068359Y-98293080D01*
X51943175Y-98555901D01*
X51898524Y-98703110D01*
X52019845Y-98933000D01*
X53213000Y-98933000D01*
X53213000Y-96647000D01*
X53467000Y-96647000D01*
X53467000Y-98933000D01*
X54660155Y-98933000D01*
X54781476Y-98703110D01*
X54736825Y-98555901D01*
X54611641Y-98293080D01*
X54437588Y-98059731D01*
X54221355Y-97864822D01*
X54095745Y-97790000D01*
X54221355Y-97715178D01*
X54437588Y-97520269D01*
X54611641Y-97286920D01*
X54736825Y-97024099D01*
X54781476Y-96876890D01*
X69678524Y-96876890D01*
X69723175Y-97024099D01*
X69848359Y-97286920D01*
X70022412Y-97520269D01*
X70238645Y-97715178D01*
X70364255Y-97790000D01*
X70238645Y-97864822D01*
X70022412Y-98059731D01*
X69848359Y-98293080D01*
X69723175Y-98555901D01*
X69678524Y-98703110D01*
X69799845Y-98933000D01*
X70993000Y-98933000D01*
X70993000Y-96647000D01*
X71247000Y-96647000D01*
X71247000Y-98933000D01*
X72440155Y-98933000D01*
X72561476Y-98703110D01*
X72516825Y-98555901D01*
X72391641Y-98293080D01*
X72217588Y-98059731D01*
X72001355Y-97864822D01*
X71875745Y-97790000D01*
X72001355Y-97715178D01*
X72217588Y-97520269D01*
X72391641Y-97286920D01*
X72516825Y-97024099D01*
X72561476Y-96876890D01*
X72440155Y-96647000D01*
X71247000Y-96647000D01*
X70993000Y-96647000D01*
X69799845Y-96647000D01*
X69678524Y-96876890D01*
X54781476Y-96876890D01*
X54660155Y-96647000D01*
X53467000Y-96647000D01*
X53213000Y-96647000D01*
X52019845Y-96647000D01*
X51898524Y-96876890D01*
X37001476Y-96876890D01*
X36880155Y-96647000D01*
X35687000Y-96647000D01*
X35433000Y-96647000D01*
X34239845Y-96647000D01*
X34118524Y-96876890D01*
X19221476Y-96876890D01*
X19100155Y-96647000D01*
X17907000Y-96647000D01*
X17653000Y-96647000D01*
X16459845Y-96647000D01*
X16338524Y-96876890D01*
X10870000Y-96876890D01*
X10870000Y-76568072D01*
X12430000Y-76568072D01*
X12554482Y-76555812D01*
X12674180Y-76519502D01*
X12784494Y-76460537D01*
X12881185Y-76381185D01*
X12960537Y-76284494D01*
X13007559Y-76196523D01*
X13168900Y-76328932D01*
X13418193Y-76462182D01*
X13688692Y-76544236D01*
X13970000Y-76571943D01*
X14251309Y-76544236D01*
X14521808Y-76462182D01*
X14771101Y-76328932D01*
X14989608Y-76149608D01*
X15168932Y-75931101D01*
X15240000Y-75798142D01*
X15311068Y-75931101D01*
X15490393Y-76149608D01*
X15708900Y-76328932D01*
X15958193Y-76462182D01*
X16228692Y-76544236D01*
X16510000Y-76571943D01*
X16791309Y-76544236D01*
X17061808Y-76462182D01*
X17311101Y-76328932D01*
X17529608Y-76149608D01*
X17708932Y-75931101D01*
X17780000Y-75798142D01*
X17851068Y-75931101D01*
X18030393Y-76149608D01*
X18165000Y-76260077D01*
X18165001Y-83453420D01*
X14644956Y-86973466D01*
X14611183Y-87001183D01*
X14500589Y-87135942D01*
X14418411Y-87289688D01*
X14367805Y-87456511D01*
X14355000Y-87586524D01*
X14355000Y-87586531D01*
X14350719Y-87630000D01*
X14355000Y-87673469D01*
X14355001Y-91396521D01*
X14350719Y-91440000D01*
X14367805Y-91613490D01*
X14418412Y-91780313D01*
X14500590Y-91934059D01*
X14583468Y-92035046D01*
X14583471Y-92035049D01*
X14611184Y-92068817D01*
X14644951Y-92096529D01*
X16309461Y-93761040D01*
X16295000Y-93833740D01*
X16295000Y-94126260D01*
X16352068Y-94413158D01*
X16464010Y-94683411D01*
X16626525Y-94926632D01*
X16833368Y-95133475D01*
X17015534Y-95255195D01*
X16898645Y-95324822D01*
X16682412Y-95519731D01*
X16508359Y-95753080D01*
X16383175Y-96015901D01*
X16338524Y-96163110D01*
X16459845Y-96393000D01*
X17653000Y-96393000D01*
X17653000Y-96373000D01*
X17907000Y-96373000D01*
X17907000Y-96393000D01*
X19100155Y-96393000D01*
X19221476Y-96163110D01*
X19176825Y-96015901D01*
X19051641Y-95753080D01*
X18877588Y-95519731D01*
X18661355Y-95324822D01*
X18544466Y-95255195D01*
X18726632Y-95133475D01*
X18933475Y-94926632D01*
X19095990Y-94683411D01*
X19207932Y-94413158D01*
X19265000Y-94126260D01*
X19265000Y-93833740D01*
X19207932Y-93546842D01*
X19095990Y-93276589D01*
X18933475Y-93033368D01*
X18726632Y-92826525D01*
X18552240Y-92710000D01*
X18726632Y-92593475D01*
X18933475Y-92386632D01*
X18974656Y-92325000D01*
X30436531Y-92325000D01*
X30480000Y-92329281D01*
X30523469Y-92325000D01*
X30523477Y-92325000D01*
X30653490Y-92312195D01*
X30820313Y-92261589D01*
X30974059Y-92179411D01*
X31108817Y-92068817D01*
X31136534Y-92035044D01*
X34083348Y-89088230D01*
X34132068Y-89333158D01*
X34244010Y-89603411D01*
X34406525Y-89846632D01*
X34613368Y-90053475D01*
X34787760Y-90170000D01*
X34613368Y-90286525D01*
X34406525Y-90493368D01*
X34244010Y-90736589D01*
X34132068Y-91006842D01*
X34075000Y-91293740D01*
X34075000Y-91586260D01*
X34132068Y-91873158D01*
X34244010Y-92143411D01*
X34406525Y-92386632D01*
X34613368Y-92593475D01*
X34787760Y-92710000D01*
X34613368Y-92826525D01*
X34406525Y-93033368D01*
X34244010Y-93276589D01*
X34132068Y-93546842D01*
X34075000Y-93833740D01*
X34075000Y-94126260D01*
X34132068Y-94413158D01*
X34244010Y-94683411D01*
X34406525Y-94926632D01*
X34613368Y-95133475D01*
X34795534Y-95255195D01*
X34678645Y-95324822D01*
X34462412Y-95519731D01*
X34288359Y-95753080D01*
X34163175Y-96015901D01*
X34118524Y-96163110D01*
X34239845Y-96393000D01*
X35433000Y-96393000D01*
X35433000Y-96373000D01*
X35687000Y-96373000D01*
X35687000Y-96393000D01*
X36880155Y-96393000D01*
X37001476Y-96163110D01*
X36956825Y-96015901D01*
X36831641Y-95753080D01*
X36657588Y-95519731D01*
X36441355Y-95324822D01*
X36324466Y-95255195D01*
X36506632Y-95133475D01*
X36713475Y-94926632D01*
X36875990Y-94683411D01*
X36987932Y-94413158D01*
X37045000Y-94126260D01*
X37045000Y-93833740D01*
X36987932Y-93546842D01*
X36875990Y-93276589D01*
X36713475Y-93033368D01*
X36506632Y-92826525D01*
X36332240Y-92710000D01*
X36506632Y-92593475D01*
X36713475Y-92386632D01*
X36754656Y-92325000D01*
X46946531Y-92325000D01*
X46990000Y-92329281D01*
X47033469Y-92325000D01*
X47033477Y-92325000D01*
X47163490Y-92312195D01*
X47330313Y-92261589D01*
X47484059Y-92179411D01*
X47618817Y-92068817D01*
X47646534Y-92035044D01*
X51196580Y-88484999D01*
X51908456Y-88484999D01*
X51855000Y-88753740D01*
X51855000Y-89046260D01*
X51912068Y-89333158D01*
X52024010Y-89603411D01*
X52186525Y-89846632D01*
X52393368Y-90053475D01*
X52567760Y-90170000D01*
X52393368Y-90286525D01*
X52186525Y-90493368D01*
X52024010Y-90736589D01*
X51912068Y-91006842D01*
X51855000Y-91293740D01*
X51855000Y-91586260D01*
X51912068Y-91873158D01*
X52024010Y-92143411D01*
X52186525Y-92386632D01*
X52393368Y-92593475D01*
X52567760Y-92710000D01*
X52393368Y-92826525D01*
X52186525Y-93033368D01*
X52024010Y-93276589D01*
X51912068Y-93546842D01*
X51855000Y-93833740D01*
X51855000Y-94126260D01*
X51912068Y-94413158D01*
X52024010Y-94683411D01*
X52186525Y-94926632D01*
X52393368Y-95133475D01*
X52575534Y-95255195D01*
X52458645Y-95324822D01*
X52242412Y-95519731D01*
X52068359Y-95753080D01*
X51943175Y-96015901D01*
X51898524Y-96163110D01*
X52019845Y-96393000D01*
X53213000Y-96393000D01*
X53213000Y-96373000D01*
X53467000Y-96373000D01*
X53467000Y-96393000D01*
X54660155Y-96393000D01*
X54781476Y-96163110D01*
X54736825Y-96015901D01*
X54611641Y-95753080D01*
X54437588Y-95519731D01*
X54221355Y-95324822D01*
X54104466Y-95255195D01*
X54286632Y-95133475D01*
X54493475Y-94926632D01*
X54655990Y-94683411D01*
X54767932Y-94413158D01*
X54825000Y-94126260D01*
X54825000Y-93833740D01*
X54767932Y-93546842D01*
X54655990Y-93276589D01*
X54493475Y-93033368D01*
X54286632Y-92826525D01*
X54112240Y-92710000D01*
X54286632Y-92593475D01*
X54493475Y-92386632D01*
X54534656Y-92325000D01*
X65996531Y-92325000D01*
X66040000Y-92329281D01*
X66083469Y-92325000D01*
X66083477Y-92325000D01*
X66213490Y-92312195D01*
X66380313Y-92261589D01*
X66534059Y-92179411D01*
X66668817Y-92068817D01*
X66696534Y-92035044D01*
X69175050Y-89556529D01*
X69208817Y-89528817D01*
X69319411Y-89394059D01*
X69401589Y-89240313D01*
X69452195Y-89073490D01*
X69465000Y-88943477D01*
X69465000Y-88943467D01*
X69469281Y-88900001D01*
X69465000Y-88856535D01*
X69465000Y-88496578D01*
X69649461Y-88681039D01*
X69635000Y-88753740D01*
X69635000Y-89046260D01*
X69692068Y-89333158D01*
X69804010Y-89603411D01*
X69966525Y-89846632D01*
X70173368Y-90053475D01*
X70347760Y-90170000D01*
X70173368Y-90286525D01*
X69966525Y-90493368D01*
X69804010Y-90736589D01*
X69692068Y-91006842D01*
X69635000Y-91293740D01*
X69635000Y-91586260D01*
X69692068Y-91873158D01*
X69804010Y-92143411D01*
X69966525Y-92386632D01*
X70173368Y-92593475D01*
X70347760Y-92710000D01*
X70173368Y-92826525D01*
X69966525Y-93033368D01*
X69804010Y-93276589D01*
X69692068Y-93546842D01*
X69635000Y-93833740D01*
X69635000Y-94126260D01*
X69692068Y-94413158D01*
X69804010Y-94683411D01*
X69966525Y-94926632D01*
X70173368Y-95133475D01*
X70355534Y-95255195D01*
X70238645Y-95324822D01*
X70022412Y-95519731D01*
X69848359Y-95753080D01*
X69723175Y-96015901D01*
X69678524Y-96163110D01*
X69799845Y-96393000D01*
X70993000Y-96393000D01*
X70993000Y-96373000D01*
X71247000Y-96373000D01*
X71247000Y-96393000D01*
X72440155Y-96393000D01*
X72561476Y-96163110D01*
X72516825Y-96015901D01*
X72391641Y-95753080D01*
X72217588Y-95519731D01*
X72001355Y-95324822D01*
X71884466Y-95255195D01*
X72066632Y-95133475D01*
X72273475Y-94926632D01*
X72435990Y-94683411D01*
X72547932Y-94413158D01*
X72605000Y-94126260D01*
X72605000Y-93833740D01*
X72547932Y-93546842D01*
X72435990Y-93276589D01*
X72273475Y-93033368D01*
X72066632Y-92826525D01*
X71892240Y-92710000D01*
X72066632Y-92593475D01*
X72273475Y-92386632D01*
X72435990Y-92143411D01*
X72547932Y-91873158D01*
X72605000Y-91586260D01*
X72605000Y-91293740D01*
X72590539Y-91221040D01*
X73015051Y-90796528D01*
X73048818Y-90768816D01*
X73159412Y-90634058D01*
X73241590Y-90480312D01*
X73292196Y-90313489D01*
X73305001Y-90183476D01*
X73305001Y-90183466D01*
X73309282Y-90140000D01*
X73305001Y-90096533D01*
X73305001Y-80083467D01*
X73309282Y-80040000D01*
X73305001Y-79996534D01*
X73305001Y-79996524D01*
X73292196Y-79866511D01*
X73241590Y-79699688D01*
X73159412Y-79545942D01*
X73048818Y-79411184D01*
X73015050Y-79383471D01*
X72608072Y-78976493D01*
X72608072Y-77890000D01*
X72595812Y-77765518D01*
X72559502Y-77645820D01*
X72500537Y-77535506D01*
X72421185Y-77438815D01*
X72324494Y-77359463D01*
X72214180Y-77300498D01*
X72141620Y-77278487D01*
X72273475Y-77146632D01*
X72435990Y-76903411D01*
X72547932Y-76633158D01*
X72605000Y-76346260D01*
X72605000Y-76053740D01*
X72547932Y-75766842D01*
X72435990Y-75496589D01*
X72273475Y-75253368D01*
X72066632Y-75046525D01*
X71892240Y-74930000D01*
X72066632Y-74813475D01*
X72273475Y-74606632D01*
X72435990Y-74363411D01*
X72547932Y-74093158D01*
X72605000Y-73806260D01*
X72605000Y-73513740D01*
X72547932Y-73226842D01*
X72435990Y-72956589D01*
X72273475Y-72713368D01*
X72066632Y-72506525D01*
X71892240Y-72390000D01*
X72066632Y-72273475D01*
X72273475Y-72066632D01*
X72435990Y-71823411D01*
X72547932Y-71553158D01*
X72605000Y-71266260D01*
X72605000Y-70973740D01*
X72547932Y-70686842D01*
X72435990Y-70416589D01*
X72273475Y-70173368D01*
X72066632Y-69966525D01*
X71892240Y-69850000D01*
X72066632Y-69733475D01*
X72273475Y-69526632D01*
X72435990Y-69283411D01*
X72547932Y-69013158D01*
X72605000Y-68726260D01*
X72605000Y-68433740D01*
X72547932Y-68146842D01*
X72435990Y-67876589D01*
X72273475Y-67633368D01*
X72066632Y-67426525D01*
X71892240Y-67310000D01*
X72066632Y-67193475D01*
X72273475Y-66986632D01*
X72435990Y-66743411D01*
X72547932Y-66473158D01*
X72605000Y-66186260D01*
X72605000Y-65893740D01*
X72547932Y-65606842D01*
X72435990Y-65336589D01*
X72273475Y-65093368D01*
X72066632Y-64886525D01*
X71892240Y-64770000D01*
X72066632Y-64653475D01*
X72273475Y-64446632D01*
X72435990Y-64203411D01*
X72547932Y-63933158D01*
X72605000Y-63646260D01*
X72605000Y-63353740D01*
X72547932Y-63066842D01*
X72435990Y-62796589D01*
X72273475Y-62553368D01*
X72066632Y-62346525D01*
X71892240Y-62230000D01*
X72066632Y-62113475D01*
X72273475Y-61906632D01*
X72435990Y-61663411D01*
X72547932Y-61393158D01*
X72605000Y-61106260D01*
X72605000Y-60813740D01*
X72547932Y-60526842D01*
X72435990Y-60256589D01*
X72273475Y-60013368D01*
X72066632Y-59806525D01*
X71823411Y-59644010D01*
X71553158Y-59532068D01*
X71266260Y-59475000D01*
X70973740Y-59475000D01*
X70686842Y-59532068D01*
X70416589Y-59644010D01*
X70173368Y-59806525D01*
X69966525Y-60013368D01*
X69804010Y-60256589D01*
X69692068Y-60526842D01*
X69635000Y-60813740D01*
X69635000Y-61106260D01*
X69649461Y-61178960D01*
X62904952Y-67923470D01*
X62871184Y-67951183D01*
X62843471Y-67984951D01*
X62843468Y-67984954D01*
X62760590Y-68085941D01*
X62678412Y-68239687D01*
X62627805Y-68406510D01*
X62610719Y-68580000D01*
X62615001Y-68623479D01*
X62615000Y-78071093D01*
X62541847Y-77894485D01*
X62346500Y-77602129D01*
X62097871Y-77353500D01*
X61805515Y-77158153D01*
X61480665Y-77023596D01*
X61135807Y-76955000D01*
X60784193Y-76955000D01*
X60575000Y-76996611D01*
X60575000Y-74794521D01*
X60604759Y-74774637D01*
X60804637Y-74574759D01*
X60961680Y-74339727D01*
X61069853Y-74078574D01*
X61125000Y-73801335D01*
X61125000Y-73518665D01*
X61069853Y-73241426D01*
X60961680Y-72980273D01*
X60804637Y-72745241D01*
X60604759Y-72545363D01*
X60369727Y-72388320D01*
X60108574Y-72280147D01*
X59831335Y-72225000D01*
X59548665Y-72225000D01*
X59271426Y-72280147D01*
X59010273Y-72388320D01*
X58775241Y-72545363D01*
X58575363Y-72745241D01*
X58418320Y-72980273D01*
X58310147Y-73241426D01*
X58255000Y-73518665D01*
X58255000Y-73801335D01*
X58310147Y-74078574D01*
X58418320Y-74339727D01*
X58575363Y-74574759D01*
X58775241Y-74774637D01*
X58805000Y-74794521D01*
X58805001Y-77426521D01*
X58800719Y-77470000D01*
X58817805Y-77643490D01*
X58868412Y-77810313D01*
X58950590Y-77964059D01*
X59033468Y-78065046D01*
X59033471Y-78065049D01*
X59061184Y-78098817D01*
X59094951Y-78126529D01*
X59234332Y-78265910D01*
X59175000Y-78564193D01*
X59175000Y-78915807D01*
X59243596Y-79260665D01*
X59378153Y-79585515D01*
X59573500Y-79877871D01*
X59822129Y-80126500D01*
X60114485Y-80321847D01*
X60439335Y-80456404D01*
X60784193Y-80525000D01*
X61135807Y-80525000D01*
X61480665Y-80456404D01*
X61805515Y-80321847D01*
X62097871Y-80126500D01*
X62346500Y-79877871D01*
X62541847Y-79585515D01*
X62615000Y-79408907D01*
X62615000Y-80913421D01*
X60593422Y-82935000D01*
X50843465Y-82935000D01*
X50799999Y-82930719D01*
X50756533Y-82935000D01*
X50756523Y-82935000D01*
X50626510Y-82947805D01*
X50465235Y-82996728D01*
X50525226Y-82851898D01*
X50565000Y-82651939D01*
X50565000Y-82448061D01*
X50525226Y-82248102D01*
X50447205Y-82059744D01*
X50333937Y-81890226D01*
X50189774Y-81746063D01*
X50020256Y-81632795D01*
X49831898Y-81554774D01*
X49631939Y-81515000D01*
X49428061Y-81515000D01*
X49228102Y-81554774D01*
X49039744Y-81632795D01*
X48991546Y-81665000D01*
X34656579Y-81665000D01*
X32635000Y-79643422D01*
X32635000Y-77740000D01*
X41589428Y-77740000D01*
X41589428Y-79740000D01*
X41601688Y-79864482D01*
X41637998Y-79984180D01*
X41696963Y-80094494D01*
X41776315Y-80191185D01*
X41873006Y-80270537D01*
X41983320Y-80329502D01*
X42103018Y-80365812D01*
X42227500Y-80378072D01*
X44132500Y-80378072D01*
X44256982Y-80365812D01*
X44376680Y-80329502D01*
X44486994Y-80270537D01*
X44583685Y-80191185D01*
X44663037Y-80094494D01*
X44712059Y-80002781D01*
X44853077Y-80115969D01*
X45128906Y-80259571D01*
X45347020Y-80330563D01*
X45593000Y-80210594D01*
X45593000Y-78867000D01*
X45573000Y-78867000D01*
X45573000Y-78613000D01*
X45593000Y-78613000D01*
X45593000Y-77269406D01*
X45347020Y-77149437D01*
X45128906Y-77220429D01*
X44853077Y-77364031D01*
X44712059Y-77477219D01*
X44663037Y-77385506D01*
X44583685Y-77288815D01*
X44486994Y-77209463D01*
X44376680Y-77150498D01*
X44256982Y-77114188D01*
X44132500Y-77101928D01*
X42227500Y-77101928D01*
X42103018Y-77114188D01*
X41983320Y-77150498D01*
X41873006Y-77209463D01*
X41776315Y-77288815D01*
X41696963Y-77385506D01*
X41637998Y-77495820D01*
X41601688Y-77615518D01*
X41589428Y-77740000D01*
X32635000Y-77740000D01*
X32635000Y-57193465D01*
X32639281Y-57149999D01*
X32635000Y-57106533D01*
X32635000Y-57106523D01*
X32622195Y-56976510D01*
X32571589Y-56809687D01*
X32489411Y-56655941D01*
X32378817Y-56521183D01*
X32345050Y-56493471D01*
X29866534Y-54014956D01*
X29838817Y-53981183D01*
X29704059Y-53870589D01*
X29550313Y-53788411D01*
X29383490Y-53737805D01*
X29253477Y-53725000D01*
X29253469Y-53725000D01*
X29210000Y-53720719D01*
X29166531Y-53725000D01*
X21956579Y-53725000D01*
X21905456Y-53673878D01*
X22141808Y-53602182D01*
X22391101Y-53468932D01*
X22609608Y-53289608D01*
X22788932Y-53071101D01*
X22860000Y-52938142D01*
X22931068Y-53071101D01*
X23110393Y-53289608D01*
X23328900Y-53468932D01*
X23578193Y-53602182D01*
X23848692Y-53684236D01*
X24130000Y-53711943D01*
X24411309Y-53684236D01*
X24681808Y-53602182D01*
X24931101Y-53468932D01*
X25149608Y-53289608D01*
X25328932Y-53071101D01*
X25398122Y-52941655D01*
X25405570Y-52959227D01*
X25564327Y-53192662D01*
X25765575Y-53390639D01*
X26001579Y-53545551D01*
X26263270Y-53651444D01*
X26320961Y-53661904D01*
X26543000Y-53539915D01*
X26543000Y-52197000D01*
X26523000Y-52197000D01*
X26523000Y-51943000D01*
X26543000Y-51943000D01*
X26543000Y-50600085D01*
X26797000Y-50600085D01*
X26797000Y-51943000D01*
X26817000Y-51943000D01*
X26817000Y-52197000D01*
X26797000Y-52197000D01*
X26797000Y-53539915D01*
X27019039Y-53661904D01*
X27076730Y-53651444D01*
X27338421Y-53545551D01*
X27574425Y-53390639D01*
X27775673Y-53192662D01*
X27934430Y-52959227D01*
X27941878Y-52941655D01*
X28011068Y-53071101D01*
X28190393Y-53289608D01*
X28408900Y-53468932D01*
X28658193Y-53602182D01*
X28928692Y-53684236D01*
X29210000Y-53711943D01*
X29491309Y-53684236D01*
X29553725Y-53665303D01*
X34675001Y-58786580D01*
X34675000Y-62186531D01*
X34670719Y-62230000D01*
X34675000Y-62273469D01*
X34675000Y-62273476D01*
X34687805Y-62403489D01*
X34738411Y-62570312D01*
X34820589Y-62724058D01*
X34931183Y-62858817D01*
X34964956Y-62886534D01*
X47375001Y-75296580D01*
X47375000Y-77365495D01*
X47373765Y-77366155D01*
X47132037Y-77564537D01*
X46984838Y-77743900D01*
X46829437Y-77558685D01*
X46586923Y-77364031D01*
X46311094Y-77220429D01*
X46092980Y-77149437D01*
X45847000Y-77269406D01*
X45847000Y-78613000D01*
X45867000Y-78613000D01*
X45867000Y-78867000D01*
X45847000Y-78867000D01*
X45847000Y-80210594D01*
X46092980Y-80330563D01*
X46311094Y-80259571D01*
X46586923Y-80115969D01*
X46829437Y-79921315D01*
X46984837Y-79736101D01*
X47132037Y-79915463D01*
X47373766Y-80113845D01*
X47649552Y-80261255D01*
X47948797Y-80352030D01*
X48260000Y-80382681D01*
X48571204Y-80352030D01*
X48870449Y-80261255D01*
X49146235Y-80113845D01*
X49387963Y-79915463D01*
X49408859Y-79890000D01*
X54371928Y-79890000D01*
X54384188Y-80014482D01*
X54420498Y-80134180D01*
X54479463Y-80244494D01*
X54558815Y-80341185D01*
X54655506Y-80420537D01*
X54765820Y-80479502D01*
X54885518Y-80515812D01*
X55010000Y-80528072D01*
X55874250Y-80525000D01*
X56033000Y-80366250D01*
X56033000Y-78867000D01*
X56287000Y-78867000D01*
X56287000Y-80366250D01*
X56445750Y-80525000D01*
X57310000Y-80528072D01*
X57434482Y-80515812D01*
X57554180Y-80479502D01*
X57664494Y-80420537D01*
X57761185Y-80341185D01*
X57840537Y-80244494D01*
X57899502Y-80134180D01*
X57935812Y-80014482D01*
X57948072Y-79890000D01*
X57945000Y-79025750D01*
X57786250Y-78867000D01*
X56287000Y-78867000D01*
X56033000Y-78867000D01*
X54533750Y-78867000D01*
X54375000Y-79025750D01*
X54371928Y-79890000D01*
X49408859Y-79890000D01*
X49586345Y-79673734D01*
X49733755Y-79397948D01*
X49824530Y-79098703D01*
X49847500Y-78865485D01*
X49847500Y-78614514D01*
X49824530Y-78381296D01*
X49733755Y-78082051D01*
X49586345Y-77806265D01*
X49408861Y-77590000D01*
X54371928Y-77590000D01*
X54375000Y-78454250D01*
X54533750Y-78613000D01*
X56033000Y-78613000D01*
X56033000Y-77113750D01*
X56287000Y-77113750D01*
X56287000Y-78613000D01*
X57786250Y-78613000D01*
X57945000Y-78454250D01*
X57948072Y-77590000D01*
X57935812Y-77465518D01*
X57899502Y-77345820D01*
X57840537Y-77235506D01*
X57761185Y-77138815D01*
X57664494Y-77059463D01*
X57554180Y-77000498D01*
X57434482Y-76964188D01*
X57310000Y-76951928D01*
X56445750Y-76955000D01*
X56287000Y-77113750D01*
X56033000Y-77113750D01*
X55874250Y-76955000D01*
X55010000Y-76951928D01*
X54885518Y-76964188D01*
X54765820Y-77000498D01*
X54655506Y-77059463D01*
X54558815Y-77138815D01*
X54479463Y-77235506D01*
X54420498Y-77345820D01*
X54384188Y-77465518D01*
X54371928Y-77590000D01*
X49408861Y-77590000D01*
X49387963Y-77564537D01*
X49146234Y-77366155D01*
X49145000Y-77365495D01*
X49145000Y-75296578D01*
X59513562Y-64928017D01*
X59548665Y-64935000D01*
X59831335Y-64935000D01*
X60108574Y-64879853D01*
X60369727Y-64771680D01*
X60604759Y-64614637D01*
X60804637Y-64414759D01*
X60961680Y-64179727D01*
X61069853Y-63918574D01*
X61125000Y-63641335D01*
X61125000Y-63358665D01*
X61069853Y-63081426D01*
X60961680Y-62820273D01*
X60804637Y-62585241D01*
X60604759Y-62385363D01*
X60369727Y-62228320D01*
X60108574Y-62120147D01*
X59831335Y-62065000D01*
X59548665Y-62065000D01*
X59271426Y-62120147D01*
X59010273Y-62228320D01*
X58775241Y-62385363D01*
X58575363Y-62585241D01*
X58418320Y-62820273D01*
X58310147Y-63081426D01*
X58255000Y-63358665D01*
X58255000Y-63641335D01*
X58261983Y-63676438D01*
X48260000Y-73678421D01*
X36445000Y-61863422D01*
X36445000Y-58463465D01*
X36449281Y-58419999D01*
X36445000Y-58376533D01*
X36445000Y-58376523D01*
X36432195Y-58246510D01*
X36381589Y-58079687D01*
X36299411Y-57925941D01*
X36188817Y-57791183D01*
X36155049Y-57763470D01*
X33091579Y-54700000D01*
X69331928Y-54700000D01*
X69331928Y-56500000D01*
X69348992Y-56673254D01*
X69399528Y-56839850D01*
X69481595Y-56993386D01*
X69592038Y-57127962D01*
X69726614Y-57238405D01*
X69880150Y-57320472D01*
X70046746Y-57371008D01*
X70220000Y-57388072D01*
X72020000Y-57388072D01*
X72193254Y-57371008D01*
X72359850Y-57320472D01*
X72513386Y-57238405D01*
X72647962Y-57127962D01*
X72758405Y-56993386D01*
X72840472Y-56839850D01*
X72891008Y-56673254D01*
X72908072Y-56500000D01*
X72908072Y-54700000D01*
X72891008Y-54526746D01*
X72840472Y-54360150D01*
X72758405Y-54206614D01*
X72647962Y-54072038D01*
X72513386Y-53961595D01*
X72359850Y-53879528D01*
X72193254Y-53828992D01*
X72020000Y-53811928D01*
X70220000Y-53811928D01*
X70046746Y-53828992D01*
X69880150Y-53879528D01*
X69726614Y-53961595D01*
X69592038Y-54072038D01*
X69481595Y-54206614D01*
X69399528Y-54360150D01*
X69348992Y-54526746D01*
X69331928Y-54700000D01*
X33091579Y-54700000D01*
X30645000Y-52253422D01*
X30645000Y-51799508D01*
X30624236Y-51588691D01*
X30542182Y-51318192D01*
X30408932Y-51068899D01*
X30229607Y-50850392D01*
X30011100Y-50671068D01*
X29761807Y-50537818D01*
X29491308Y-50455764D01*
X29210000Y-50428057D01*
X28928691Y-50455764D01*
X28658192Y-50537818D01*
X28408899Y-50671068D01*
X28190392Y-50850393D01*
X28011068Y-51068900D01*
X27941878Y-51198345D01*
X27934430Y-51180773D01*
X27775673Y-50947338D01*
X27574425Y-50749361D01*
X27338421Y-50594449D01*
X27076730Y-50488556D01*
X27019039Y-50478096D01*
X26797000Y-50600085D01*
X26543000Y-50600085D01*
X26320961Y-50478096D01*
X26263270Y-50488556D01*
X26001579Y-50594449D01*
X25765575Y-50749361D01*
X25564327Y-50947338D01*
X25405570Y-51180773D01*
X25398122Y-51198345D01*
X25328932Y-51068899D01*
X25149607Y-50850392D01*
X24931100Y-50671068D01*
X24681807Y-50537818D01*
X24411308Y-50455764D01*
X24130000Y-50428057D01*
X23848691Y-50455764D01*
X23578192Y-50537818D01*
X23328899Y-50671068D01*
X23110392Y-50850393D01*
X22931068Y-51068900D01*
X22860000Y-51201858D01*
X22788932Y-51068899D01*
X22609607Y-50850392D01*
X22391100Y-50671068D01*
X22141807Y-50537818D01*
X21871308Y-50455764D01*
X21590000Y-50428057D01*
X21308691Y-50455764D01*
X21038192Y-50537818D01*
X20788899Y-50671068D01*
X20570392Y-50850393D01*
X20391068Y-51068900D01*
X20320000Y-51201858D01*
X20248932Y-51068899D01*
X20069607Y-50850392D01*
X19851100Y-50671068D01*
X19601807Y-50537818D01*
X19331308Y-50455764D01*
X19050000Y-50428057D01*
X18768691Y-50455764D01*
X18498192Y-50537818D01*
X18248899Y-50671068D01*
X18030392Y-50850393D01*
X17851068Y-51068900D01*
X17780000Y-51201858D01*
X17708932Y-51068899D01*
X17529607Y-50850392D01*
X17311100Y-50671068D01*
X17061807Y-50537818D01*
X16791308Y-50455764D01*
X16510000Y-50428057D01*
X16228691Y-50455764D01*
X15958192Y-50537818D01*
X15708899Y-50671068D01*
X15490392Y-50850393D01*
X15311068Y-51068900D01*
X15240000Y-51201858D01*
X15168932Y-51068899D01*
X14989607Y-50850392D01*
X14771100Y-50671068D01*
X14521807Y-50537818D01*
X14251308Y-50455764D01*
X13970000Y-50428057D01*
X13688691Y-50455764D01*
X13418192Y-50537818D01*
X13168899Y-50671068D01*
X12950392Y-50850393D01*
X12771068Y-51068900D01*
X12700000Y-51201858D01*
X12628932Y-51068899D01*
X12449607Y-50850392D01*
X12231100Y-50671068D01*
X11981807Y-50537818D01*
X11711308Y-50455764D01*
X11430000Y-50428057D01*
X11148691Y-50455764D01*
X10878192Y-50537818D01*
X10870000Y-50542197D01*
X10870000Y-45160000D01*
X12073547Y-45160000D01*
X11923262Y-45310285D01*
G37*
%TD.AperFunction*%
D23*
X28011068Y-75931101D02*
X28190393Y-76149608D01*
X28408900Y-76328932D01*
X28658193Y-76462182D01*
X28928692Y-76544236D01*
X29210000Y-76571943D01*
X29491309Y-76544236D01*
X29595001Y-76512782D01*
X29595001Y-79966521D01*
X29590719Y-80010000D01*
X29607805Y-80183490D01*
X29658412Y-80350313D01*
X29740590Y-80504059D01*
X29823468Y-80605046D01*
X29823471Y-80605049D01*
X29851184Y-80638817D01*
X29884951Y-80666530D01*
X33633468Y-84415047D01*
X33661183Y-84448817D01*
X33694951Y-84476530D01*
X33694953Y-84476532D01*
X33795941Y-84559411D01*
X33949686Y-84641589D01*
X34116510Y-84692195D01*
X34246523Y-84705000D01*
X34246531Y-84705000D01*
X34290000Y-84709281D01*
X34333469Y-84705000D01*
X47721546Y-84705000D01*
X47769744Y-84737205D01*
X47958102Y-84815226D01*
X48158061Y-84855000D01*
X48361939Y-84855000D01*
X48551035Y-84817387D01*
X47893422Y-85475000D01*
X34333465Y-85475000D01*
X34289999Y-85470719D01*
X34246533Y-85475000D01*
X34246523Y-85475000D01*
X34116510Y-85487805D01*
X33949687Y-85538411D01*
X33795941Y-85620589D01*
X33795939Y-85620590D01*
X33795940Y-85620590D01*
X33694953Y-85703468D01*
X33694951Y-85703470D01*
X33661183Y-85731183D01*
X33633470Y-85764951D01*
X31383422Y-88015000D01*
X18974656Y-88015000D01*
X18933475Y-87953368D01*
X18726632Y-87746525D01*
X18483411Y-87584010D01*
X18213158Y-87472068D01*
X17926260Y-87415000D01*
X17633740Y-87415000D01*
X17346842Y-87472068D01*
X17076589Y-87584010D01*
X16833368Y-87746525D01*
X16626525Y-87953368D01*
X16464010Y-88196589D01*
X16352068Y-88466842D01*
X16295000Y-88753740D01*
X16295000Y-89046260D01*
X16352068Y-89333158D01*
X16464010Y-89603411D01*
X16626525Y-89846632D01*
X16833368Y-90053475D01*
X17007760Y-90170000D01*
X16833368Y-90286525D01*
X16626525Y-90493368D01*
X16464010Y-90736589D01*
X16352068Y-91006842D01*
X16303348Y-91251770D01*
X16125000Y-91073422D01*
X16125000Y-87996578D01*
X19645049Y-84476530D01*
X19678817Y-84448817D01*
X19789411Y-84314059D01*
X19813810Y-84268411D01*
X19871589Y-84160314D01*
X19922195Y-83993490D01*
X19932270Y-83891193D01*
X19935000Y-83863477D01*
X19935000Y-83863469D01*
X19939281Y-83820000D01*
X19935000Y-83776531D01*
X19935000Y-76260078D01*
X20069608Y-76149608D01*
X20248932Y-75931101D01*
X20320000Y-75798142D01*
X20391068Y-75931101D01*
X20570393Y-76149608D01*
X20788900Y-76328932D01*
X21038193Y-76462182D01*
X21308692Y-76544236D01*
X21590000Y-76571943D01*
X21871309Y-76544236D01*
X22141808Y-76462182D01*
X22391101Y-76328932D01*
X22609608Y-76149608D01*
X22788932Y-75931101D01*
X22860000Y-75798142D01*
X22931068Y-75931101D01*
X23110393Y-76149608D01*
X23328900Y-76328932D01*
X23578193Y-76462182D01*
X23848692Y-76544236D01*
X24130000Y-76571943D01*
X24411309Y-76544236D01*
X24681808Y-76462182D01*
X24931101Y-76328932D01*
X25149608Y-76149608D01*
X25328932Y-75931101D01*
X25400000Y-75798142D01*
X25471068Y-75931101D01*
X25650393Y-76149608D01*
X25868900Y-76328932D01*
X26118193Y-76462182D01*
X26388692Y-76544236D01*
X26670000Y-76571943D01*
X26951309Y-76544236D01*
X27221808Y-76462182D01*
X27471101Y-76328932D01*
X27689608Y-76149608D01*
X27868932Y-75931101D01*
X27940000Y-75798142D01*
X28011068Y-75931101D01*
%TA.AperFunction,Conductor*%
D24*
G36*
X28011068Y-75931101D02*
G01*
X28190393Y-76149608D01*
X28408900Y-76328932D01*
X28658193Y-76462182D01*
X28928692Y-76544236D01*
X29210000Y-76571943D01*
X29491309Y-76544236D01*
X29595001Y-76512782D01*
X29595001Y-79966521D01*
X29590719Y-80010000D01*
X29607805Y-80183490D01*
X29658412Y-80350313D01*
X29740590Y-80504059D01*
X29823468Y-80605046D01*
X29823471Y-80605049D01*
X29851184Y-80638817D01*
X29884951Y-80666530D01*
X33633468Y-84415047D01*
X33661183Y-84448817D01*
X33694951Y-84476530D01*
X33694953Y-84476532D01*
X33795941Y-84559411D01*
X33949686Y-84641589D01*
X34116510Y-84692195D01*
X34246523Y-84705000D01*
X34246531Y-84705000D01*
X34290000Y-84709281D01*
X34333469Y-84705000D01*
X47721546Y-84705000D01*
X47769744Y-84737205D01*
X47958102Y-84815226D01*
X48158061Y-84855000D01*
X48361939Y-84855000D01*
X48551035Y-84817387D01*
X47893422Y-85475000D01*
X34333465Y-85475000D01*
X34289999Y-85470719D01*
X34246533Y-85475000D01*
X34246523Y-85475000D01*
X34116510Y-85487805D01*
X33949687Y-85538411D01*
X33795941Y-85620589D01*
X33795939Y-85620590D01*
X33795940Y-85620590D01*
X33694953Y-85703468D01*
X33694951Y-85703470D01*
X33661183Y-85731183D01*
X33633470Y-85764951D01*
X31383422Y-88015000D01*
X18974656Y-88015000D01*
X18933475Y-87953368D01*
X18726632Y-87746525D01*
X18483411Y-87584010D01*
X18213158Y-87472068D01*
X17926260Y-87415000D01*
X17633740Y-87415000D01*
X17346842Y-87472068D01*
X17076589Y-87584010D01*
X16833368Y-87746525D01*
X16626525Y-87953368D01*
X16464010Y-88196589D01*
X16352068Y-88466842D01*
X16295000Y-88753740D01*
X16295000Y-89046260D01*
X16352068Y-89333158D01*
X16464010Y-89603411D01*
X16626525Y-89846632D01*
X16833368Y-90053475D01*
X17007760Y-90170000D01*
X16833368Y-90286525D01*
X16626525Y-90493368D01*
X16464010Y-90736589D01*
X16352068Y-91006842D01*
X16303348Y-91251770D01*
X16125000Y-91073422D01*
X16125000Y-87996578D01*
X19645049Y-84476530D01*
X19678817Y-84448817D01*
X19789411Y-84314059D01*
X19813810Y-84268411D01*
X19871589Y-84160314D01*
X19922195Y-83993490D01*
X19932270Y-83891193D01*
X19935000Y-83863477D01*
X19935000Y-83863469D01*
X19939281Y-83820000D01*
X19935000Y-83776531D01*
X19935000Y-76260078D01*
X20069608Y-76149608D01*
X20248932Y-75931101D01*
X20320000Y-75798142D01*
X20391068Y-75931101D01*
X20570393Y-76149608D01*
X20788900Y-76328932D01*
X21038193Y-76462182D01*
X21308692Y-76544236D01*
X21590000Y-76571943D01*
X21871309Y-76544236D01*
X22141808Y-76462182D01*
X22391101Y-76328932D01*
X22609608Y-76149608D01*
X22788932Y-75931101D01*
X22860000Y-75798142D01*
X22931068Y-75931101D01*
X23110393Y-76149608D01*
X23328900Y-76328932D01*
X23578193Y-76462182D01*
X23848692Y-76544236D01*
X24130000Y-76571943D01*
X24411309Y-76544236D01*
X24681808Y-76462182D01*
X24931101Y-76328932D01*
X25149608Y-76149608D01*
X25328932Y-75931101D01*
X25400000Y-75798142D01*
X25471068Y-75931101D01*
X25650393Y-76149608D01*
X25868900Y-76328932D01*
X26118193Y-76462182D01*
X26388692Y-76544236D01*
X26670000Y-76571943D01*
X26951309Y-76544236D01*
X27221808Y-76462182D01*
X27471101Y-76328932D01*
X27689608Y-76149608D01*
X27868932Y-75931101D01*
X27940000Y-75798142D01*
X28011068Y-75931101D01*
G37*
%TD.AperFunction*%
D23*
X15311068Y-53071101D02*
X15490393Y-53289608D01*
X15708900Y-53468932D01*
X15958193Y-53602182D01*
X16228692Y-53684236D01*
X16510000Y-53711943D01*
X16791309Y-53684236D01*
X16853724Y-53665303D01*
X19663470Y-56475049D01*
X19691183Y-56508817D01*
X19724951Y-56536530D01*
X19724953Y-56536532D01*
X19825941Y-56619411D01*
X19979686Y-56701589D01*
X20146510Y-56752195D01*
X20276523Y-56765000D01*
X20276531Y-56765000D01*
X20320000Y-56769281D01*
X20363469Y-56765000D01*
X27573422Y-56765000D01*
X29595000Y-58786579D01*
X29595001Y-73347218D01*
X29491308Y-73315764D01*
X29210000Y-73288057D01*
X28928691Y-73315764D01*
X28658192Y-73397818D01*
X28408899Y-73531068D01*
X28190392Y-73710393D01*
X28011068Y-73928900D01*
X27940000Y-74061858D01*
X27868932Y-73928899D01*
X27689607Y-73710392D01*
X27471100Y-73531068D01*
X27221807Y-73397818D01*
X26951308Y-73315764D01*
X26670000Y-73288057D01*
X26388691Y-73315764D01*
X26118192Y-73397818D01*
X25868899Y-73531068D01*
X25650392Y-73710393D01*
X25471068Y-73928900D01*
X25400000Y-74061858D01*
X25328932Y-73928899D01*
X25149607Y-73710392D01*
X24931100Y-73531068D01*
X24681807Y-73397818D01*
X24411308Y-73315764D01*
X24130000Y-73288057D01*
X23848691Y-73315764D01*
X23578192Y-73397818D01*
X23328899Y-73531068D01*
X23110392Y-73710393D01*
X22931068Y-73928900D01*
X22860000Y-74061858D01*
X22788932Y-73928899D01*
X22609607Y-73710392D01*
X22391100Y-73531068D01*
X22141807Y-73397818D01*
X21871308Y-73315764D01*
X21590000Y-73288057D01*
X21308691Y-73315764D01*
X21038192Y-73397818D01*
X20788899Y-73531068D01*
X20570392Y-73710393D01*
X20391068Y-73928900D01*
X20320000Y-74061858D01*
X20248932Y-73928899D01*
X20069607Y-73710392D01*
X19851100Y-73531068D01*
X19601807Y-73397818D01*
X19331308Y-73315764D01*
X19050000Y-73288057D01*
X18768691Y-73315764D01*
X18498192Y-73397818D01*
X18248899Y-73531068D01*
X18030392Y-73710393D01*
X17851068Y-73928900D01*
X17780000Y-74061858D01*
X17708932Y-73928899D01*
X17529607Y-73710392D01*
X17311100Y-73531068D01*
X17061807Y-73397818D01*
X16791308Y-73315764D01*
X16510000Y-73288057D01*
X16228691Y-73315764D01*
X15958192Y-73397818D01*
X15708899Y-73531068D01*
X15490392Y-73710393D01*
X15311068Y-73928900D01*
X15240000Y-74061858D01*
X15168932Y-73928899D01*
X14989607Y-73710392D01*
X14771100Y-73531068D01*
X14521807Y-73397818D01*
X14251308Y-73315764D01*
X13970000Y-73288057D01*
X13688691Y-73315764D01*
X13418192Y-73397818D01*
X13168899Y-73531068D01*
X13007559Y-73663477D01*
X12960537Y-73575506D01*
X12881185Y-73478815D01*
X12784494Y-73399463D01*
X12674180Y-73340498D01*
X12554482Y-73304188D01*
X12430000Y-73291928D01*
X10870000Y-73291928D01*
X10870000Y-53597803D01*
X10878193Y-53602182D01*
X11148692Y-53684236D01*
X11430000Y-53711943D01*
X11711309Y-53684236D01*
X11981808Y-53602182D01*
X12231101Y-53468932D01*
X12449608Y-53289608D01*
X12628932Y-53071101D01*
X12700000Y-52938142D01*
X12771068Y-53071101D01*
X12950393Y-53289608D01*
X13168900Y-53468932D01*
X13418193Y-53602182D01*
X13688692Y-53684236D01*
X13970000Y-53711943D01*
X14251309Y-53684236D01*
X14521808Y-53602182D01*
X14771101Y-53468932D01*
X14989608Y-53289608D01*
X15168932Y-53071101D01*
X15240000Y-52938142D01*
X15311068Y-53071101D01*
%TA.AperFunction,Conductor*%
D24*
G36*
X15311068Y-53071101D02*
G01*
X15490393Y-53289608D01*
X15708900Y-53468932D01*
X15958193Y-53602182D01*
X16228692Y-53684236D01*
X16510000Y-53711943D01*
X16791309Y-53684236D01*
X16853724Y-53665303D01*
X19663470Y-56475049D01*
X19691183Y-56508817D01*
X19724951Y-56536530D01*
X19724953Y-56536532D01*
X19825941Y-56619411D01*
X19979686Y-56701589D01*
X20146510Y-56752195D01*
X20276523Y-56765000D01*
X20276531Y-56765000D01*
X20320000Y-56769281D01*
X20363469Y-56765000D01*
X27573422Y-56765000D01*
X29595000Y-58786579D01*
X29595001Y-73347218D01*
X29491308Y-73315764D01*
X29210000Y-73288057D01*
X28928691Y-73315764D01*
X28658192Y-73397818D01*
X28408899Y-73531068D01*
X28190392Y-73710393D01*
X28011068Y-73928900D01*
X27940000Y-74061858D01*
X27868932Y-73928899D01*
X27689607Y-73710392D01*
X27471100Y-73531068D01*
X27221807Y-73397818D01*
X26951308Y-73315764D01*
X26670000Y-73288057D01*
X26388691Y-73315764D01*
X26118192Y-73397818D01*
X25868899Y-73531068D01*
X25650392Y-73710393D01*
X25471068Y-73928900D01*
X25400000Y-74061858D01*
X25328932Y-73928899D01*
X25149607Y-73710392D01*
X24931100Y-73531068D01*
X24681807Y-73397818D01*
X24411308Y-73315764D01*
X24130000Y-73288057D01*
X23848691Y-73315764D01*
X23578192Y-73397818D01*
X23328899Y-73531068D01*
X23110392Y-73710393D01*
X22931068Y-73928900D01*
X22860000Y-74061858D01*
X22788932Y-73928899D01*
X22609607Y-73710392D01*
X22391100Y-73531068D01*
X22141807Y-73397818D01*
X21871308Y-73315764D01*
X21590000Y-73288057D01*
X21308691Y-73315764D01*
X21038192Y-73397818D01*
X20788899Y-73531068D01*
X20570392Y-73710393D01*
X20391068Y-73928900D01*
X20320000Y-74061858D01*
X20248932Y-73928899D01*
X20069607Y-73710392D01*
X19851100Y-73531068D01*
X19601807Y-73397818D01*
X19331308Y-73315764D01*
X19050000Y-73288057D01*
X18768691Y-73315764D01*
X18498192Y-73397818D01*
X18248899Y-73531068D01*
X18030392Y-73710393D01*
X17851068Y-73928900D01*
X17780000Y-74061858D01*
X17708932Y-73928899D01*
X17529607Y-73710392D01*
X17311100Y-73531068D01*
X17061807Y-73397818D01*
X16791308Y-73315764D01*
X16510000Y-73288057D01*
X16228691Y-73315764D01*
X15958192Y-73397818D01*
X15708899Y-73531068D01*
X15490392Y-73710393D01*
X15311068Y-73928900D01*
X15240000Y-74061858D01*
X15168932Y-73928899D01*
X14989607Y-73710392D01*
X14771100Y-73531068D01*
X14521807Y-73397818D01*
X14251308Y-73315764D01*
X13970000Y-73288057D01*
X13688691Y-73315764D01*
X13418192Y-73397818D01*
X13168899Y-73531068D01*
X13007559Y-73663477D01*
X12960537Y-73575506D01*
X12881185Y-73478815D01*
X12784494Y-73399463D01*
X12674180Y-73340498D01*
X12554482Y-73304188D01*
X12430000Y-73291928D01*
X10870000Y-73291928D01*
X10870000Y-53597803D01*
X10878193Y-53602182D01*
X11148692Y-53684236D01*
X11430000Y-53711943D01*
X11711309Y-53684236D01*
X11981808Y-53602182D01*
X12231101Y-53468932D01*
X12449608Y-53289608D01*
X12628932Y-53071101D01*
X12700000Y-52938142D01*
X12771068Y-53071101D01*
X12950393Y-53289608D01*
X13168900Y-53468932D01*
X13418193Y-53602182D01*
X13688692Y-53684236D01*
X13970000Y-53711943D01*
X14251309Y-53684236D01*
X14521808Y-53602182D01*
X14771101Y-53468932D01*
X14989608Y-53289608D01*
X15168932Y-53071101D01*
X15240000Y-52938142D01*
X15311068Y-53071101D01*
G37*
%TD.AperFunction*%
%TD*%
M02*
