%TF.GenerationSoftware,KiCad,Pcbnew,(5.1.10)-1*%
%TF.CreationDate,2021-07-28T16:14:29+02:00*%
%TF.ProjectId,LEDBeam,4c454442-6561-46d2-9e6b-696361645f70,rev?*%
%TF.SameCoordinates,Original*%
%TF.FileFunction,Legend,Top*%
%TF.FilePolarity,Positive*%
%FSLAX46Y46*%
G04 Gerber Fmt 4.6, Leading zero omitted, Abs format (unit mm)*
G04 Created by KiCad (PCBNEW (5.1.10)-1) date 2021-07-28 16:14:29*
%MOMM*%
%LPD*%
G01*
G04 APERTURE LIST*
%ADD10C,0.150000*%
%ADD11C,0.120000*%
%ADD12O,1.700000X1.700000*%
%ADD13R,1.700000X1.700000*%
%ADD14O,2.000000X1.905000*%
%ADD15R,2.000000X1.905000*%
%ADD16O,1.600000X1.600000*%
%ADD17C,1.600000*%
%ADD18O,1.600000X2.000000*%
%ADD19R,2.000000X2.000000*%
%ADD20C,2.300000*%
%ADD21C,3.000000*%
G04 APERTURE END LIST*
D10*
X14748095Y-92273428D02*
X15510000Y-92273428D01*
X15129047Y-92654380D02*
X15129047Y-91892476D01*
X15938571Y-91749619D02*
X15986190Y-91702000D01*
X16081428Y-91654380D01*
X16319523Y-91654380D01*
X16414761Y-91702000D01*
X16462380Y-91749619D01*
X16510000Y-91844857D01*
X16510000Y-91940095D01*
X16462380Y-92082952D01*
X15890952Y-92654380D01*
X16510000Y-92654380D01*
X17367142Y-91987714D02*
X17367142Y-92654380D01*
X17129047Y-91606761D02*
X16890952Y-92321047D01*
X17510000Y-92321047D01*
X17748095Y-91654380D02*
X18081428Y-92654380D01*
X18414761Y-91654380D01*
X20574095Y-91702000D02*
X20478857Y-91654380D01*
X20336000Y-91654380D01*
X20193142Y-91702000D01*
X20097904Y-91797238D01*
X20050285Y-91892476D01*
X20002666Y-92082952D01*
X20002666Y-92225809D01*
X20050285Y-92416285D01*
X20097904Y-92511523D01*
X20193142Y-92606761D01*
X20336000Y-92654380D01*
X20431238Y-92654380D01*
X20574095Y-92606761D01*
X20621714Y-92559142D01*
X20621714Y-92225809D01*
X20431238Y-92225809D01*
X21050285Y-92654380D02*
X21050285Y-91654380D01*
X21621714Y-92654380D01*
X21621714Y-91654380D01*
X22097904Y-92654380D02*
X22097904Y-91654380D01*
X22336000Y-91654380D01*
X22478857Y-91702000D01*
X22574095Y-91797238D01*
X22621714Y-91892476D01*
X22669333Y-92082952D01*
X22669333Y-92225809D01*
X22621714Y-92416285D01*
X22574095Y-92511523D01*
X22478857Y-92606761D01*
X22336000Y-92654380D01*
X22097904Y-92654380D01*
X41727428Y-91820952D02*
X41727428Y-91059047D01*
X42108380Y-91440000D02*
X41346476Y-91440000D01*
X41727428Y-96646952D02*
X41727428Y-95885047D01*
X42426000Y-84073904D02*
X42378380Y-84169142D01*
X42378380Y-84312000D01*
X42426000Y-84454857D01*
X42521238Y-84550095D01*
X42616476Y-84597714D01*
X42806952Y-84645333D01*
X42949809Y-84645333D01*
X43140285Y-84597714D01*
X43235523Y-84550095D01*
X43330761Y-84454857D01*
X43378380Y-84312000D01*
X43378380Y-84216761D01*
X43330761Y-84073904D01*
X43283142Y-84026285D01*
X42949809Y-84026285D01*
X42949809Y-84216761D01*
X43378380Y-83597714D02*
X42378380Y-83597714D01*
X43378380Y-83026285D01*
X42378380Y-83026285D01*
X43378380Y-82550095D02*
X42378380Y-82550095D01*
X42378380Y-82312000D01*
X42426000Y-82169142D01*
X42521238Y-82073904D01*
X42616476Y-82026285D01*
X42806952Y-81978666D01*
X42949809Y-81978666D01*
X43140285Y-82026285D01*
X43235523Y-82073904D01*
X43330761Y-82169142D01*
X43378380Y-82312000D01*
X43378380Y-82550095D01*
X42378380Y-81629142D02*
X43378380Y-81295809D01*
X42378380Y-80962476D01*
X42378380Y-80438666D02*
X42378380Y-80248190D01*
X42426000Y-80152952D01*
X42521238Y-80057714D01*
X42711714Y-80010095D01*
X43045047Y-80010095D01*
X43235523Y-80057714D01*
X43330761Y-80152952D01*
X43378380Y-80248190D01*
X43378380Y-80438666D01*
X43330761Y-80533904D01*
X43235523Y-80629142D01*
X43045047Y-80676761D01*
X42711714Y-80676761D01*
X42521238Y-80629142D01*
X42426000Y-80533904D01*
X42378380Y-80438666D01*
X42378380Y-86423428D02*
X43378380Y-86090095D01*
X42378380Y-85756761D01*
X43378380Y-85423428D02*
X42378380Y-85423428D01*
X17240952Y-64730380D02*
X17479047Y-65730380D01*
X17669523Y-65016095D01*
X17860000Y-65730380D01*
X18098095Y-64730380D01*
X18860000Y-65682761D02*
X18764761Y-65730380D01*
X18574285Y-65730380D01*
X18479047Y-65682761D01*
X18431428Y-65587523D01*
X18431428Y-65206571D01*
X18479047Y-65111333D01*
X18574285Y-65063714D01*
X18764761Y-65063714D01*
X18860000Y-65111333D01*
X18907619Y-65206571D01*
X18907619Y-65301809D01*
X18431428Y-65397047D01*
X19336190Y-65730380D02*
X19336190Y-64730380D01*
X19669523Y-65444666D01*
X20002857Y-64730380D01*
X20002857Y-65730380D01*
X20621904Y-65730380D02*
X20526666Y-65682761D01*
X20479047Y-65635142D01*
X20431428Y-65539904D01*
X20431428Y-65254190D01*
X20479047Y-65158952D01*
X20526666Y-65111333D01*
X20621904Y-65063714D01*
X20764761Y-65063714D01*
X20860000Y-65111333D01*
X20907619Y-65158952D01*
X20955238Y-65254190D01*
X20955238Y-65539904D01*
X20907619Y-65635142D01*
X20860000Y-65682761D01*
X20764761Y-65730380D01*
X20621904Y-65730380D01*
X21336190Y-65682761D02*
X21431428Y-65730380D01*
X21621904Y-65730380D01*
X21717142Y-65682761D01*
X21764761Y-65587523D01*
X21764761Y-65539904D01*
X21717142Y-65444666D01*
X21621904Y-65397047D01*
X21479047Y-65397047D01*
X21383809Y-65349428D01*
X21336190Y-65254190D01*
X21336190Y-65206571D01*
X21383809Y-65111333D01*
X21479047Y-65063714D01*
X21621904Y-65063714D01*
X21717142Y-65111333D01*
X22955238Y-65730380D02*
X22955238Y-64730380D01*
X23193333Y-64730380D01*
X23336190Y-64778000D01*
X23431428Y-64873238D01*
X23479047Y-64968476D01*
X23526666Y-65158952D01*
X23526666Y-65301809D01*
X23479047Y-65492285D01*
X23431428Y-65587523D01*
X23336190Y-65682761D01*
X23193333Y-65730380D01*
X22955238Y-65730380D01*
X24479047Y-65730380D02*
X23907619Y-65730380D01*
X24193333Y-65730380D02*
X24193333Y-64730380D01*
X24098095Y-64873238D01*
X24002857Y-64968476D01*
X23907619Y-65016095D01*
X25669523Y-65730380D02*
X25669523Y-65063714D01*
X25669523Y-65158952D02*
X25717142Y-65111333D01*
X25812380Y-65063714D01*
X25955238Y-65063714D01*
X26050476Y-65111333D01*
X26098095Y-65206571D01*
X26098095Y-65730380D01*
X26098095Y-65206571D02*
X26145714Y-65111333D01*
X26240952Y-65063714D01*
X26383809Y-65063714D01*
X26479047Y-65111333D01*
X26526666Y-65206571D01*
X26526666Y-65730380D01*
X27002857Y-65730380D02*
X27002857Y-65063714D01*
X27002857Y-64730380D02*
X26955238Y-64778000D01*
X27002857Y-64825619D01*
X27050476Y-64778000D01*
X27002857Y-64730380D01*
X27002857Y-64825619D01*
X27479047Y-65063714D02*
X27479047Y-65730380D01*
X27479047Y-65158952D02*
X27526666Y-65111333D01*
X27621904Y-65063714D01*
X27764761Y-65063714D01*
X27860000Y-65111333D01*
X27907619Y-65206571D01*
X27907619Y-65730380D01*
X28383809Y-65730380D02*
X28383809Y-65063714D01*
X28383809Y-64730380D02*
X28336190Y-64778000D01*
X28383809Y-64825619D01*
X28431428Y-64778000D01*
X28383809Y-64730380D01*
X28383809Y-64825619D01*
X18740571Y-94353571D02*
X18883428Y-94401190D01*
X18931047Y-94448809D01*
X18978666Y-94544047D01*
X18978666Y-94686904D01*
X18931047Y-94782142D01*
X18883428Y-94829761D01*
X18788190Y-94877380D01*
X18407238Y-94877380D01*
X18407238Y-93877380D01*
X18740571Y-93877380D01*
X18835809Y-93925000D01*
X18883428Y-93972619D01*
X18931047Y-94067857D01*
X18931047Y-94163095D01*
X18883428Y-94258333D01*
X18835809Y-94305952D01*
X18740571Y-94353571D01*
X18407238Y-94353571D01*
X19550095Y-94877380D02*
X19454857Y-94829761D01*
X19407238Y-94734523D01*
X19407238Y-93877380D01*
X20359619Y-94210714D02*
X20359619Y-94877380D01*
X19931047Y-94210714D02*
X19931047Y-94734523D01*
X19978666Y-94829761D01*
X20073904Y-94877380D01*
X20216761Y-94877380D01*
X20312000Y-94829761D01*
X20359619Y-94782142D01*
X21216761Y-94829761D02*
X21121523Y-94877380D01*
X20931047Y-94877380D01*
X20835809Y-94829761D01*
X20788190Y-94734523D01*
X20788190Y-94353571D01*
X20835809Y-94258333D01*
X20931047Y-94210714D01*
X21121523Y-94210714D01*
X21216761Y-94258333D01*
X21264380Y-94353571D01*
X21264380Y-94448809D01*
X20788190Y-94544047D01*
X18359619Y-96527380D02*
X18359619Y-95527380D01*
X18359619Y-96479761D02*
X18264380Y-96527380D01*
X18073904Y-96527380D01*
X17978666Y-96479761D01*
X17931047Y-96432142D01*
X17883428Y-96336904D01*
X17883428Y-96051190D01*
X17931047Y-95955952D01*
X17978666Y-95908333D01*
X18073904Y-95860714D01*
X18264380Y-95860714D01*
X18359619Y-95908333D01*
X18835809Y-96527380D02*
X18835809Y-95860714D01*
X18835809Y-96051190D02*
X18883428Y-95955952D01*
X18931047Y-95908333D01*
X19026285Y-95860714D01*
X19121523Y-95860714D01*
X19454857Y-96527380D02*
X19454857Y-95860714D01*
X19454857Y-95527380D02*
X19407238Y-95575000D01*
X19454857Y-95622619D01*
X19502476Y-95575000D01*
X19454857Y-95527380D01*
X19454857Y-95622619D01*
X19835809Y-95860714D02*
X20073904Y-96527380D01*
X20312000Y-95860714D01*
X21073904Y-96479761D02*
X20978666Y-96527380D01*
X20788190Y-96527380D01*
X20692952Y-96479761D01*
X20645333Y-96384523D01*
X20645333Y-96003571D01*
X20692952Y-95908333D01*
X20788190Y-95860714D01*
X20978666Y-95860714D01*
X21073904Y-95908333D01*
X21121523Y-96003571D01*
X21121523Y-96098809D01*
X20645333Y-96194047D01*
X21550095Y-96527380D02*
X21550095Y-95860714D01*
X21550095Y-96051190D02*
X21597714Y-95955952D01*
X21645333Y-95908333D01*
X21740571Y-95860714D01*
X21835809Y-95860714D01*
X29408666Y-93877380D02*
X29646761Y-94877380D01*
X29837238Y-94163095D01*
X30027714Y-94877380D01*
X30265809Y-93877380D01*
X30646761Y-94877380D02*
X30646761Y-93877380D01*
X31075333Y-94877380D02*
X31075333Y-94353571D01*
X31027714Y-94258333D01*
X30932476Y-94210714D01*
X30789619Y-94210714D01*
X30694380Y-94258333D01*
X30646761Y-94305952D01*
X31551523Y-94877380D02*
X31551523Y-94210714D01*
X31551523Y-93877380D02*
X31503904Y-93925000D01*
X31551523Y-93972619D01*
X31599142Y-93925000D01*
X31551523Y-93877380D01*
X31551523Y-93972619D01*
X31884857Y-94210714D02*
X32265809Y-94210714D01*
X32027714Y-93877380D02*
X32027714Y-94734523D01*
X32075333Y-94829761D01*
X32170571Y-94877380D01*
X32265809Y-94877380D01*
X32980095Y-94829761D02*
X32884857Y-94877380D01*
X32694380Y-94877380D01*
X32599142Y-94829761D01*
X32551523Y-94734523D01*
X32551523Y-94353571D01*
X32599142Y-94258333D01*
X32694380Y-94210714D01*
X32884857Y-94210714D01*
X32980095Y-94258333D01*
X33027714Y-94353571D01*
X33027714Y-94448809D01*
X32551523Y-94544047D01*
X29789619Y-96527380D02*
X29789619Y-95527380D01*
X29789619Y-96479761D02*
X29694380Y-96527380D01*
X29503904Y-96527380D01*
X29408666Y-96479761D01*
X29361047Y-96432142D01*
X29313428Y-96336904D01*
X29313428Y-96051190D01*
X29361047Y-95955952D01*
X29408666Y-95908333D01*
X29503904Y-95860714D01*
X29694380Y-95860714D01*
X29789619Y-95908333D01*
X30265809Y-96527380D02*
X30265809Y-95860714D01*
X30265809Y-96051190D02*
X30313428Y-95955952D01*
X30361047Y-95908333D01*
X30456285Y-95860714D01*
X30551523Y-95860714D01*
X30884857Y-96527380D02*
X30884857Y-95860714D01*
X30884857Y-95527380D02*
X30837238Y-95575000D01*
X30884857Y-95622619D01*
X30932476Y-95575000D01*
X30884857Y-95527380D01*
X30884857Y-95622619D01*
X31265809Y-95860714D02*
X31503904Y-96527380D01*
X31742000Y-95860714D01*
X32503904Y-96479761D02*
X32408666Y-96527380D01*
X32218190Y-96527380D01*
X32122952Y-96479761D01*
X32075333Y-96384523D01*
X32075333Y-96003571D01*
X32122952Y-95908333D01*
X32218190Y-95860714D01*
X32408666Y-95860714D01*
X32503904Y-95908333D01*
X32551523Y-96003571D01*
X32551523Y-96098809D01*
X32075333Y-96194047D01*
X32980095Y-96527380D02*
X32980095Y-95860714D01*
X32980095Y-96051190D02*
X33027714Y-95955952D01*
X33075333Y-95908333D01*
X33170571Y-95860714D01*
X33265809Y-95860714D01*
X30670571Y-124087380D02*
X30337238Y-123611190D01*
X30099142Y-124087380D02*
X30099142Y-123087380D01*
X30480095Y-123087380D01*
X30575333Y-123135000D01*
X30622952Y-123182619D01*
X30670571Y-123277857D01*
X30670571Y-123420714D01*
X30622952Y-123515952D01*
X30575333Y-123563571D01*
X30480095Y-123611190D01*
X30099142Y-123611190D01*
X31480095Y-124039761D02*
X31384857Y-124087380D01*
X31194380Y-124087380D01*
X31099142Y-124039761D01*
X31051523Y-123944523D01*
X31051523Y-123563571D01*
X31099142Y-123468333D01*
X31194380Y-123420714D01*
X31384857Y-123420714D01*
X31480095Y-123468333D01*
X31527714Y-123563571D01*
X31527714Y-123658809D01*
X31051523Y-123754047D01*
X32384857Y-124087380D02*
X32384857Y-123087380D01*
X32384857Y-124039761D02*
X32289619Y-124087380D01*
X32099142Y-124087380D01*
X32003904Y-124039761D01*
X31956285Y-123992142D01*
X31908666Y-123896904D01*
X31908666Y-123611190D01*
X31956285Y-123515952D01*
X32003904Y-123468333D01*
X32099142Y-123420714D01*
X32289619Y-123420714D01*
X32384857Y-123468333D01*
X29313428Y-125737380D02*
X29313428Y-124737380D01*
X29551523Y-124737380D01*
X29694380Y-124785000D01*
X29789619Y-124880238D01*
X29837238Y-124975476D01*
X29884857Y-125165952D01*
X29884857Y-125308809D01*
X29837238Y-125499285D01*
X29789619Y-125594523D01*
X29694380Y-125689761D01*
X29551523Y-125737380D01*
X29313428Y-125737380D01*
X30313428Y-125737380D02*
X30313428Y-125070714D01*
X30313428Y-125261190D02*
X30361047Y-125165952D01*
X30408666Y-125118333D01*
X30503904Y-125070714D01*
X30599142Y-125070714D01*
X30932476Y-125737380D02*
X30932476Y-125070714D01*
X30932476Y-124737380D02*
X30884857Y-124785000D01*
X30932476Y-124832619D01*
X30980095Y-124785000D01*
X30932476Y-124737380D01*
X30932476Y-124832619D01*
X31313428Y-125070714D02*
X31551523Y-125737380D01*
X31789619Y-125070714D01*
X32551523Y-125689761D02*
X32456285Y-125737380D01*
X32265809Y-125737380D01*
X32170571Y-125689761D01*
X32122952Y-125594523D01*
X32122952Y-125213571D01*
X32170571Y-125118333D01*
X32265809Y-125070714D01*
X32456285Y-125070714D01*
X32551523Y-125118333D01*
X32599142Y-125213571D01*
X32599142Y-125308809D01*
X32122952Y-125404047D01*
X33027714Y-125737380D02*
X33027714Y-125070714D01*
X33027714Y-125261190D02*
X33075333Y-125165952D01*
X33122952Y-125118333D01*
X33218190Y-125070714D01*
X33313428Y-125070714D01*
X18454857Y-123135000D02*
X18359619Y-123087380D01*
X18216761Y-123087380D01*
X18073904Y-123135000D01*
X17978666Y-123230238D01*
X17931047Y-123325476D01*
X17883428Y-123515952D01*
X17883428Y-123658809D01*
X17931047Y-123849285D01*
X17978666Y-123944523D01*
X18073904Y-124039761D01*
X18216761Y-124087380D01*
X18312000Y-124087380D01*
X18454857Y-124039761D01*
X18502476Y-123992142D01*
X18502476Y-123658809D01*
X18312000Y-123658809D01*
X18931047Y-124087380D02*
X18931047Y-123420714D01*
X18931047Y-123611190D02*
X18978666Y-123515952D01*
X19026285Y-123468333D01*
X19121523Y-123420714D01*
X19216761Y-123420714D01*
X19931047Y-124039761D02*
X19835809Y-124087380D01*
X19645333Y-124087380D01*
X19550095Y-124039761D01*
X19502476Y-123944523D01*
X19502476Y-123563571D01*
X19550095Y-123468333D01*
X19645333Y-123420714D01*
X19835809Y-123420714D01*
X19931047Y-123468333D01*
X19978666Y-123563571D01*
X19978666Y-123658809D01*
X19502476Y-123754047D01*
X20788190Y-124039761D02*
X20692952Y-124087380D01*
X20502476Y-124087380D01*
X20407238Y-124039761D01*
X20359619Y-123944523D01*
X20359619Y-123563571D01*
X20407238Y-123468333D01*
X20502476Y-123420714D01*
X20692952Y-123420714D01*
X20788190Y-123468333D01*
X20835809Y-123563571D01*
X20835809Y-123658809D01*
X20359619Y-123754047D01*
X21264380Y-123420714D02*
X21264380Y-124087380D01*
X21264380Y-123515952D02*
X21312000Y-123468333D01*
X21407238Y-123420714D01*
X21550095Y-123420714D01*
X21645333Y-123468333D01*
X21692952Y-123563571D01*
X21692952Y-124087380D01*
X18359619Y-125737380D02*
X18359619Y-124737380D01*
X18359619Y-125689761D02*
X18264380Y-125737380D01*
X18073904Y-125737380D01*
X17978666Y-125689761D01*
X17931047Y-125642142D01*
X17883428Y-125546904D01*
X17883428Y-125261190D01*
X17931047Y-125165952D01*
X17978666Y-125118333D01*
X18073904Y-125070714D01*
X18264380Y-125070714D01*
X18359619Y-125118333D01*
X18835809Y-125737380D02*
X18835809Y-125070714D01*
X18835809Y-125261190D02*
X18883428Y-125165952D01*
X18931047Y-125118333D01*
X19026285Y-125070714D01*
X19121523Y-125070714D01*
X19454857Y-125737380D02*
X19454857Y-125070714D01*
X19454857Y-124737380D02*
X19407238Y-124785000D01*
X19454857Y-124832619D01*
X19502476Y-124785000D01*
X19454857Y-124737380D01*
X19454857Y-124832619D01*
X19835809Y-125070714D02*
X20073904Y-125737380D01*
X20312000Y-125070714D01*
X21073904Y-125689761D02*
X20978666Y-125737380D01*
X20788190Y-125737380D01*
X20692952Y-125689761D01*
X20645333Y-125594523D01*
X20645333Y-125213571D01*
X20692952Y-125118333D01*
X20788190Y-125070714D01*
X20978666Y-125070714D01*
X21073904Y-125118333D01*
X21121523Y-125213571D01*
X21121523Y-125308809D01*
X20645333Y-125404047D01*
X21550095Y-125737380D02*
X21550095Y-125070714D01*
X21550095Y-125261190D02*
X21597714Y-125165952D01*
X21645333Y-125118333D01*
X21740571Y-125070714D01*
X21835809Y-125070714D01*
X41108380Y-112807619D02*
X42108380Y-112569523D01*
X41394095Y-112379047D01*
X42108380Y-112188571D01*
X41108380Y-111950476D01*
X41727428Y-111569523D02*
X41727428Y-110807619D01*
X41108380Y-115347619D02*
X42108380Y-115109523D01*
X41394095Y-114919047D01*
X42108380Y-114728571D01*
X41108380Y-114490476D01*
X41727428Y-114109523D02*
X41727428Y-113347619D01*
X42108380Y-113728571D02*
X41346476Y-113728571D01*
X41584571Y-117387619D02*
X41632190Y-117244761D01*
X41679809Y-117197142D01*
X41775047Y-117149523D01*
X41917904Y-117149523D01*
X42013142Y-117197142D01*
X42060761Y-117244761D01*
X42108380Y-117340000D01*
X42108380Y-117720952D01*
X41108380Y-117720952D01*
X41108380Y-117387619D01*
X41156000Y-117292380D01*
X41203619Y-117244761D01*
X41298857Y-117197142D01*
X41394095Y-117197142D01*
X41489333Y-117244761D01*
X41536952Y-117292380D01*
X41584571Y-117387619D01*
X41584571Y-117720952D01*
X41727428Y-116720952D02*
X41727428Y-115959047D01*
X41584571Y-119927619D02*
X41632190Y-119784761D01*
X41679809Y-119737142D01*
X41775047Y-119689523D01*
X41917904Y-119689523D01*
X42013142Y-119737142D01*
X42060761Y-119784761D01*
X42108380Y-119880000D01*
X42108380Y-120260952D01*
X41108380Y-120260952D01*
X41108380Y-119927619D01*
X41156000Y-119832380D01*
X41203619Y-119784761D01*
X41298857Y-119737142D01*
X41394095Y-119737142D01*
X41489333Y-119784761D01*
X41536952Y-119832380D01*
X41584571Y-119927619D01*
X41584571Y-120260952D01*
X41727428Y-119260952D02*
X41727428Y-118499047D01*
X42108380Y-118880000D02*
X41346476Y-118880000D01*
X41156000Y-122277142D02*
X41108380Y-122372380D01*
X41108380Y-122515238D01*
X41156000Y-122658095D01*
X41251238Y-122753333D01*
X41346476Y-122800952D01*
X41536952Y-122848571D01*
X41679809Y-122848571D01*
X41870285Y-122800952D01*
X41965523Y-122753333D01*
X42060761Y-122658095D01*
X42108380Y-122515238D01*
X42108380Y-122420000D01*
X42060761Y-122277142D01*
X42013142Y-122229523D01*
X41679809Y-122229523D01*
X41679809Y-122420000D01*
X41727428Y-121800952D02*
X41727428Y-121039047D01*
X41156000Y-124817142D02*
X41108380Y-124912380D01*
X41108380Y-125055238D01*
X41156000Y-125198095D01*
X41251238Y-125293333D01*
X41346476Y-125340952D01*
X41536952Y-125388571D01*
X41679809Y-125388571D01*
X41870285Y-125340952D01*
X41965523Y-125293333D01*
X42060761Y-125198095D01*
X42108380Y-125055238D01*
X42108380Y-124960000D01*
X42060761Y-124817142D01*
X42013142Y-124769523D01*
X41679809Y-124769523D01*
X41679809Y-124960000D01*
X41727428Y-124340952D02*
X41727428Y-123579047D01*
X42108380Y-123960000D02*
X41346476Y-123960000D01*
X42108380Y-127309523D02*
X41632190Y-127642857D01*
X42108380Y-127880952D02*
X41108380Y-127880952D01*
X41108380Y-127500000D01*
X41156000Y-127404761D01*
X41203619Y-127357142D01*
X41298857Y-127309523D01*
X41441714Y-127309523D01*
X41536952Y-127357142D01*
X41584571Y-127404761D01*
X41632190Y-127500000D01*
X41632190Y-127880952D01*
X41727428Y-126880952D02*
X41727428Y-126119047D01*
X42108380Y-129849523D02*
X41632190Y-130182857D01*
X42108380Y-130420952D02*
X41108380Y-130420952D01*
X41108380Y-130040000D01*
X41156000Y-129944761D01*
X41203619Y-129897142D01*
X41298857Y-129849523D01*
X41441714Y-129849523D01*
X41536952Y-129897142D01*
X41584571Y-129944761D01*
X41632190Y-130040000D01*
X41632190Y-130420952D01*
X41727428Y-129420952D02*
X41727428Y-128659047D01*
X42108380Y-129040000D02*
X41346476Y-129040000D01*
D11*
%TO.C,U6*%
X31242000Y-115122000D02*
X29912000Y-115122000D01*
X29912000Y-115122000D02*
X29912000Y-113792000D01*
X29912000Y-112522000D02*
X29912000Y-97222000D01*
X32572000Y-97222000D02*
X29912000Y-97222000D01*
X32572000Y-112522000D02*
X32572000Y-97222000D01*
X32572000Y-112522000D02*
X29912000Y-112522000D01*
%TO.C,U5*%
X19812000Y-115122000D02*
X18482000Y-115122000D01*
X18482000Y-115122000D02*
X18482000Y-113792000D01*
X18482000Y-112522000D02*
X18482000Y-97222000D01*
X21142000Y-97222000D02*
X18482000Y-97222000D01*
X21142000Y-112522000D02*
X21142000Y-97222000D01*
X21142000Y-112522000D02*
X18482000Y-112522000D01*
%TO.C,U3*%
X19812000Y-144332000D02*
X18482000Y-144332000D01*
X18482000Y-144332000D02*
X18482000Y-143002000D01*
X18482000Y-141732000D02*
X18482000Y-126432000D01*
X21142000Y-126432000D02*
X18482000Y-126432000D01*
X21142000Y-141732000D02*
X21142000Y-126432000D01*
X21142000Y-141732000D02*
X18482000Y-141732000D01*
%TO.C,U2*%
X31242000Y-144332000D02*
X29912000Y-144332000D01*
X29912000Y-144332000D02*
X29912000Y-143002000D01*
X29912000Y-141732000D02*
X29912000Y-126432000D01*
X32572000Y-126432000D02*
X29912000Y-126432000D01*
X32572000Y-141732000D02*
X32572000Y-126432000D01*
X32572000Y-141732000D02*
X29912000Y-141732000D01*
%TO.C,U4*%
X37370000Y-88432000D02*
X37370000Y-78192000D01*
X42011000Y-88432000D02*
X42011000Y-78192000D01*
X37370000Y-88432000D02*
X42011000Y-88432000D01*
X37370000Y-78192000D02*
X42011000Y-78192000D01*
X38880000Y-88432000D02*
X38880000Y-78192000D01*
X37370000Y-85162000D02*
X38880000Y-85162000D01*
X37370000Y-81461000D02*
X38880000Y-81461000D01*
%TO.C,R1*%
X41656000Y-62254000D02*
X41656000Y-63024000D01*
X41656000Y-70334000D02*
X41656000Y-69564000D01*
X40286000Y-63024000D02*
X40286000Y-69564000D01*
X43026000Y-63024000D02*
X40286000Y-63024000D01*
X43026000Y-69564000D02*
X43026000Y-63024000D01*
X40286000Y-69564000D02*
X43026000Y-69564000D01*
%TO.C,U1*%
X37550000Y-73890000D02*
X37550000Y-50570000D01*
X30650000Y-76430000D02*
X5220000Y-76430000D01*
X37550000Y-50570000D02*
X5220000Y-50570000D01*
X3090000Y-52690000D02*
X3090000Y-74300000D01*
D10*
G36*
X10795000Y-77470000D02*
G01*
X12065000Y-77470000D01*
X11430000Y-76835000D01*
X10795000Y-77470000D01*
G37*
X10795000Y-77470000D02*
X12065000Y-77470000D01*
X11430000Y-76835000D01*
X10795000Y-77470000D01*
D11*
X30650000Y-76430000D02*
X30650000Y-73890000D01*
X30650000Y-73890000D02*
X37550000Y-73890000D01*
X3090000Y-52700000D02*
G75*
G02*
X5220000Y-50570000I2130000J0D01*
G01*
X5220000Y-76430000D02*
G75*
G02*
X3090000Y-74300000I0J2130000D01*
G01*
%TO.C,F1*%
X12198000Y-77242000D02*
X12198000Y-80042000D01*
X12198000Y-84042000D02*
X12198000Y-86842000D01*
X34798000Y-84042000D02*
X34798000Y-86842000D01*
X34798000Y-86842000D02*
X12198000Y-86842000D01*
X34798000Y-77242000D02*
X12198000Y-77242000D01*
X34798000Y-77242000D02*
X34798000Y-80042000D01*
%TO.C,D1*%
X40446000Y-110430000D02*
X37786000Y-110430000D01*
X40446000Y-128270000D02*
X40446000Y-110430000D01*
X37786000Y-128270000D02*
X37786000Y-110430000D01*
X40446000Y-128270000D02*
X37786000Y-128270000D01*
X40446000Y-129540000D02*
X40446000Y-130870000D01*
X40446000Y-130870000D02*
X39116000Y-130870000D01*
%TO.C,U6*%
D10*
X30480095Y-116014380D02*
X30480095Y-116823904D01*
X30527714Y-116919142D01*
X30575333Y-116966761D01*
X30670571Y-117014380D01*
X30861047Y-117014380D01*
X30956285Y-116966761D01*
X31003904Y-116919142D01*
X31051523Y-116823904D01*
X31051523Y-116014380D01*
X31956285Y-116014380D02*
X31765809Y-116014380D01*
X31670571Y-116062000D01*
X31622952Y-116109619D01*
X31527714Y-116252476D01*
X31480095Y-116442952D01*
X31480095Y-116823904D01*
X31527714Y-116919142D01*
X31575333Y-116966761D01*
X31670571Y-117014380D01*
X31861047Y-117014380D01*
X31956285Y-116966761D01*
X32003904Y-116919142D01*
X32051523Y-116823904D01*
X32051523Y-116585809D01*
X32003904Y-116490571D01*
X31956285Y-116442952D01*
X31861047Y-116395333D01*
X31670571Y-116395333D01*
X31575333Y-116442952D01*
X31527714Y-116490571D01*
X31480095Y-116585809D01*
%TO.C,U5*%
X19050095Y-116014380D02*
X19050095Y-116823904D01*
X19097714Y-116919142D01*
X19145333Y-116966761D01*
X19240571Y-117014380D01*
X19431047Y-117014380D01*
X19526285Y-116966761D01*
X19573904Y-116919142D01*
X19621523Y-116823904D01*
X19621523Y-116014380D01*
X20573904Y-116014380D02*
X20097714Y-116014380D01*
X20050095Y-116490571D01*
X20097714Y-116442952D01*
X20192952Y-116395333D01*
X20431047Y-116395333D01*
X20526285Y-116442952D01*
X20573904Y-116490571D01*
X20621523Y-116585809D01*
X20621523Y-116823904D01*
X20573904Y-116919142D01*
X20526285Y-116966761D01*
X20431047Y-117014380D01*
X20192952Y-117014380D01*
X20097714Y-116966761D01*
X20050095Y-116919142D01*
%TO.C,U3*%
X19050095Y-145224380D02*
X19050095Y-146033904D01*
X19097714Y-146129142D01*
X19145333Y-146176761D01*
X19240571Y-146224380D01*
X19431047Y-146224380D01*
X19526285Y-146176761D01*
X19573904Y-146129142D01*
X19621523Y-146033904D01*
X19621523Y-145224380D01*
X20002476Y-145224380D02*
X20621523Y-145224380D01*
X20288190Y-145605333D01*
X20431047Y-145605333D01*
X20526285Y-145652952D01*
X20573904Y-145700571D01*
X20621523Y-145795809D01*
X20621523Y-146033904D01*
X20573904Y-146129142D01*
X20526285Y-146176761D01*
X20431047Y-146224380D01*
X20145333Y-146224380D01*
X20050095Y-146176761D01*
X20002476Y-146129142D01*
%TO.C,U2*%
X30480095Y-145224380D02*
X30480095Y-146033904D01*
X30527714Y-146129142D01*
X30575333Y-146176761D01*
X30670571Y-146224380D01*
X30861047Y-146224380D01*
X30956285Y-146176761D01*
X31003904Y-146129142D01*
X31051523Y-146033904D01*
X31051523Y-145224380D01*
X31480095Y-145319619D02*
X31527714Y-145272000D01*
X31622952Y-145224380D01*
X31861047Y-145224380D01*
X31956285Y-145272000D01*
X32003904Y-145319619D01*
X32051523Y-145414857D01*
X32051523Y-145510095D01*
X32003904Y-145652952D01*
X31432476Y-146224380D01*
X32051523Y-146224380D01*
%TO.C,U4*%
X35822380Y-84073904D02*
X36631904Y-84073904D01*
X36727142Y-84026285D01*
X36774761Y-83978666D01*
X36822380Y-83883428D01*
X36822380Y-83692952D01*
X36774761Y-83597714D01*
X36727142Y-83550095D01*
X36631904Y-83502476D01*
X35822380Y-83502476D01*
X36155714Y-82597714D02*
X36822380Y-82597714D01*
X35774761Y-82835809D02*
X36489047Y-83073904D01*
X36489047Y-82454857D01*
%TO.C,R1*%
X39738380Y-66460666D02*
X39262190Y-66794000D01*
X39738380Y-67032095D02*
X38738380Y-67032095D01*
X38738380Y-66651142D01*
X38786000Y-66555904D01*
X38833619Y-66508285D01*
X38928857Y-66460666D01*
X39071714Y-66460666D01*
X39166952Y-66508285D01*
X39214571Y-66555904D01*
X39262190Y-66651142D01*
X39262190Y-67032095D01*
X39738380Y-65508285D02*
X39738380Y-66079714D01*
X39738380Y-65794000D02*
X38738380Y-65794000D01*
X38881238Y-65889238D01*
X38976476Y-65984476D01*
X39024095Y-66079714D01*
%TO.C,U1*%
X37882380Y-53691904D02*
X38691904Y-53691904D01*
X38787142Y-53644285D01*
X38834761Y-53596666D01*
X38882380Y-53501428D01*
X38882380Y-53310952D01*
X38834761Y-53215714D01*
X38787142Y-53168095D01*
X38691904Y-53120476D01*
X37882380Y-53120476D01*
X38882380Y-52120476D02*
X38882380Y-52691904D01*
X38882380Y-52406190D02*
X37882380Y-52406190D01*
X38025238Y-52501428D01*
X38120476Y-52596666D01*
X38168095Y-52691904D01*
%TO.C,J3*%
X39076380Y-99647333D02*
X39790666Y-99647333D01*
X39933523Y-99694952D01*
X40028761Y-99790190D01*
X40076380Y-99933047D01*
X40076380Y-100028285D01*
X39076380Y-99266380D02*
X39076380Y-98647333D01*
X39457333Y-98980666D01*
X39457333Y-98837809D01*
X39504952Y-98742571D01*
X39552571Y-98694952D01*
X39647809Y-98647333D01*
X39885904Y-98647333D01*
X39981142Y-98694952D01*
X40028761Y-98742571D01*
X40076380Y-98837809D01*
X40076380Y-99123523D01*
X40028761Y-99218761D01*
X39981142Y-99266380D01*
X37790380Y-97226000D02*
X36790380Y-97226000D01*
X36790380Y-96845047D01*
X36838000Y-96749809D01*
X36885619Y-96702190D01*
X36980857Y-96654571D01*
X37123714Y-96654571D01*
X37218952Y-96702190D01*
X37266571Y-96749809D01*
X37314190Y-96845047D01*
X37314190Y-97226000D01*
X37790380Y-96083142D02*
X37742761Y-96178380D01*
X37695142Y-96226000D01*
X37599904Y-96273619D01*
X37314190Y-96273619D01*
X37218952Y-96226000D01*
X37171333Y-96178380D01*
X37123714Y-96083142D01*
X37123714Y-95940285D01*
X37171333Y-95845047D01*
X37218952Y-95797428D01*
X37314190Y-95749809D01*
X37599904Y-95749809D01*
X37695142Y-95797428D01*
X37742761Y-95845047D01*
X37790380Y-95940285D01*
X37790380Y-96083142D01*
X37123714Y-95416476D02*
X37790380Y-95226000D01*
X37314190Y-95035523D01*
X37790380Y-94845047D01*
X37123714Y-94654571D01*
X37742761Y-93892666D02*
X37790380Y-93987904D01*
X37790380Y-94178380D01*
X37742761Y-94273619D01*
X37647523Y-94321238D01*
X37266571Y-94321238D01*
X37171333Y-94273619D01*
X37123714Y-94178380D01*
X37123714Y-93987904D01*
X37171333Y-93892666D01*
X37266571Y-93845047D01*
X37361809Y-93845047D01*
X37457047Y-94321238D01*
X37790380Y-93416476D02*
X37123714Y-93416476D01*
X37314190Y-93416476D02*
X37218952Y-93368857D01*
X37171333Y-93321238D01*
X37123714Y-93226000D01*
X37123714Y-93130761D01*
X37790380Y-91892666D02*
X37742761Y-91987904D01*
X37647523Y-92035523D01*
X36790380Y-92035523D01*
X37742761Y-91130761D02*
X37790380Y-91226000D01*
X37790380Y-91416476D01*
X37742761Y-91511714D01*
X37647523Y-91559333D01*
X37266571Y-91559333D01*
X37171333Y-91511714D01*
X37123714Y-91416476D01*
X37123714Y-91226000D01*
X37171333Y-91130761D01*
X37266571Y-91083142D01*
X37361809Y-91083142D01*
X37457047Y-91559333D01*
X37790380Y-90226000D02*
X36790380Y-90226000D01*
X37742761Y-90226000D02*
X37790380Y-90321238D01*
X37790380Y-90511714D01*
X37742761Y-90606952D01*
X37695142Y-90654571D01*
X37599904Y-90702190D01*
X37314190Y-90702190D01*
X37218952Y-90654571D01*
X37171333Y-90606952D01*
X37123714Y-90511714D01*
X37123714Y-90321238D01*
X37171333Y-90226000D01*
%TO.C,J2*%
X27746666Y-91718380D02*
X27746666Y-92432666D01*
X27699047Y-92575523D01*
X27603809Y-92670761D01*
X27460952Y-92718380D01*
X27365714Y-92718380D01*
X28175238Y-91813619D02*
X28222857Y-91766000D01*
X28318095Y-91718380D01*
X28556190Y-91718380D01*
X28651428Y-91766000D01*
X28699047Y-91813619D01*
X28746666Y-91908857D01*
X28746666Y-92004095D01*
X28699047Y-92146952D01*
X28127619Y-92718380D01*
X28746666Y-92718380D01*
X25865714Y-87970761D02*
X26008571Y-88018380D01*
X26246666Y-88018380D01*
X26341904Y-87970761D01*
X26389523Y-87923142D01*
X26437142Y-87827904D01*
X26437142Y-87732666D01*
X26389523Y-87637428D01*
X26341904Y-87589809D01*
X26246666Y-87542190D01*
X26056190Y-87494571D01*
X25960952Y-87446952D01*
X25913333Y-87399333D01*
X25865714Y-87304095D01*
X25865714Y-87208857D01*
X25913333Y-87113619D01*
X25960952Y-87066000D01*
X26056190Y-87018380D01*
X26294285Y-87018380D01*
X26437142Y-87066000D01*
X26770476Y-87351714D02*
X26960952Y-88018380D01*
X27151428Y-87542190D01*
X27341904Y-88018380D01*
X27532380Y-87351714D01*
X27913333Y-88018380D02*
X27913333Y-87351714D01*
X27913333Y-87018380D02*
X27865714Y-87066000D01*
X27913333Y-87113619D01*
X27960952Y-87066000D01*
X27913333Y-87018380D01*
X27913333Y-87113619D01*
X28246666Y-87351714D02*
X28627619Y-87351714D01*
X28389523Y-87018380D02*
X28389523Y-87875523D01*
X28437142Y-87970761D01*
X28532380Y-88018380D01*
X28627619Y-88018380D01*
X29389523Y-87970761D02*
X29294285Y-88018380D01*
X29103809Y-88018380D01*
X29008571Y-87970761D01*
X28960952Y-87923142D01*
X28913333Y-87827904D01*
X28913333Y-87542190D01*
X28960952Y-87446952D01*
X29008571Y-87399333D01*
X29103809Y-87351714D01*
X29294285Y-87351714D01*
X29389523Y-87399333D01*
X29818095Y-88018380D02*
X29818095Y-87018380D01*
X30246666Y-88018380D02*
X30246666Y-87494571D01*
X30199047Y-87399333D01*
X30103809Y-87351714D01*
X29960952Y-87351714D01*
X29865714Y-87399333D01*
X29818095Y-87446952D01*
%TO.C,J1*%
X13382666Y-89114380D02*
X13382666Y-89828666D01*
X13335047Y-89971523D01*
X13239809Y-90066761D01*
X13096952Y-90114380D01*
X13001714Y-90114380D01*
X14382666Y-90114380D02*
X13811238Y-90114380D01*
X14096952Y-90114380D02*
X14096952Y-89114380D01*
X14001714Y-89257238D01*
X13906476Y-89352476D01*
X13811238Y-89400095D01*
X16959809Y-88018380D02*
X16959809Y-87018380D01*
X17340761Y-87018380D01*
X17436000Y-87066000D01*
X17483619Y-87113619D01*
X17531238Y-87208857D01*
X17531238Y-87351714D01*
X17483619Y-87446952D01*
X17436000Y-87494571D01*
X17340761Y-87542190D01*
X16959809Y-87542190D01*
X18102666Y-88018380D02*
X18007428Y-87970761D01*
X17959809Y-87923142D01*
X17912190Y-87827904D01*
X17912190Y-87542190D01*
X17959809Y-87446952D01*
X18007428Y-87399333D01*
X18102666Y-87351714D01*
X18245523Y-87351714D01*
X18340761Y-87399333D01*
X18388380Y-87446952D01*
X18436000Y-87542190D01*
X18436000Y-87827904D01*
X18388380Y-87923142D01*
X18340761Y-87970761D01*
X18245523Y-88018380D01*
X18102666Y-88018380D01*
X18769333Y-87351714D02*
X18959809Y-88018380D01*
X19150285Y-87542190D01*
X19340761Y-88018380D01*
X19531238Y-87351714D01*
X20293142Y-87970761D02*
X20197904Y-88018380D01*
X20007428Y-88018380D01*
X19912190Y-87970761D01*
X19864571Y-87875523D01*
X19864571Y-87494571D01*
X19912190Y-87399333D01*
X20007428Y-87351714D01*
X20197904Y-87351714D01*
X20293142Y-87399333D01*
X20340761Y-87494571D01*
X20340761Y-87589809D01*
X19864571Y-87685047D01*
X20769333Y-88018380D02*
X20769333Y-87351714D01*
X20769333Y-87542190D02*
X20816952Y-87446952D01*
X20864571Y-87399333D01*
X20959809Y-87351714D01*
X21055047Y-87351714D01*
%TO.C,F1*%
X35480666Y-86034571D02*
X35147333Y-86034571D01*
X35147333Y-86558380D02*
X35147333Y-85558380D01*
X35623523Y-85558380D01*
X36528285Y-86558380D02*
X35956857Y-86558380D01*
X36242571Y-86558380D02*
X36242571Y-85558380D01*
X36147333Y-85701238D01*
X36052095Y-85796476D01*
X35956857Y-85844095D01*
%TO.C,D1*%
X38377904Y-132322380D02*
X38377904Y-131322380D01*
X38616000Y-131322380D01*
X38758857Y-131370000D01*
X38854095Y-131465238D01*
X38901714Y-131560476D01*
X38949333Y-131750952D01*
X38949333Y-131893809D01*
X38901714Y-132084285D01*
X38854095Y-132179523D01*
X38758857Y-132274761D01*
X38616000Y-132322380D01*
X38377904Y-132322380D01*
X39901714Y-132322380D02*
X39330285Y-132322380D01*
X39616000Y-132322380D02*
X39616000Y-131322380D01*
X39520761Y-131465238D01*
X39425523Y-131560476D01*
X39330285Y-131608095D01*
%TD*%
%LPC*%
D12*
%TO.C,U6*%
X31242000Y-98552000D03*
X31242000Y-101092000D03*
X31242000Y-103632000D03*
X31242000Y-106172000D03*
X31242000Y-108712000D03*
X31242000Y-111252000D03*
D13*
X31242000Y-113792000D03*
%TD*%
D12*
%TO.C,U5*%
X19812000Y-98552000D03*
X19812000Y-101092000D03*
X19812000Y-103632000D03*
X19812000Y-106172000D03*
X19812000Y-108712000D03*
X19812000Y-111252000D03*
D13*
X19812000Y-113792000D03*
%TD*%
D12*
%TO.C,U3*%
X19812000Y-127762000D03*
X19812000Y-130302000D03*
X19812000Y-132842000D03*
X19812000Y-135382000D03*
X19812000Y-137922000D03*
X19812000Y-140462000D03*
D13*
X19812000Y-143002000D03*
%TD*%
D12*
%TO.C,U2*%
X31242000Y-127762000D03*
X31242000Y-130302000D03*
X31242000Y-132842000D03*
X31242000Y-135382000D03*
X31242000Y-137922000D03*
X31242000Y-140462000D03*
D13*
X31242000Y-143002000D03*
%TD*%
D14*
%TO.C,U4*%
X40640000Y-80772000D03*
X40640000Y-83312000D03*
D15*
X40640000Y-85852000D03*
%TD*%
D16*
%TO.C,R1*%
X41656000Y-61214000D03*
D17*
X41656000Y-71374000D03*
%TD*%
D18*
%TO.C,U1*%
X11430000Y-52070000D03*
X13970000Y-52070000D03*
X16510000Y-52070000D03*
X19050000Y-52070000D03*
X21590000Y-52070000D03*
X24130000Y-52070000D03*
X26670000Y-52070000D03*
X29210000Y-52070000D03*
X29210000Y-74930000D03*
X26670000Y-74930000D03*
X24130000Y-74930000D03*
X21590000Y-74930000D03*
X19050000Y-74930000D03*
X16510000Y-74930000D03*
D19*
X11430000Y-74930000D03*
D18*
X13970000Y-74930000D03*
%TD*%
%TO.C,J3*%
G36*
G01*
X40524001Y-97390000D02*
X38723999Y-97390000D01*
G75*
G02*
X38474000Y-97140001I0J249999D01*
G01*
X38474000Y-95339999D01*
G75*
G02*
X38723999Y-95090000I249999J0D01*
G01*
X40524001Y-95090000D01*
G75*
G02*
X40774000Y-95339999I0J-249999D01*
G01*
X40774000Y-97140001D01*
G75*
G02*
X40524001Y-97390000I-249999J0D01*
G01*
G37*
D20*
X39624000Y-91440000D03*
%TD*%
%TO.C,J2*%
X25680000Y-89916000D03*
G36*
G01*
X31630000Y-89015999D02*
X31630000Y-90816001D01*
G75*
G02*
X31380001Y-91066000I-249999J0D01*
G01*
X29579999Y-91066000D01*
G75*
G02*
X29330000Y-90816001I0J249999D01*
G01*
X29330000Y-89015999D01*
G75*
G02*
X29579999Y-88766000I249999J0D01*
G01*
X31380001Y-88766000D01*
G75*
G02*
X31630000Y-89015999I0J-249999D01*
G01*
G37*
%TD*%
%TO.C,J1*%
X16536000Y-89916000D03*
G36*
G01*
X22486000Y-89015999D02*
X22486000Y-90816001D01*
G75*
G02*
X22236001Y-91066000I-249999J0D01*
G01*
X20435999Y-91066000D01*
G75*
G02*
X20186000Y-90816001I0J249999D01*
G01*
X20186000Y-89015999D01*
G75*
G02*
X20435999Y-88766000I249999J0D01*
G01*
X22236001Y-88766000D01*
G75*
G02*
X22486000Y-89015999I0J-249999D01*
G01*
G37*
%TD*%
D21*
%TO.C,F1*%
X12198000Y-82042000D03*
X34798000Y-82042000D03*
%TD*%
D12*
%TO.C,D1*%
X39116000Y-111760000D03*
X39116000Y-114300000D03*
X39116000Y-116840000D03*
X39116000Y-119380000D03*
X39116000Y-121920000D03*
X39116000Y-124460000D03*
X39116000Y-127000000D03*
D13*
X39116000Y-129540000D03*
%TD*%
M02*
