%TF.GenerationSoftware,KiCad,Pcbnew,(5.1.10)-1*%
%TF.CreationDate,2021-07-28T16:14:29+02:00*%
%TF.ProjectId,LEDBeam,4c454442-6561-46d2-9e6b-696361645f70,rev?*%
%TF.SameCoordinates,Original*%
%TF.FileFunction,Soldermask,Top*%
%TF.FilePolarity,Negative*%
%FSLAX46Y46*%
G04 Gerber Fmt 4.6, Leading zero omitted, Abs format (unit mm)*
G04 Created by KiCad (PCBNEW (5.1.10)-1) date 2021-07-28 16:14:29*
%MOMM*%
%LPD*%
G01*
G04 APERTURE LIST*
%ADD10O,1.700000X1.700000*%
%ADD11R,1.700000X1.700000*%
%ADD12O,2.000000X1.905000*%
%ADD13R,2.000000X1.905000*%
%ADD14O,1.600000X1.600000*%
%ADD15C,1.600000*%
%ADD16O,1.600000X2.000000*%
%ADD17R,2.000000X2.000000*%
%ADD18C,2.300000*%
%ADD19C,3.000000*%
G04 APERTURE END LIST*
D10*
%TO.C,U6*%
X31242000Y-98552000D03*
X31242000Y-101092000D03*
X31242000Y-103632000D03*
X31242000Y-106172000D03*
X31242000Y-108712000D03*
X31242000Y-111252000D03*
D11*
X31242000Y-113792000D03*
%TD*%
D10*
%TO.C,U5*%
X19812000Y-98552000D03*
X19812000Y-101092000D03*
X19812000Y-103632000D03*
X19812000Y-106172000D03*
X19812000Y-108712000D03*
X19812000Y-111252000D03*
D11*
X19812000Y-113792000D03*
%TD*%
D10*
%TO.C,U3*%
X19812000Y-127762000D03*
X19812000Y-130302000D03*
X19812000Y-132842000D03*
X19812000Y-135382000D03*
X19812000Y-137922000D03*
X19812000Y-140462000D03*
D11*
X19812000Y-143002000D03*
%TD*%
D10*
%TO.C,U2*%
X31242000Y-127762000D03*
X31242000Y-130302000D03*
X31242000Y-132842000D03*
X31242000Y-135382000D03*
X31242000Y-137922000D03*
X31242000Y-140462000D03*
D11*
X31242000Y-143002000D03*
%TD*%
D12*
%TO.C,U4*%
X40640000Y-80772000D03*
X40640000Y-83312000D03*
D13*
X40640000Y-85852000D03*
%TD*%
D14*
%TO.C,R1*%
X41656000Y-61214000D03*
D15*
X41656000Y-71374000D03*
%TD*%
D16*
%TO.C,U1*%
X11430000Y-52070000D03*
X13970000Y-52070000D03*
X16510000Y-52070000D03*
X19050000Y-52070000D03*
X21590000Y-52070000D03*
X24130000Y-52070000D03*
X26670000Y-52070000D03*
X29210000Y-52070000D03*
X29210000Y-74930000D03*
X26670000Y-74930000D03*
X24130000Y-74930000D03*
X21590000Y-74930000D03*
X19050000Y-74930000D03*
X16510000Y-74930000D03*
D17*
X11430000Y-74930000D03*
D16*
X13970000Y-74930000D03*
%TD*%
%TO.C,J3*%
G36*
G01*
X40524001Y-97390000D02*
X38723999Y-97390000D01*
G75*
G02*
X38474000Y-97140001I0J249999D01*
G01*
X38474000Y-95339999D01*
G75*
G02*
X38723999Y-95090000I249999J0D01*
G01*
X40524001Y-95090000D01*
G75*
G02*
X40774000Y-95339999I0J-249999D01*
G01*
X40774000Y-97140001D01*
G75*
G02*
X40524001Y-97390000I-249999J0D01*
G01*
G37*
D18*
X39624000Y-91440000D03*
%TD*%
%TO.C,J2*%
X25680000Y-89916000D03*
G36*
G01*
X31630000Y-89015999D02*
X31630000Y-90816001D01*
G75*
G02*
X31380001Y-91066000I-249999J0D01*
G01*
X29579999Y-91066000D01*
G75*
G02*
X29330000Y-90816001I0J249999D01*
G01*
X29330000Y-89015999D01*
G75*
G02*
X29579999Y-88766000I249999J0D01*
G01*
X31380001Y-88766000D01*
G75*
G02*
X31630000Y-89015999I0J-249999D01*
G01*
G37*
%TD*%
%TO.C,J1*%
X16536000Y-89916000D03*
G36*
G01*
X22486000Y-89015999D02*
X22486000Y-90816001D01*
G75*
G02*
X22236001Y-91066000I-249999J0D01*
G01*
X20435999Y-91066000D01*
G75*
G02*
X20186000Y-90816001I0J249999D01*
G01*
X20186000Y-89015999D01*
G75*
G02*
X20435999Y-88766000I249999J0D01*
G01*
X22236001Y-88766000D01*
G75*
G02*
X22486000Y-89015999I0J-249999D01*
G01*
G37*
%TD*%
D19*
%TO.C,F1*%
X12198000Y-82042000D03*
X34798000Y-82042000D03*
%TD*%
D10*
%TO.C,D1*%
X39116000Y-111760000D03*
X39116000Y-114300000D03*
X39116000Y-116840000D03*
X39116000Y-119380000D03*
X39116000Y-121920000D03*
X39116000Y-124460000D03*
X39116000Y-127000000D03*
D11*
X39116000Y-129540000D03*
%TD*%
M02*
