%FSLAX45Y45*%
G04 Gerber Fmt 4.5, Leading zero omitted, Abs format (unit mm)*
G04 Created by KiCad (PCBNEW (5.1.10)-1) date 2021-07-28 16:17:07*
%MOMM*%
%LPD*%
G01*
G04 APERTURE LIST*
%TA.AperFunction,Profile*%
%ADD10C,0.050000*%
%TD*%
%ADD11C,0.200000*%
%ADD12C,0.300000*%
G04 APERTURE END LIST*
D10*
X4572000Y-5054600D02*
X1016000Y-5054600D01*
X4572000Y-15036800D02*
X4572000Y-5054600D01*
X1016000Y-15036800D02*
X4572000Y-15036800D01*
X1016000Y-5054600D02*
X1016000Y-15036800D01*
D11*
D12*
X1299928Y-15505014D02*
X1299928Y-15205014D01*
X1371357Y-15205014D01*
X1414214Y-15219300D01*
X1442786Y-15247871D01*
X1457071Y-15276443D01*
X1471357Y-15333586D01*
X1471357Y-15376443D01*
X1457071Y-15433586D01*
X1442786Y-15462157D01*
X1414214Y-15490729D01*
X1371357Y-15505014D01*
X1299928Y-15505014D01*
X1599928Y-15505014D02*
X1599928Y-15305014D01*
X1599928Y-15362157D02*
X1614214Y-15333586D01*
X1628500Y-15319300D01*
X1657071Y-15305014D01*
X1685643Y-15305014D01*
X1785643Y-15505014D02*
X1785643Y-15305014D01*
X1785643Y-15205014D02*
X1771357Y-15219300D01*
X1785643Y-15233586D01*
X1799928Y-15219300D01*
X1785643Y-15205014D01*
X1785643Y-15233586D01*
X1971357Y-15505014D02*
X1942786Y-15490729D01*
X1928500Y-15462157D01*
X1928500Y-15205014D01*
X2128500Y-15505014D02*
X2099928Y-15490729D01*
X2085643Y-15462157D01*
X2085643Y-15205014D01*
X2471357Y-15505014D02*
X2471357Y-15205014D01*
X2571357Y-15419300D01*
X2671357Y-15205014D01*
X2671357Y-15505014D01*
X2942786Y-15505014D02*
X2942786Y-15347871D01*
X2928500Y-15319300D01*
X2899928Y-15305014D01*
X2842786Y-15305014D01*
X2814214Y-15319300D01*
X2942786Y-15490729D02*
X2914214Y-15505014D01*
X2842786Y-15505014D01*
X2814214Y-15490729D01*
X2799928Y-15462157D01*
X2799928Y-15433586D01*
X2814214Y-15405014D01*
X2842786Y-15390729D01*
X2914214Y-15390729D01*
X2942786Y-15376443D01*
X3085643Y-15305014D02*
X3085643Y-15605014D01*
X3085643Y-15319300D02*
X3114214Y-15305014D01*
X3171357Y-15305014D01*
X3199928Y-15319300D01*
X3214214Y-15333586D01*
X3228500Y-15362157D01*
X3228500Y-15447871D01*
X3214214Y-15476443D01*
X3199928Y-15490729D01*
X3171357Y-15505014D01*
X3114214Y-15505014D01*
X3085643Y-15490729D01*
X3357071Y-15476443D02*
X3371357Y-15490729D01*
X3357071Y-15505014D01*
X3342786Y-15490729D01*
X3357071Y-15476443D01*
X3357071Y-15505014D01*
X3357071Y-15319300D02*
X3371357Y-15333586D01*
X3357071Y-15347871D01*
X3342786Y-15333586D01*
X3357071Y-15319300D01*
X3357071Y-15347871D01*
M02*
